<svg width="61" height="60" viewBox="0 0 61 60" fill="none" xmlns="http://www.w3.org/2000/svg">
<g clip-path="url(#clip0_596_1337)">
<path d="M9.79034 47.8186C10.0223 47.5655 10.3635 47.2804 10.8148 46.9632C11.2653 46.6465 11.7553 46.33 12.2837 46.0126C12.8116 45.696 13.3467 45.3852 13.888 45.0811C14.4293 44.7769 14.893 44.5108 15.2795 44.2827C15.8462 43.9535 16.4006 43.5924 16.9418 43.1992C17.483 42.8064 17.9721 42.3502 18.4107 41.8304C18.8486 41.3112 19.2032 40.722 19.4737 40.0624C19.7443 39.4035 19.8794 38.6555 19.8794 37.8191C19.8794 35.7914 19.1385 34.182 17.6569 32.9902C16.1746 31.7991 14.0426 31.2031 11.2595 31.2031C10.1251 31.2031 9.03677 31.3048 7.99298 31.5073C6.9493 31.7105 5.9889 31.9827 5.1131 32.3248C4.23658 32.6672 3.45084 33.0538 2.75506 33.4845C2.05927 33.9158 1.50491 34.359 1.09292 34.8152L5.03578 39.3018C5.78291 38.4653 6.55602 37.7874 7.3551 37.2676C8.1537 36.7485 9.09455 36.4882 10.177 36.4882C11.1301 36.4882 11.8646 36.7038 12.3803 37.1346C12.8955 37.566 13.1535 38.1362 13.1535 38.8455C13.1535 39.2007 13.0502 39.5108 12.8443 39.7771C12.6377 40.0432 12.2965 40.3414 11.8198 40.6705C11.3426 41.0003 10.6987 41.3804 9.88696 41.8112C9.07525 42.2426 8.06351 42.7873 6.85244 43.4461C5.71822 44.08 4.77784 44.7264 4.03058 45.3851C3.28285 46.0446 2.69024 46.7604 2.25252 47.5335C1.81408 48.3069 1.50491 49.1625 1.32477 50.1C1.14415 51.0381 1.0542 52.1028 1.0542 53.2939H20.3048V47.8186H9.79034Z" fill="#07A692"/>
<path d="M39.4775 47.441V31.5859H35.264L22.6624 47.4791V52.9163H33.2926V58.1253H39.4775V52.9163H42.8792V47.441H39.4775ZM34.027 47.4411H28.7699L34.027 40.7112V47.4411Z" fill="#07A692"/>
<path d="M4.65082 54.6875V56.7231H2.52129V54.6875H1.28711V59.9427H2.52129V57.7888H4.65082V59.9427H5.885V54.6875H4.65082Z" fill="#07A692"/>
<path d="M12.8529 56.3511C12.7277 56.0305 12.5497 55.7442 12.3189 55.4926C12.088 55.2409 11.8097 55.0389 11.4836 54.8857C11.1574 54.7328 10.7963 54.6562 10.3999 54.6562C10.0136 54.6562 9.6574 54.7291 9.33132 54.8746C9.00511 55.0202 8.72298 55.2151 8.48458 55.4592C8.2463 55.7034 8.06056 55.9861 7.92771 56.3068C7.79463 56.6277 7.72827 56.9608 7.72827 57.3061C7.72827 57.6465 7.79225 57.9772 7.92021 58.2979C8.04817 58.6187 8.22735 58.9037 8.45813 59.1528C8.68891 59.4019 8.96734 59.6031 9.29343 59.7559C9.61952 59.9088 9.98063 59.9854 10.3771 59.9854C10.7634 59.9854 11.1195 59.9114 11.4457 59.7632C11.7718 59.6153 12.0527 59.419 12.2885 59.1749C12.5244 58.9307 12.7086 58.648 12.8416 58.3273C12.9745 58.0065 13.041 57.6735 13.041 57.328C13.041 56.9977 12.9782 56.6719 12.8529 56.3511ZM11.6981 57.8871C11.6403 58.0772 11.5538 58.2474 11.4383 58.3978C11.323 58.5484 11.1774 58.6705 11.002 58.7644C10.8263 58.858 10.6207 58.905 10.3849 58.905C10.1591 58.905 9.95847 58.8606 9.78286 58.7719C9.60713 58.6831 9.46046 58.5645 9.34263 58.4166C9.2248 58.2687 9.13581 58.0996 9.07552 57.9096C9.01523 57.7197 8.98521 57.5236 8.98521 57.3212C8.98521 57.1239 9.01404 56.9302 9.07183 56.7401C9.12961 56.5502 9.21718 56.3811 9.33513 56.2331C9.45308 56.0851 9.59843 55.9655 9.77154 55.8742C9.94465 55.7829 10.1491 55.7372 10.3848 55.7372C10.6105 55.7372 10.8099 55.7804 10.983 55.8668C11.156 55.9532 11.3027 56.0693 11.4231 56.2146C11.5434 56.3603 11.6338 56.5281 11.694 56.7179C11.7542 56.9079 11.7843 57.1042 11.7843 57.3063C11.7847 57.5036 11.7557 57.6973 11.6981 57.8871Z" fill="#07A692"/>
<path d="M18.3169 54.6876V57.3743H18.3165C18.3165 57.5668 18.2977 57.7555 18.26 57.9405C18.2224 58.1256 18.1584 58.2896 18.0682 58.4327C17.9779 58.5758 17.8599 58.6906 17.7145 58.7769C17.5691 58.8634 17.3909 58.9065 17.1802 58.9065C16.9695 58.9065 16.7927 58.8645 16.6497 58.7806C16.5066 58.6969 16.39 58.5832 16.2998 58.4401C16.2095 58.2972 16.1442 58.1342 16.104 57.9517C16.0638 57.7691 16.0439 57.5768 16.0439 57.3743V54.6875H14.8098V57.3743C14.8098 57.7197 14.8537 58.0503 14.9415 58.366C15.0293 58.682 15.1674 58.9594 15.3555 59.1989C15.5436 59.4384 15.7882 59.6294 16.0892 59.7724C16.3902 59.9155 16.7538 59.9871 17.1804 59.9871C17.5916 59.9871 17.9466 59.9194 18.2452 59.7835C18.5436 59.6478 18.7895 59.4615 18.9826 59.2248C19.1757 58.9878 19.3187 58.7116 19.4116 58.3958C19.5044 58.0801 19.5509 57.7395 19.5509 57.3744V54.6876H18.3169Z" fill="#07A692"/>
<path d="M24.9157 57.9888C25.051 57.9147 25.1727 57.8247 25.2807 57.7186C25.3885 57.6124 25.48 57.4927 25.5553 57.3596C25.6305 57.2264 25.6883 57.0845 25.7285 56.9339C25.7685 56.7834 25.7886 56.6267 25.7886 56.464C25.7886 56.2467 25.7447 56.0321 25.6568 55.8199C25.569 55.6078 25.4474 55.4178 25.2919 55.2501C25.1363 55.0824 24.952 54.9466 24.7389 54.8429C24.5256 54.7394 24.2936 54.6875 24.0428 54.6875H21.6348V59.9428H22.8688V58.2478H23.674L24.6974 59.9428H26.0895L24.9157 57.9888ZM24.3739 56.9858C24.2686 57.1216 24.143 57.1893 23.9977 57.1893H22.8689V55.7534H23.9602C24.1004 55.7534 24.2311 55.8177 24.3514 55.946C24.4718 56.0743 24.532 56.247 24.532 56.4642C24.5319 56.6762 24.4793 56.8502 24.3739 56.9858Z" fill="#07A692"/>
<path d="M31.5945 57.7714C31.5166 57.599 31.4064 57.4522 31.2634 57.3313C31.1203 57.2103 30.946 57.1091 30.7404 57.0277C30.5345 56.9463 30.304 56.8712 30.048 56.8019C29.8623 56.7527 29.6993 56.7083 29.559 56.6688C29.4185 56.6294 29.3019 56.5862 29.209 56.5392C29.1161 56.4923 29.0459 56.4392 28.9983 56.38C28.9504 56.3209 28.9267 56.2469 28.9267 56.158C28.9267 55.8669 29.1475 55.7212 29.5889 55.7212C29.7492 55.7212 29.91 55.7435 30.0706 55.7879C30.2309 55.8323 30.379 55.8842 30.5146 55.9433C30.6499 56.0025 30.7628 56.0594 30.8532 56.1136C30.9434 56.1679 30.9962 56.205 31.0112 56.2247L31.553 55.218C31.4327 55.149 31.3009 55.0801 31.158 55.0107C31.015 54.9417 30.8607 54.8799 30.6951 54.8257C30.5296 54.7714 30.3565 54.7271 30.1759 54.6925C29.9953 54.6581 29.8121 54.6406 29.6266 54.6406C29.3606 54.6406 29.1086 54.6778 28.8704 54.7517C28.6322 54.8257 28.4226 54.9356 28.2422 55.081C28.0616 55.2267 27.9186 55.4056 27.8132 55.6177C27.7079 55.8301 27.6552 56.0743 27.6552 56.3506C27.6552 56.5481 27.6839 56.7207 27.7417 56.8687C27.7995 57.0167 27.8871 57.1475 28.005 57.2611C28.123 57.3746 28.2721 57.4746 28.4529 57.5608C28.6335 57.6473 28.8467 57.7274 29.0925 57.8015C29.2781 57.8558 29.4499 57.905 29.6079 57.9494C29.766 57.9938 29.9027 58.042 30.018 58.0938C30.1332 58.1456 30.2238 58.2036 30.2889 58.2677C30.354 58.3318 30.3869 58.4133 30.3869 58.5119C30.3869 58.7735 30.1686 58.9043 29.7322 58.9043C29.5263 58.9043 29.3232 58.8771 29.1226 58.8228C28.9219 58.7686 28.7399 58.7068 28.5769 58.6378C28.4138 58.5688 28.277 58.4997 28.1668 58.4304C28.0565 58.3615 27.9912 58.3145 27.9711 58.2897L27.4292 59.3482C27.5847 59.4517 27.754 59.5431 27.9371 59.6219C28.1202 59.7009 28.3098 59.7688 28.5053 59.8255C28.7009 59.8822 28.9014 59.9255 29.1073 59.955C29.3131 59.9846 29.5136 59.9994 29.7093 59.9994C29.9652 59.9994 30.2135 59.9709 30.4544 59.9142C30.6952 59.8575 30.9084 59.7662 31.0941 59.6405C31.2797 59.5146 31.4289 59.3494 31.5418 59.1445C31.6548 58.9398 31.7111 58.6892 31.7111 58.3932C31.711 58.1515 31.6723 57.9443 31.5945 57.7714Z" fill="#07A692"/>
<path d="M34.1342 28.3417C33.7983 27.0314 32.7477 25.998 31.4156 25.6677V9.5H29.5843V25.6678C27.959 26.0708 26.7522 27.5205 26.7522 29.2424C26.7522 31.2752 28.4335 32.9287 30.4999 32.9287C32.2507 32.9287 33.7243 31.7416 34.1341 30.143H45.03V28.3417H34.1342ZM30.5 31.1274C29.4434 31.1274 28.5836 30.2818 28.5836 29.2424C28.5836 28.2031 29.4434 27.3575 30.5 27.3575C31.5567 27.3575 32.4164 28.2031 32.4164 29.2424C32.4164 30.2818 31.5567 31.1274 30.5 31.1274Z" fill="#07A692"/>
<path d="M56.8957 42.709C59.0766 38.5817 60.2295 33.9247 60.2295 29.242C60.2295 21.4312 57.1371 14.0879 51.5221 8.56456C45.9068 3.04173 38.441 0 30.5 0C22.559 0 15.0932 3.04173 9.47793 8.56468C3.86293 14.0879 0.770508 21.4313 0.770508 29.2421V30.1429H6.36537V28.3416H2.6166C2.76267 23.907 3.9847 19.736 6.03202 16.0712L9.25443 17.9436L10.1859 16.3927L6.96501 14.5211C9.17293 11.1179 12.123 8.22425 15.5883 6.06002L17.4831 9.23148L19.062 8.31882L17.166 5.14525C20.8782 3.15001 25.0989 1.96055 29.5844 1.81759V5.50315H31.4157V1.81759C35.9238 1.96137 40.1649 3.1615 43.8906 5.17514L41.9869 8.34484L43.5635 9.26101L45.4658 6.09354C48.9257 8.26527 51.868 11.1665 54.0683 14.5749L50.8438 16.4385L51.7717 17.9915L54.9994 16.1261C57.028 19.7775 58.2361 23.9295 58.3815 28.3416H54.6347V30.1429H58.3818C58.2355 34.4752 57.0387 38.675 54.9617 42.4095L51.7455 40.5407L50.8141 42.0916L54.0292 43.9598C52.5423 46.2632 50.7044 48.356 48.5613 50.1519L48.8089 47.9562L46.9888 47.7576L46.3955 53.0186L51.7442 53.6022L51.9461 51.812L49.6968 51.5665C52.6485 49.1047 55.1159 46.0777 56.8957 42.709Z" fill="#07A692"/>
</g>
<defs>
<clipPath id="clip0_596_1337">
<rect width="61" height="60" fill="white"/>
</clipPath>
</defs>
</svg>
