<svg width="60" height="60" viewBox="0 0 60 60" fill="none" xmlns="http://www.w3.org/2000/svg">
<path d="M30 60C29.9258 60 29.8517 59.9931 29.7784 59.9789C22.6689 58.6116 16.214 54.7847 11.6029 49.2027C6.99234 43.6208 4.45312 36.5593 4.45312 29.3193V8.8092C4.45312 8.29697 4.78592 7.84378 5.27481 7.69089L29.6127 0.065918C29.7359 0.0228881 29.8709 0.00274658 30 0H30.0014C30.1341 0 30.2646 0.0228881 30.3877 0.065918L54.7252 7.69089C55.2141 7.84424 55.5469 8.29697 55.5469 8.8092V29.3193C55.5469 36.5593 53.0077 43.6208 48.3966 49.2027C43.786 54.7847 37.3311 58.6116 30.2216 59.9789C30.1483 59.9931 30.0742 60 30 60ZM6.79688 9.6698V29.3193C6.79688 43.0659 16.5413 54.9376 30 57.6338C43.4587 54.9376 53.2027 43.0659 53.2027 29.3193V9.6698L30 2.40051L6.79688 9.6698Z" fill="#07A692"/>
<path d="M30 53.2794C29.9048 53.2794 29.8096 53.268 29.7171 53.2451C24.4263 51.9286 19.6523 48.8304 16.2735 44.5215C12.8828 40.1965 11.0156 34.7968 11.0156 29.3164V13.627C11.0156 13.1148 11.3484 12.662 11.8369 12.5092L29.6494 6.92856C29.8773 6.85715 30.1222 6.85715 30.3502 6.92856L48.1627 12.5092C48.6511 12.662 48.9839 13.1148 48.9839 13.627V29.3164C48.9839 33.3223 47.9915 37.3099 46.1142 40.8479C45.8107 41.4197 45.1016 41.6367 44.5299 41.3336C43.9581 41.0301 43.7407 40.321 44.0437 39.7493C45.7425 36.5486 46.6402 32.941 46.6402 29.3164V14.4881L29.9995 9.2746L13.3594 14.4881V29.3164C13.3594 39.4893 20.1874 48.3223 29.9995 50.8981C32.7255 50.1826 35.2583 48.9719 37.5325 47.2969C38.0534 46.9133 38.7872 47.0245 39.1708 47.5455C39.5549 48.0664 39.4437 48.8002 38.9223 49.1838C36.3217 51.0995 33.4149 52.4655 30.2824 53.2451C30.19 53.268 30.0948 53.2794 30 53.2794Z" fill="#07A692"/>
<path d="M27.8714 38.8164C27.5711 38.8164 27.2717 38.7019 27.0428 38.473L19.1954 30.6256C18.7376 30.1683 18.7376 29.4263 19.1954 28.9685L23.1729 24.991C23.3926 24.7713 23.6906 24.6477 24.0014 24.6477C24.3123 24.6477 24.6103 24.7713 24.83 24.991L27.8714 28.0324L35.1695 20.7338C35.6273 20.2765 36.3693 20.276 36.8271 20.7338L40.8046 24.7113C41.0243 24.931 41.1479 25.229 41.1479 25.5398C41.1479 25.8507 41.0243 26.1487 40.8046 26.3684L28.6999 38.473C28.471 38.7019 28.1712 38.8164 27.8714 38.8164ZM21.681 29.797L27.8714 35.9869L38.3185 25.5398L35.998 23.2199L28.6999 30.5185C28.4802 30.7382 28.1822 30.8613 27.8714 30.8613C27.5605 30.8613 27.2625 30.7382 27.0428 30.5185L24.0014 27.4771L21.681 29.797Z" fill="#07A692"/>
<path d="M42.0959 45.8359C41.7879 45.8359 41.4853 45.7114 41.2674 45.4926C41.0495 45.2747 40.9241 44.9721 40.9241 44.6641C40.9241 44.356 41.0495 44.0534 41.2674 43.8355C41.4853 43.6176 41.7879 43.4922 42.0959 43.4922C42.404 43.4922 42.7066 43.6176 42.9245 43.8355C43.1424 44.0534 43.2678 44.356 43.2678 44.6641C43.2678 44.9721 43.1424 45.2747 42.9245 45.4926C42.7066 45.7114 42.404 45.8359 42.0959 45.8359Z" fill="#07A692"/>
</svg>
