<svg width="60" height="60" viewBox="0 0 60 60" fill="none" xmlns="http://www.w3.org/2000/svg">
<g clip-path="url(#clip0_596_1563)">
<path fill-rule="evenodd" clip-rule="evenodd" d="M34.6724 15.2487C34.4053 15.2487 34.1482 15.1396 33.9567 14.9378C33.7971 14.7698 33.698 14.5716 33.5165 14.2119C33.1973 13.5769 32.6025 12.3924 31.3727 10.8349C30.8636 10.1898 30.6587 9.96967 30.5142 9.82696C30.4016 9.71611 30.1143 9.44729 29.701 9.14314C29.3885 9.51113 29.0306 9.82191 28.6308 10.0705C27.4429 10.8115 26.2753 10.7829 25.3361 10.7611L25.2706 10.7594C25.242 10.7594 22.3757 10.6939 19.3163 10.9056C17.1506 11.0551 16.5156 11.3188 16.0519 11.5743C15.6302 11.8077 14.8456 12.2413 14.4844 13.0443C14.3281 13.3905 14.2827 13.7297 14.2441 14.0019C14.224 14.1532 14.2054 14.2842 14.1702 14.4151C14.0173 14.9763 13.5871 15.2081 13.2361 15.2366C13.0244 15.2551 12.4952 15.2248 12.1357 14.5663C12.045 14.4 11.9575 14.1832 11.877 13.9245C11.7291 13.4541 11.6098 12.866 11.5494 12.3099C11.3226 10.2517 11.8686 8.56501 12.213 7.74342C12.4364 7.21084 13.1085 5.82647 14.513 4.46725C16.9457 2.11679 19.8523 1.51363 21.7761 1.11377C23.3805 0.781119 24.5028 0.732425 25.9141 0.700558C27.0129 0.675317 28.3116 0.722433 29.6254 1.26669C30.2974 1.54382 30.788 1.87489 31.1711 2.30841C31.4634 2.64106 31.5809 2.90157 31.717 3.20225C31.7876 3.35685 31.8666 3.53323 31.9941 3.77848C32.3133 4.385 32.5065 4.75289 32.8257 5.08386C32.9701 5.23342 33.0256 5.26539 33.2306 5.38623C33.4491 5.51559 33.7481 5.69038 34.2454 6.06332C34.857 6.52197 35.2619 6.82612 35.6988 7.35197C35.9777 7.68968 36.5606 8.3919 36.7909 9.4353C36.9387 10.1006 36.8698 10.6248 36.7555 11.4935C36.6816 12.0547 36.3018 13.0845 36.186 13.3853C35.6954 14.674 35.4468 15.0469 34.9797 15.1981C34.8807 15.232 34.7748 15.2487 34.6724 15.2487ZM29.4709 6.94412C29.9363 6.94412 30.3395 7.2264 30.5948 7.40456L30.6216 7.42307C31.2315 7.84638 31.6649 8.24456 31.8682 8.44459C32.0883 8.65967 32.3471 8.94531 32.8931 9.63586C33.6593 10.6069 34.2019 11.4453 34.5916 12.1174C34.7193 11.746 34.8184 11.4101 34.8403 11.242C34.9444 10.4406 34.9747 10.1718 34.9041 9.85262C34.7747 9.26619 34.4353 8.85802 34.212 8.58752C33.9213 8.23636 33.6425 8.02812 33.088 7.61133C32.6782 7.30381 32.4429 7.16435 32.2531 7.0535C32.0011 6.90563 31.7641 6.76628 31.4365 6.42521C30.9257 5.89599 30.6435 5.35836 30.2856 4.6779C30.1293 4.38048 30.0303 4.15878 29.9563 3.99745C29.8438 3.74883 29.8202 3.69845 29.7229 3.5876C29.6002 3.44814 29.3953 3.26325 28.8895 3.05333C27.91 2.64843 26.9037 2.61309 25.961 2.63339C24.6119 2.66357 23.619 2.70732 22.1723 3.00632C20.3646 3.38104 17.8898 3.89512 15.8603 5.85739C14.6809 6.99818 14.1366 8.16074 13.9988 8.49013C13.7803 9.00926 13.4628 9.96189 13.4342 11.1531C13.5972 10.97 13.777 10.7952 13.9752 10.6322C14.4171 10.266 14.8539 10.024 15.116 9.87954C15.9341 9.42584 16.8633 9.13357 19.1836 8.97234C22.337 8.7539 25.1983 8.81942 25.3177 8.82279L25.3849 8.82447C26.1695 8.84298 26.9121 8.86139 27.606 8.42798C27.9688 8.20123 28.2797 7.87867 28.5284 7.46861C28.6847 7.20989 28.9333 7.03173 29.2307 6.96789C29.3129 6.95075 29.3919 6.94412 29.4709 6.94412Z" fill="#07A692"/>
<path fill-rule="evenodd" clip-rule="evenodd" d="M24.2005 31.3593C23.5502 31.3593 22.8111 31.2971 22.0147 31.1207C21.3058 30.9644 19.4594 30.4402 17.6465 28.955C16.7779 28.2427 15.1835 26.6717 14.2778 24.1516C14.0309 23.4644 13.8696 22.7253 13.7771 22.2195C13.1437 21.9356 12.5624 21.5072 12.0701 20.9578C11.4418 20.2556 11.0033 19.4055 10.8033 18.4999C10.3967 16.6585 11.0218 14.8506 12.5187 13.5436C12.9219 13.1924 13.5334 13.2327 13.8845 13.636C14.2357 14.0393 14.1954 14.6508 13.7921 15.0019C12.4933 16.1359 12.5455 17.4195 12.6932 18.0832C12.9553 19.2693 13.8474 20.2741 14.9127 20.5832C15.2807 20.6907 15.551 21.0031 15.6014 21.3829C15.6754 21.9256 15.8484 22.8059 16.0988 23.4998C16.875 25.6603 18.298 26.9893 18.8725 27.4615C20.3628 28.6812 21.8581 29.108 22.431 29.2356C24.0641 29.5951 25.4099 29.3582 25.9138 29.2389C27.2882 28.9146 28.2138 28.2762 28.6104 28.004C28.8961 27.8075 29.642 27.253 30.4014 26.3541C31.4984 25.0554 32.3066 23.2895 32.7434 21.2449C32.8258 20.8568 33.1382 20.5577 33.5298 20.4922C33.9564 20.42 34.4219 20.052 34.805 19.4843C35.2215 18.8643 35.4921 18.0848 35.5459 17.3472C35.603 16.5576 35.4451 15.5428 34.3631 15.195C33.8541 15.032 33.5752 14.486 33.7382 13.9769C33.9012 13.4679 34.4472 13.189 34.9563 13.352C35.8736 13.6477 36.5876 14.234 37.0194 15.0505C37.3841 15.7377 37.5419 16.5793 37.4765 17.485C37.3992 18.5485 37.0111 19.6707 36.4113 20.5629C35.8821 21.3493 35.2219 21.9171 34.5079 22.211C33.9786 24.3531 33.0966 26.1643 31.8819 27.6024C31.0048 28.6407 30.1446 29.2975 29.7094 29.5966C29.2658 29.9008 28.0881 30.7122 26.361 31.1205C25.8956 31.2281 25.1414 31.3593 24.2005 31.3593Z" fill="#07A692"/>
<path fill-rule="evenodd" clip-rule="evenodd" d="M18.4125 35.0696C18.268 35.0696 18.1218 35.0376 17.9824 34.9688C17.5036 34.732 17.307 34.1507 17.5456 33.6719C17.843 33.0721 18.347 31.8691 18.3823 30.5468C18.3958 30.0277 18.3286 29.7907 18.2176 29.3959C18.1874 29.29 18.1538 29.1692 18.1184 29.0365C17.9857 28.519 18.2982 27.9914 18.8157 27.8586C19.3332 27.7259 19.8608 28.0384 19.9935 28.5559C20.0221 28.6634 20.0506 28.7676 20.0792 28.8684C20.2069 29.3187 20.3396 29.7841 20.3179 30.5972C20.2742 32.2908 19.6492 33.7893 19.2813 34.5303C19.1115 34.873 18.7686 35.0696 18.4125 35.0696Z" fill="#07A692"/>
<path fill-rule="evenodd" clip-rule="evenodd" d="M30.1414 35.703C29.8121 35.703 29.4929 35.535 29.3113 35.2343C28.673 34.1725 27.9017 32.5058 27.8513 30.5972C27.8294 29.7823 27.9621 29.317 28.0899 28.8684C28.1185 28.7676 28.147 28.6651 28.1756 28.5559C28.3083 28.0385 28.8359 27.7259 29.3534 27.8586C29.871 27.9914 30.1834 28.5189 30.0507 29.0365C30.0171 29.1675 29.9818 29.2884 29.9515 29.3959C29.8407 29.7891 29.7718 30.0276 29.7868 30.5468C29.8255 32.0354 30.4521 33.3761 30.9696 34.238C31.2451 34.6966 31.0972 35.2914 30.6386 35.5653C30.4824 35.6578 30.311 35.703 30.1414 35.703Z" fill="#07A692"/>
<path fill-rule="evenodd" clip-rule="evenodd" d="M48.4139 59.3118H0.968107C0.435522 59.3118 0.00200852 58.88 0.00043096 58.3475C-0.00966543 54.9738 0.144935 46.5415 1.82672 41.1182C2.2737 39.68 2.81459 38.5057 3.52859 37.4237C4.12838 36.5165 5.85897 34.2349 8.95025 32.664C11.7829 31.2225 14.493 31.0091 16.2671 31.083C16.499 31.0931 16.7208 31.1856 16.8887 31.3451L24.4879 38.4804L32.5069 31.33C32.6732 31.1804 32.8866 31.0947 33.1118 31.0846C34.8859 31.0107 37.5942 31.2256 40.4286 32.6655C43.52 34.238 45.2504 36.518 45.8502 37.4252C46.5659 38.5072 47.1069 39.68 47.5521 41.1198C48.325 43.608 48.8626 47.0119 49.1515 51.2322C49.3078 53.5104 49.3868 55.97 49.3783 58.3474C49.38 58.8818 48.9466 59.3118 48.4139 59.3118ZM24.6323 57.3764H47.4445C47.4311 55.3502 47.3554 53.2905 47.2227 51.3651C46.9438 47.2926 46.433 44.0382 45.7055 41.6928C45.309 40.4176 44.8571 39.4297 44.2371 38.4921C43.7214 37.7125 42.2328 35.7519 39.5513 34.3894C37.2664 33.2267 35.0706 32.9832 33.5333 33.0067L25.116 40.5116C24.7413 40.8442 24.1752 40.8375 23.8089 40.4948L15.8335 33.0049C14.2979 32.9847 12.1087 33.2283 9.82874 34.3876C7.14731 35.7501 5.65883 37.7108 5.14296 38.4903C4.52298 39.4278 4.07106 40.414 3.67457 41.6892C2.9471 44.0346 2.43629 47.289 2.15738 51.3615C2.02465 53.287 1.94903 55.3468 1.93557 57.3729L24.6323 57.3764Z" fill="#07A692"/>
<path fill-rule="evenodd" clip-rule="evenodd" d="M10.1515 59.3071C9.61725 59.3071 9.18384 58.8736 9.18384 58.3394V47.1786C9.18384 46.6443 9.61735 46.2109 10.1515 46.2109C10.6857 46.2109 11.1192 46.6443 11.1192 47.1786V58.3394C11.1194 58.8737 10.6859 59.3071 10.1515 59.3071Z" fill="#07A692"/>
<path fill-rule="evenodd" clip-rule="evenodd" d="M40.0102 59.3071C39.4759 59.3071 39.0425 58.8736 39.0425 58.3394V47.1786C39.0425 46.6443 39.4759 46.2109 40.0102 46.2109C40.5444 46.2109 40.9778 46.6443 40.9778 47.1786V58.3394C40.9779 58.8737 40.5444 59.3071 40.0102 59.3071Z" fill="#07A692"/>
<path fill-rule="evenodd" clip-rule="evenodd" d="M43.903 31.3875C43.3687 31.3875 42.9353 30.9541 42.9353 30.4198V2.97549C42.9353 2.44122 43.3687 2.00781 43.903 2.00781C44.4372 2.00781 44.8707 2.44133 44.8707 2.97549V30.4198C44.8708 30.9539 44.4372 31.3875 43.903 31.3875Z" fill="#07A692"/>
<path fill-rule="evenodd" clip-rule="evenodd" d="M59.0322 17.9927H43.903C43.3687 17.9927 42.9353 17.5593 42.9353 17.025V5.35845C42.9353 4.98888 43.1453 4.65286 43.4763 4.48984C43.8073 4.32683 44.2021 4.36721 44.4945 4.59238L59.6237 16.2589C59.9513 16.5109 60.0823 16.9461 59.948 17.3375C59.8152 17.729 59.4455 17.9927 59.0322 17.9927ZM44.8708 16.0573H56.1928L44.8708 7.32756V16.0573Z" fill="#07A692"/>
<path fill-rule="evenodd" clip-rule="evenodd" d="M29.4777 55.8129H19.4105C18.8763 55.8129 18.4429 55.3794 18.4429 54.8453V42.9989C18.4429 42.4647 18.8763 42.0312 19.4105 42.0312H29.4777C30.012 42.0312 30.4454 42.4647 30.4454 42.9989V54.8453C30.4454 55.3811 30.0136 55.8129 29.4777 55.8129ZM20.38 53.8775H28.5116V43.9666H20.38V53.8775Z" fill="#07A692"/>
<path fill-rule="evenodd" clip-rule="evenodd" d="M26.2065 47.0291H22.6833C22.149 47.0291 21.7156 46.5957 21.7156 46.0614C21.7156 45.5272 22.149 45.0938 22.6833 45.0938H26.2065C26.7407 45.0938 27.1741 45.5272 27.1741 46.0614C27.1741 46.5957 26.7407 47.0291 26.2065 47.0291Z" fill="#07A692"/>
<path fill-rule="evenodd" clip-rule="evenodd" d="M26.2065 49.8885H22.6833C22.149 49.8885 21.7156 49.4551 21.7156 48.9208C21.7156 48.3865 22.149 47.9531 22.6833 47.9531H26.2065C26.7407 47.9531 27.1741 48.3865 27.1741 48.9208C27.1741 49.4551 26.7407 49.8885 26.2065 49.8885Z" fill="#07A692"/>
<path fill-rule="evenodd" clip-rule="evenodd" d="M26.2065 52.7479H22.6833C22.149 52.7479 21.7156 52.3144 21.7156 51.7802C21.7156 51.2459 22.149 50.8125 22.6833 50.8125H26.2065C26.7407 50.8125 27.1741 51.2459 27.1741 51.7802C27.1741 52.3144 26.7407 52.7479 26.2065 52.7479Z" fill="#07A692"/>
<path fill-rule="evenodd" clip-rule="evenodd" d="M19.4121 43.9603C19.0828 43.9603 18.7619 43.7922 18.5805 43.4898L12.1626 32.7859C11.8871 32.3272 12.0366 31.7325 12.4953 31.4585C12.9539 31.183 13.5487 31.3325 13.8226 31.7912L20.2406 42.495C20.5161 42.9537 20.3666 43.5484 19.9079 43.8224C19.7532 43.9166 19.5818 43.9603 19.4121 43.9603Z" fill="#07A692"/>
<path fill-rule="evenodd" clip-rule="evenodd" d="M29.4777 43.9593C29.3081 43.9593 29.1366 43.9156 28.9804 43.8216C28.5217 43.5461 28.3738 42.9529 28.6477 42.4943L35.0656 31.7904C35.3412 31.3318 35.9342 31.1839 36.393 31.4578C36.8516 31.7333 36.9995 32.3264 36.7257 32.7851L30.3077 43.489C30.1279 43.7912 29.807 43.9593 29.4777 43.9593Z" fill="#07A692"/>
</g>
<defs>
<clipPath id="clip0_596_1563">
<rect width="60" height="60" fill="white"/>
</clipPath>
</defs>
</svg>
