<svg width="60" height="60" viewBox="0 0 60 60" fill="none" xmlns="http://www.w3.org/2000/svg">
<path d="M29.9316 36.9043C29.7647 37.8033 29.1359 38.6125 28.3018 39.0889L28.3008 39.0898C27.4675 39.5688 26.4436 39.7382 25.4355 39.6611H25.4365C25.2233 39.6438 25.0055 39.6163 24.7773 39.5859C24.553 39.5561 24.3148 39.5234 24.0771 39.499C23.6008 39.4501 23.0857 39.4302 22.5625 39.54H22.5615C21.4937 39.7662 20.6317 40.492 19.8965 41.0684C19.1638 41.6428 18.5397 42.0868 17.8271 42.1855L17.6836 42.2012C16.5832 42.2702 15.5323 41.4372 14.7617 40.3467L14.7588 40.3428L14.5645 40.0557C14.3804 39.7642 14.2302 39.4617 14.1436 39.165C14.0305 38.7781 14.0315 38.4303 14.1689 38.125C14.1807 38.1225 14.2012 38.1183 14.2334 38.1172C14.2985 38.1149 14.3781 38.1215 14.4873 38.1338C14.5836 38.1446 14.7205 38.1623 14.8447 38.168C15.919 38.2172 16.995 38.2365 18.0703 38.2266C22.0611 38.1896 26.0418 37.7442 29.9316 36.9043Z" stroke="#07A692"/>
<path d="M34.73 36.0771C35.2679 35.7997 35.8904 35.7996 36.5493 36.0049C37.2115 36.2113 37.8734 36.6161 38.4341 37.085L38.436 37.0869C38.7256 37.326 39.0094 37.5817 39.3052 37.8467C39.5979 38.1088 39.9023 38.3791 40.2183 38.6318C40.8497 39.1368 41.5589 39.5972 42.4067 39.8203L42.4097 39.8213C43.447 40.0886 44.4676 39.9507 45.4253 39.6943C45.9045 39.566 46.3783 39.4052 46.8364 39.2441C47.2994 39.0813 47.7409 38.9195 48.1812 38.7803L48.1821 38.7812C50.196 38.1545 52.4492 38.0714 54.3481 38.748C51.7521 46.547 44.9417 52.1082 37.3667 54.3154L36.6187 54.5215C35.0735 54.9207 34.3023 55.0601 33.7729 55.1211C33.5076 55.1517 33.2983 55.1638 33.0659 55.1777C32.8329 55.1918 32.5827 55.2079 32.2563 55.249C31.8651 55.2983 31.4966 55.4247 31.1802 55.5352C30.8474 55.6513 30.5683 55.7509 30.2847 55.7979C26.9892 56.3423 24.0983 54.2209 23.3872 51.2588C24.297 51.4656 25.1785 51.5633 25.9683 51.3926C27.0335 51.1622 27.8578 50.4657 28.3784 49.1641C28.5242 48.7996 28.5834 48.3583 28.6431 48.0488C28.7104 47.6996 28.7866 47.445 28.9263 47.2559C29.1557 46.9452 29.766 46.5694 31.9214 47.0049C32.5126 47.1243 33.2168 47.1934 33.8667 47.084C34.5208 46.9738 35.1829 46.6689 35.5591 45.9893V45.9883C35.8578 45.4473 35.8706 44.8737 35.7505 44.3223C35.6328 43.7825 35.3808 43.2287 35.1069 42.6904C34.5372 41.5707 33.8674 40.4822 33.6157 39.3096V39.3086C33.4817 38.6845 33.5051 37.9955 33.6978 37.3994C33.8898 36.8054 34.2369 36.334 34.73 36.0771Z" stroke="#07A692"/>
<path d="M53.2846 42.4578C49.9119 48.6939 43.4062 53.7886 34.3544 55.5399C22.0332 57.8497 7.55572 49.9064 5.21988 36.1256C5.17476 35.8594 5.02361 35.441 5.3012 35.2526C5.63042 35.0292 7.69569 34.9765 7.97902 35.0415C8.34884 35.1264 8.30063 35.2894 8.4792 35.8427C12.1419 47.223 25.2577 54.1506 36.8196 51.983C40.9489 51.2099 44.6821 49.7438 48.1481 47.3103C52.588 44.2002 52.222 43.3012 53.2846 42.4578Z" fill="#07A692"/>
<path d="M37.7983 21.1016C41.4607 21.0964 44.4328 24.0588 44.438 27.7148C44.4431 31.3771 41.4807 34.3494 37.8247 34.3545C34.1624 34.3597 31.1904 31.3972 31.1851 27.7412C31.18 24.0789 34.1423 21.1066 37.7983 21.1016ZM38.1509 25.7139C38.1482 24.461 36.8841 23.6413 35.7603 24.0723C33.9777 24.748 34.3877 27.483 36.3901 27.4834C36.6341 27.4834 36.867 27.4336 37.0786 27.3438C36.9942 27.9575 37.3587 28.6277 38.1011 28.7461V28.7471C38.103 28.7474 38.105 28.7468 38.1069 28.7471L38.1089 28.748V28.7471C38.8416 28.8673 39.5306 28.2893 39.5308 27.5293C39.5308 26.8448 38.9694 26.298 38.2944 26.2979C38.2097 26.2979 38.1257 26.307 38.0435 26.3242C38.0928 26.1881 38.1289 26.0451 38.1431 25.8955L38.1509 25.7139Z" stroke="#07A692"/>
<path d="M48.2772 13.5901C48.3774 13.8267 48.3941 14.9019 49.2972 14.2992C50.5982 13.467 52.7259 11.5968 53.7372 10.601C54.3045 10.0446 55.0081 9.34656 55.2427 8.47924C55.7554 6.58653 54.6045 4.50285 52.6681 3.83195C50.4677 3.06864 48.2919 4.3826 47.6008 6.04107C47.2409 6.90293 47.3718 7.8138 47.4917 8.69191C47.5178 8.87438 47.9002 11.9876 48.2772 13.5901ZM48.359 6.35748C48.9283 4.98857 50.7073 4.0127 52.4008 4.60659C53.939 5.13553 54.8608 6.77749 54.4572 8.26111C54.2772 8.92109 53.6827 9.50476 53.159 10.0229C52.1429 11.0229 50.2025 12.7171 49.0899 13.4593C48.8771 12.2564 48.9752 13.4436 48.3045 8.57738C48.1954 7.80834 48.0863 7.012 48.359 6.35748Z" fill="#07A692"/>
<path d="M50.7919 8.92463C52.7745 9.58617 54.1501 7.02264 52.6519 5.69545C51.6421 4.80871 50.0886 5.2647 49.6519 6.51922C49.3064 7.48867 49.8084 8.58148 50.7919 8.92463ZM51.4356 6.05553C52.1225 6.05553 52.6442 6.72602 52.4065 7.47377C52.2086 8.03239 51.6229 8.33808 51.0592 8.14999C49.9361 7.75245 50.2575 6.05553 51.4356 6.05553Z" fill="#07A692"/>
<path d="M56.2465 28.4516C56.2249 28.2363 56.034 28.0742 55.821 28.0861C55.8195 28.0861 55.818 28.0867 55.8165 28.0867C55.5221 27.7782 55.0454 27.5053 54.4028 27.2723C54.4027 27.2163 54.3917 23.7973 54.3919 23.8533L54.3865 19.0697C54.3755 18.1425 53.6174 17.3898 52.6956 17.3898H51.6865C51.654 17.1155 51.8246 16.5133 51.3101 15.9989C51.0647 15.7589 50.7428 15.6225 50.4046 15.6225C50.4046 15.6225 50.4046 15.6225 50.3992 15.6225L45.6592 15.6334C44.9556 15.6334 44.3828 16.2115 44.3828 16.9152V17.4062L31.2701 17.428L31.2646 16.2443C31.2646 15.7807 30.8883 15.3988 30.4246 15.3988C30.4192 15.3988 30.4192 15.3988 30.4192 15.3988L27.3974 15.4043C26.9283 15.4043 26.5519 15.7861 26.5519 16.2497L26.5574 17.4333L24.6428 17.4388C23.9228 17.4388 23.3174 17.8916 23.0665 18.5189C22.9129 18.0324 23.6089 20.2772 21.4137 13.1789C21.3265 12.9115 21.2337 12.6334 21.1901 12.366C20.95 11.0134 19.7086 10.9092 18.3319 10.7679L17.841 8.65706C17.6883 8.008 17.1919 7.51155 16.5374 7.3588C11.001 6.08799 6.74102 8.92978 5.16465 10.2115C4.64646 10.6425 4.42829 11.3133 4.59192 11.9735L5.23556 14.4716C5.06101 14.5806 4.88646 14.6951 4.71737 14.8098C3.52282 15.6225 3.48464 16.5825 3.66464 17.2534C3.74343 17.5268 3.10707 15.3425 8.14827 32.4333C8.14827 32.4388 8.15373 32.4443 8.15373 32.4497C8.15426 32.4514 8.15479 32.4533 8.15532 32.4552C6.48562 33.2073 3.63081 34.7255 4.82101 36.1295C4.82154 36.1298 4.81898 36.1315 4.82101 36.1315C4.92094 36.8816 5.18079 38.1065 5.63373 39.5297C10.1544 53.576 28.5514 61.365 43.7392 52.5934C48.4119 49.9317 52.0552 45.8852 53.8792 42.2352C54.4683 41.0679 54.9537 39.868 55.3574 38.5806C55.3574 38.5752 55.3574 38.5752 55.3574 38.5752C56.3835 35.259 56.6251 31.9154 56.2465 28.4516ZM45.201 16.9152C45.201 16.6588 45.4083 16.4516 45.6646 16.4516L50.4046 16.4407C50.5246 16.4407 50.6446 16.4897 50.7319 16.5771C50.9337 16.7787 50.8468 17.0172 50.8683 17.2916L45.201 17.3024V16.9152ZM51.2684 32.8813C52.1463 33.4131 52.2404 34.6621 51.4492 35.3196C51.0355 35.6637 50.423 35.8393 50.0627 36.4185C49.5114 37.3046 50.0399 38.3172 50.0736 39.1247C50.1037 39.8404 49.6765 40.5619 49.0346 40.8799C48.393 41.1974 47.5599 41.1002 47.0091 40.6434C46.4669 40.1926 45.8496 39.027 44.7195 39.1311C44.3322 39.1674 44.0145 39.3623 43.7343 39.5341C43.4829 39.6888 43.2738 39.8327 43.0597 39.8151C42.6945 39.8026 42.4069 39.3232 42.2596 38.8789C41.5659 36.7821 42.2579 35.2431 42.249 35.004C45.7443 34.2095 48.7655 33.3272 51.0908 32.4297C51.0466 32.6003 51.1101 32.7853 51.2684 32.8813ZM9.6985 27.2925C9.58584 26.6768 9.66281 25.8413 10.216 25.3432C10.6184 24.9807 11.2643 24.8497 11.8569 25.0082C11.9158 25.0239 11.9731 25.0528 12.0315 25.074C11.1031 25.0999 10.3802 26.1853 10.9952 27.5991C11.2251 28.1279 11.5595 28.8383 12.1342 28.8542C11.6472 29.0935 11.1683 29.3474 10.6931 29.6087C10.6591 29.3873 9.89484 28.3642 9.6985 27.2925ZM14.2061 27.8572C14.2273 27.9232 14.222 27.8948 14.2282 27.9122C14.2046 27.9219 14.1808 27.9309 14.1572 27.9408C14.1779 27.916 14.1891 27.8846 14.2061 27.8572ZM22.9683 26.3717C22.9684 26.4286 22.9793 30.5469 22.9792 30.4918C21.2977 30.0557 20.015 31.2615 19.7809 32.8906C19.5669 34.2838 19.9259 35.6415 20.2201 37.0207C19.4106 37.0667 19.0449 37.0906 17.475 37.1352C17.4169 36.2845 17.0744 34.4704 16.6552 33.6633C15.0773 30.628 11.2556 31.3358 11.3077 34.6399C11.322 35.5226 11.622 36.3628 11.9 37.1134C11.8441 37.1105 11.3131 37.094 10.3574 37.0207C10.218 36.5654 10.8134 38.5689 8.78684 31.6982C13.0333 28.906 17.9248 27.0749 22.9683 26.3717ZM17.7796 24.3082C17.7693 23.6824 17.9818 22.8708 18.6093 22.47C19.0655 22.1784 19.722 22.1533 20.2832 22.4082C20.3389 22.4335 20.3907 22.4715 20.4449 22.5018C19.5014 22.3725 18.6386 23.3488 19.0085 24.8231C19.11 25.2278 19.2915 25.9017 19.6877 26.151C19.2291 26.2586 18.7746 26.381 18.3206 26.5068C18.0549 25.7907 17.7919 25.0525 17.7796 24.3082ZM22.1337 25.6036C22.1446 25.6766 22.1452 25.6482 22.15 25.6711C22.1206 25.6757 22.091 25.68 22.0616 25.6848C22.0895 25.6615 22.1099 25.6309 22.1337 25.6036ZM43.581 24.2843C46.2278 28.688 43.0643 34.4462 37.8265 34.4462C32.575 34.4462 29.407 28.7299 32.0283 24.3061C34.6562 19.8978 40.9967 19.949 43.581 24.2843ZM12.7143 37.146C12.7282 37.0748 12.7301 37.0007 12.703 36.9277C12.4255 36.1801 12.1384 35.4072 12.1259 34.6269C12.1053 33.3189 12.9245 32.3262 14.2192 32.5966C13.797 32.6241 13.5199 32.9594 13.4203 33.3509C13.2398 34.0611 13.6402 35.8344 13.8603 36.5938C13.9207 36.8023 13.9972 37.0162 14.1423 37.1734C13.2815 37.1734 12.8193 37.1497 12.7143 37.146ZM21.5434 32.5162C21.467 32.9199 21.5052 33.3343 21.5761 33.7434C21.5858 33.7993 22.1249 36.721 22.1812 36.8899C22.148 36.894 21.0772 36.9751 21.0451 36.9661C20.7711 35.6597 20.3929 34.2945 20.59 33.011C20.7707 31.7576 21.6837 30.9043 22.9211 31.3336C22.1836 31.2525 21.6742 31.8484 21.5434 32.5162ZM53.5847 30.3116C50.6516 31.9015 44.9811 33.4556 42.1465 34.0479C42.1196 34.0616 41.8215 34.1235 41.7919 34.1298C45.194 32.0271 46.2745 27.6647 44.5137 24.2843L53.5737 24.2679L53.5847 30.3116ZM36.5828 35.1606C35.7142 35.3159 38.0523 34.9846 23.8083 36.7698C23.806 35.657 23.7918 27.4302 23.7865 24.317L31.0955 24.3061C28.7988 28.7836 31.5278 34.3337 36.5828 35.1606ZM27.3974 16.2224L30.4465 16.2443L30.4519 17.428L27.381 17.4333L27.3974 16.2224ZM24.6428 18.257C64.9488 18.1864 8.54454 18.2827 52.6956 18.208C53.1701 18.208 53.5628 18.5952 53.5683 19.0697L53.5737 23.4497L44.0228 23.4661C41.1234 19.1479 34.6216 19.0539 31.581 23.4879L23.7865 23.4989C23.7864 23.4443 23.7806 20.6724 23.781 20.8479L23.7756 19.1243C23.7756 18.6497 24.1628 18.257 24.6428 18.257ZM5.68283 10.8443C8.60355 8.47115 12.4709 7.26658 16.3519 8.15528C16.701 8.23704 16.9628 8.49885 17.0446 8.84242L17.4756 10.7134C13.4611 10.5678 9.42366 11.9429 5.96645 14.0189L5.38284 11.7716C5.29555 11.4224 5.41011 11.0679 5.68283 10.8443ZM4.4501 17.0352C4.18839 16.0425 5.02192 15.5461 5.9283 15.0061C9.70675 12.6039 14.4673 11.0602 18.8555 11.6516C19.8374 11.777 20.2737 11.9025 20.3828 12.508C20.4374 12.8297 20.5356 13.1352 20.6337 13.4352C20.6517 13.4932 21.6071 16.5777 21.5893 16.5205C21.201 16.5633 20.8134 16.6128 20.4266 16.6682C20.2959 15.8504 20.1012 15.1988 19.8121 14.6429C18.243 11.6276 14.4102 12.2829 14.4654 15.6225C14.4785 16.421 14.7261 17.1826 14.9794 17.8769C14.1205 18.137 13.2704 18.426 12.4326 18.7474C11.9282 17.2641 11.0736 15.9205 9.57253 15.5184C7.62518 14.9983 5.99359 16.5342 6.39781 18.7405C6.55954 19.6249 7.00705 20.4186 7.41035 21.1227C6.90764 21.4087 6.41153 21.7062 5.92297 22.0158C5.32959 20.0173 5.17669 19.4719 4.4501 17.0352ZM15.7659 17.6463C15.5218 16.9808 15.2948 16.2982 15.2836 15.6092C15.2732 14.9833 15.4857 14.1718 16.1132 13.771C16.57 13.4793 17.2265 13.4548 17.7871 13.7092C17.8427 13.7345 17.8945 13.7723 17.9487 13.8027C17.0308 13.6767 16.1373 14.6279 16.5125 16.124C16.5992 16.4699 16.7449 17.012 17.0321 17.3191C16.6083 17.4213 16.1859 17.5292 15.7659 17.6463ZM8.12679 20.7272C7.73734 20.0479 7.34027 19.346 7.20268 18.5932C7.08975 17.9777 7.16645 17.1422 7.7199 16.6439C8.12286 16.2814 8.76686 16.1501 9.36106 16.3089C9.42018 16.3247 9.47754 16.3536 9.53604 16.3748C8.60984 16.4007 7.88394 17.4856 8.49916 18.9C8.66253 19.2756 8.94474 19.8945 9.36345 20.0882C8.94697 20.293 8.53518 20.5068 8.12679 20.7272ZM6.1631 22.8234C7.30058 22.2404 12.8812 18.2668 21.833 17.3163C22.2664 18.7101 22.565 19.6752 22.9628 20.9352C22.9629 20.9922 22.9683 25.5992 22.9683 25.544C22.9621 25.5448 22.956 25.546 22.9498 25.547C22.6061 21.9567 19.8528 20.705 18.1688 21.7805C17.4062 22.2676 16.9436 23.2413 16.9615 24.3216C16.9756 25.1764 17.2584 25.9916 17.5294 26.725C16.6697 26.9848 15.8227 27.2832 14.9852 27.6071C14.4885 26.0694 13.6302 24.6353 12.0684 24.2177C10.1122 23.6948 8.49158 25.2412 8.89364 27.4398C9.05957 28.3456 9.52539 29.1577 9.93608 29.8744C9.95948 29.9151 9.99707 29.9394 10.0307 29.9685C9.52755 30.2595 9.03553 30.5682 8.54797 30.8838C7.78324 28.3347 6.28322 23.2418 6.1631 22.8234ZM13.8928 49.8395C14.1241 48.08 14.9849 46.3748 16.2679 45.1503C16.5508 44.8805 16.9282 44.5662 17.3391 44.5295C17.8944 44.4799 18.4071 44.9572 18.6735 45.3812C19.3018 46.3833 19.5816 48.496 21.2945 48.8827C22.4498 49.1423 23.4452 48.323 24.336 47.88C25.0346 47.5327 25.9764 47.4632 26.3477 48.0171C26.6017 48.3964 26.5429 48.9693 26.158 49.8306C25.4057 51.5142 25.3133 52.5477 26.9629 53.5926C27.3554 53.8365 27.7904 54.0852 28.0431 54.4079C28.2424 54.6622 28.3436 55.0646 28.1681 55.2985C28.1328 55.3454 28.1103 55.3975 28.0977 55.4512C22.8654 55.0481 17.7816 52.9437 13.8928 49.8395ZM54.5774 38.3352C51.1739 49.2644 39.4638 56.0089 28.9805 55.5006C29.2023 54.9505 29.0104 54.3158 28.6871 53.9034C28.3449 53.4666 27.8808 53.1999 27.4007 52.9017C26.1685 52.1207 26.2836 51.5548 26.9096 50.1542C27.2282 49.4412 27.5869 48.3972 27.0273 47.562C26.39 46.6098 25.008 46.6322 23.9719 47.1473C23.0837 47.5892 22.2679 48.2647 21.4745 48.0848C20.2814 47.8149 20.0366 46.0141 19.3665 44.9466C18.9587 44.2967 18.1949 43.6325 17.2664 43.7145C16.603 43.7736 16.0826 44.1966 15.7033 44.5585C14.3882 45.8133 13.5032 47.4576 13.164 49.2358C13.163 49.235 13.1619 49.2342 13.161 49.2334C9.17248 45.8397 6.57799 41.2683 5.77009 36.8297C5.76463 36.8188 5.76463 36.8079 5.76463 36.797V36.7922C7.03295 37.3908 8.70707 37.5982 9.86646 37.7679C10.0038 37.8366 10.0034 37.8032 11.1688 37.8999C16.841 38.3789 23.7346 37.8768 29.387 37.2071C33.1298 36.7111 36.6082 36.2378 41.3712 35.1991C41.03 36.4858 41.0643 37.8707 41.4829 39.1359C41.7906 40.0641 42.3549 40.6096 43.032 40.6327C43.8324 40.6656 44.2839 39.9938 44.7954 39.9456C45.4289 39.8843 45.9041 40.7884 46.4863 41.2727C47.29 41.9396 48.4602 42.0773 49.3979 41.6128C50.3349 41.1489 50.9349 40.1352 50.8912 39.0906C50.8782 38.7801 50.814 38.4754 50.7522 38.1806C50.4945 36.9567 50.6431 36.7856 51.4109 36.3266C51.5984 36.2145 51.7923 36.0984 51.9723 35.9487C53.1874 34.9391 53.0551 33.017 51.7009 32.1874C52.9133 31.6914 54.6197 30.9117 55.5483 29.9929C55.5293 30.7261 55.9039 34.0483 54.5774 38.3352Z" fill="#07A692"/>
<path d="M37.2321 32.2028C39.9846 32.6513 42.48 30.4997 42.474 27.7137C42.4614 24.5462 39.2922 22.3577 36.3322 23.4755C36.3267 23.4809 36.3267 23.4809 36.3212 23.4809C35.8194 23.6719 35.3667 23.9501 34.9685 24.2991C32.064 26.777 33.399 31.6154 37.2321 32.2028ZM36.9976 26.3227C36.8067 26.5137 36.5612 26.6119 36.2558 26.5628C35.3778 26.4259 35.2836 25.2237 36.0867 24.9209C36.9684 24.6106 37.6196 25.6792 36.9976 26.3227ZM38.2467 27.85C37.9275 27.806 37.8655 27.3487 38.1867 27.2281C38.2194 27.2119 38.2521 27.2064 38.2958 27.2064C38.4758 27.2064 38.6231 27.3537 38.6231 27.5282C38.6231 27.7082 38.4758 27.8555 38.2903 27.8555C38.2357 27.8487 38.1921 27.8432 38.2467 27.85Z" fill="#07A692"/>
<path d="M26.6305 22.3446C27.1723 22.3438 27.6107 21.9039 27.6098 21.3621C27.6089 20.8204 27.169 20.382 26.6273 20.3828C26.0855 20.3837 25.6471 20.8236 25.648 21.3655C25.6488 21.9072 26.0888 22.3456 26.6305 22.3446Z" fill="#07A692"/>
<path d="M46.5265 22.5001L50.7429 22.4892C51.3071 22.4892 51.7356 22.0345 51.7356 21.4964V20.5475C51.7356 20.0158 51.3104 19.5547 50.7429 19.5547C50.686 19.5548 46.4659 19.5602 46.5211 19.5601C46.2593 19.5601 46.0083 19.6638 45.8229 19.8547C45.3727 20.2919 45.5806 20.8078 45.5338 21.5073C45.5338 22.0528 45.9811 22.5001 46.5265 22.5001ZM46.5265 20.3783C50.843 20.4002 50.7896 20.3242 50.8629 20.422C50.9678 20.5263 50.8891 20.5848 50.9174 21.4964C50.9174 21.5947 50.8411 21.671 50.7429 21.671L46.5265 21.6819C46.4284 21.6819 46.352 21.6001 46.352 21.502L46.3465 20.5528C46.3465 20.4593 46.4237 20.3783 46.5265 20.3783Z" fill="#07A692"/>
<path d="M8.23987 7.62866C8.59646 7.62866 8.78383 7.19845 8.53657 6.93805L7.60493 5.95554C7.44939 5.79175 7.19024 5.78509 7.02645 5.9401C6.86265 6.09564 6.85573 6.35451 7.011 6.51858C7.89575 7.39491 7.93793 7.62866 8.23987 7.62866Z" fill="#07A692"/>
<path d="M9.87674 6.77177C10.1005 6.74087 10.2571 6.53473 10.2264 6.31074L10.065 5.13461C10.0341 4.91088 9.82853 4.75508 9.60401 4.78491C9.38029 4.8158 9.22369 5.02195 9.25431 5.24593L9.41571 6.42207C9.44542 6.63756 9.64181 6.80155 9.87674 6.77177Z" fill="#07A692"/>
<path d="M48.9176 43.7759C48.728 43.6539 48.4747 43.7085 48.3525 43.899C46.3856 46.9605 43.4066 49.2947 39.9634 50.4708C39.7498 50.544 39.6356 50.7765 39.7086 50.9904C39.7829 51.2071 40.0183 51.3175 40.2282 51.245C43.845 50.0092 46.9747 47.5574 49.0407 44.3411C49.1629 44.1509 49.1078 43.8979 48.9176 43.7759Z" fill="#07A692"/>
<path d="M38.6889 51.2856L37.5016 51.7471C37.2912 51.8292 37.1868 52.0662 37.2686 52.2769C37.3516 52.4896 37.5902 52.5907 37.7983 52.5099L38.9851 52.0484C39.1958 51.9663 39.3002 51.7293 39.2184 51.5189C39.1366 51.308 38.8983 51.2041 38.6889 51.2856Z" fill="#07A692"/>
</svg>
