<svg width="21" height="21" viewBox="0 0 21 21" fill="none" xmlns="http://www.w3.org/2000/svg">
<path d="M20.745 17.985L17.7562 14.9962C17.6844 14.9244 17.599 14.8675 17.505 14.8289C17.4111 14.7903 17.3104 14.7707 17.2087 14.7712C17.0606 14.7739 15.3833 14.7481 15.3013 14.801L14.0445 13.5442C16.0454 11.4712 17.5146 8.94445 18.3262 6.17999C18.5447 5.16902 19.1684 3.89136 18.6076 2.90999L15.84 5.67749C15.6295 5.5364 15.4486 5.35551 15.3075 5.14499C15.6871 4.76565 17.729 2.72334 18.075 2.37749C17.0973 1.8208 15.8861 2.4274 14.8837 2.63238C12.0895 3.44255 9.53439 4.92048 7.43887 6.93862L6.19054 5.69027C6.21757 5.61864 6.22876 3.76123 6.22876 3.76123C6.22931 3.65963 6.20971 3.55892 6.17109 3.46494C6.13247 3.37097 6.07559 3.28558 6.00376 3.21373L3.015 0.22499C2.86923 0.0808448 2.6725 0 2.4675 0C2.2625 0 2.06577 0.0808448 1.92 0.22499L0.224999 1.91999C0.0808485 2.06575 0 2.26249 0 2.46749C0 2.67249 0.0808485 2.86923 0.224999 3.01499L3.21375 6.00374C3.28561 6.07557 3.37099 6.13244 3.46497 6.17106C3.55895 6.20968 3.65965 6.22929 3.76125 6.22874C3.76125 6.22874 5.58498 6.22149 5.64533 6.20562C5.64424 6.20675 6.91291 7.46897 6.90751 7.46999C4.89616 9.56519 3.42281 12.1168 2.61375 14.9062C2.41526 15.9071 1.80543 17.1145 2.36242 18.09L5.13 15.3225C5.34051 15.4636 5.5214 15.6445 5.6625 15.855C5.28369 16.2333 3.24321 18.2746 2.89875 18.6187C3.86879 19.1903 5.09848 18.5632 6.0975 18.3639C8.8804 17.5553 11.4255 16.0833 13.5142 14.0745L14.7711 15.3313C14.7089 15.4216 14.7546 17.0969 14.7412 17.2387C14.7407 17.3403 14.7603 17.441 14.7989 17.535C14.8375 17.629 14.8944 17.7144 14.9662 17.7862L17.955 20.775C18.1008 20.9191 18.2975 21 18.5025 21C18.7075 21 18.9042 20.9191 19.05 20.775L20.745 19.08C20.8891 18.9342 20.97 18.7375 20.97 18.5325C20.97 18.3275 20.8891 18.1308 20.745 17.985ZM7.9725 7.46999C9.77973 5.72965 11.947 4.40727 14.3212 3.59624C14.2442 3.97158 14.2509 4.3593 14.3409 4.73176C14.4309 5.10421 14.602 5.4522 14.842 5.75092C15.0819 6.04963 15.3849 6.2917 15.7292 6.45985C16.0735 6.62801 16.4507 6.7181 16.8338 6.72371C17.0204 6.72439 17.2066 6.70428 17.3887 6.66374C16.5779 9.03878 15.2558 11.207 13.5157 13.0154L12.1357 11.6355L14.205 9.56624C14.389 9.37953 14.5323 9.1567 14.6258 8.91182C14.7193 8.66695 14.761 8.40534 14.7483 8.14352C14.7357 7.8817 14.6688 7.62535 14.5521 7.39066C14.4353 7.15597 14.2712 6.94804 14.07 6.77999C13.7182 6.4288 13.2415 6.23156 12.7444 6.23156C12.2473 6.23156 11.7705 6.4288 11.4188 6.77999L9.34952 8.84924C9.35062 8.84811 7.96698 7.47102 7.9725 7.46999ZM7.29375 13.5525C7.08305 13.3416 6.9647 13.0556 6.9647 12.7575C6.9647 12.4594 7.08305 12.1734 7.29375 11.9625L9.348 9.90824L11.0767 11.637L9.0225 13.6912C8.903 13.8022 8.76175 13.8871 8.6077 13.9406C8.45365 13.9941 8.29017 14.015 8.12762 14.0019C7.96507 13.9889 7.80701 13.9422 7.66346 13.8648C7.51992 13.7874 7.39402 13.6811 7.29375 13.5525ZM9.87825 9.37799L11.9475 7.30874C12.0658 7.19544 12.2068 7.10847 12.3611 7.05355C12.5155 6.99864 12.6797 6.97703 12.843 6.99014C13.0063 7.00325 13.165 7.05078 13.3086 7.12961C13.4522 7.20844 13.5775 7.31678 13.6762 7.44751C13.887 7.65843 14.0053 7.94437 14.0053 8.2425C14.0053 8.54063 13.887 8.82657 13.6762 9.03749L11.607 11.1067L9.87825 9.37799ZM6.64875 17.4037C6.73618 16.9824 6.71745 16.546 6.59424 16.1337C6.47103 15.7214 6.24722 15.3463 5.94295 15.042C5.63869 14.7378 5.26353 14.514 4.85125 14.3908C4.43897 14.2676 4.00253 14.2488 3.58121 14.3363C4.39045 11.9684 5.70787 9.80627 7.44109 8.00141L8.81921 9.37953L6.765 11.4337C6.41381 11.7855 6.21656 12.2623 6.21656 12.7594C6.21656 13.2564 6.41381 13.7332 6.765 14.085C6.93374 14.2851 7.14193 14.4483 7.37657 14.5644C7.61121 14.6804 7.86725 14.7469 8.12872 14.7595C8.39018 14.7722 8.65145 14.7308 8.89621 14.638C9.14097 14.5451 9.36395 14.4028 9.55125 14.2199L11.6055 12.1657L12.9854 13.5457C11.1802 15.2789 9.01727 16.5957 6.64875 17.4037Z" fill="#07A692"/>
</svg>
