<svg width="126" height="48" viewBox="0 0 126 48" fill="none" xmlns="http://www.w3.org/2000/svg">
<g clip-path="url(#clip0_323_8036)">
<path d="M16.217 18.4219C16.217 18.4219 15.802 18.6036 15.0795 18.9521C14.3571 19.3004 13.3579 19.8154 12.205 20.5424C11.6362 20.906 11.0368 21.3302 10.4372 21.7997C10.2835 21.9209 10.1298 22.042 9.9915 22.1632C9.83773 22.2994 9.68402 22.4357 9.54567 22.557C9.25361 22.8296 8.96154 23.1173 8.68485 23.4203C8.40817 23.7233 8.13147 24.0413 7.87015 24.3746C7.60883 24.7078 7.37825 25.0562 7.13231 25.4198C6.90173 25.7832 6.7019 26.1619 6.50207 26.5557C6.31761 26.9495 6.14852 27.3434 6.01017 27.7523C5.94869 27.9492 5.87183 28.1764 5.8257 28.3733C5.76422 28.5702 5.71811 28.7824 5.67199 28.9943C5.59513 29.4185 5.53364 29.8425 5.5029 30.2667C5.48754 30.6908 5.48754 31.1148 5.51827 31.5239C5.54902 31.9328 5.6105 32.3418 5.70274 32.7356C5.79497 33.1294 5.90256 33.5081 6.05628 33.8716C6.11777 34.0534 6.21 34.2352 6.28686 34.4017L6.31761 34.4623L6.34835 34.523L6.42521 34.6592C6.47133 34.7501 6.51743 34.841 6.56355 34.9168C6.93248 35.5377 7.39362 36.1133 7.85478 36.5525C8.33131 37.007 8.8232 37.3553 9.29972 37.6279C9.77624 37.9006 10.222 38.0825 10.591 38.2036C10.7754 38.2641 10.9446 38.3095 11.0982 38.355C11.252 38.3853 11.375 38.4307 11.4826 38.4459C11.6977 38.4762 11.8054 38.5064 11.8054 38.5064C11.8054 38.5064 11.6977 38.5064 11.4826 38.5064C11.375 38.5064 11.2365 38.4914 11.0829 38.4762C10.9291 38.461 10.7447 38.4307 10.5448 38.4005C10.1452 38.3248 9.66865 38.1884 9.146 37.9612C8.62337 37.7341 8.06998 37.4009 7.5166 36.9616C6.96322 36.5071 6.44058 35.9619 5.97942 35.2651C5.54902 34.5987 5.1801 33.7959 4.94952 32.9477C4.71895 32.0994 4.61135 31.1755 4.65745 30.2515C4.67283 29.782 4.73431 29.3276 4.81117 28.858C4.85729 28.6308 4.9034 28.4036 4.96489 28.1613C5.02638 27.9189 5.08787 27.722 5.16473 27.4948C5.31844 27.0556 5.5029 26.6163 5.70274 26.1921C5.91794 25.7681 6.14852 25.3743 6.39447 24.9805C6.90173 24.208 7.48586 23.5112 8.10073 22.8903C8.40817 22.5872 8.7156 22.2844 9.05378 22.0268C9.22286 21.8905 9.37658 21.7694 9.5303 21.6482C9.69938 21.5271 9.8531 21.4058 10.0222 21.2847C10.6678 20.8151 11.3134 20.4365 11.9283 20.1184C12.5431 19.7851 13.1119 19.5276 13.6346 19.3156C14.1572 19.1035 14.6183 18.9369 14.9873 18.8007C15.3716 18.6643 15.6637 18.5734 15.8788 18.5129C16.1094 18.4673 16.217 18.4219 16.217 18.4219Z" fill="#FFD000"/>
<path d="M34.4325 9.4198C34.4325 9.4198 34.3555 9.4198 34.2172 9.40466C34.0789 9.3895 33.8637 9.37436 33.6024 9.35921C33.464 9.35921 33.3257 9.34407 33.1719 9.34407C33.0182 9.34407 32.8492 9.32892 32.6647 9.32892C32.4802 9.32892 32.2958 9.32892 32.0806 9.32892C31.8808 9.34407 31.6655 9.34407 31.4349 9.35921C30.9892 9.3895 30.5126 9.43495 30.0054 9.51068C29.4981 9.57127 28.9755 9.69248 28.4528 9.81364C27.9148 9.94996 27.3768 10.1165 26.8388 10.2983C26.3007 10.4953 25.7627 10.7224 25.2401 10.98C24.7021 11.2374 24.2102 11.5252 23.7337 11.8281C23.2572 12.1462 22.796 12.4643 22.3656 12.8127C21.9506 13.161 21.5355 13.4943 21.182 13.8579C20.813 14.2062 20.5057 14.5546 20.1983 14.8878C20.0599 15.0543 19.9215 15.2211 19.7985 15.3725C19.6756 15.5239 19.5526 15.6754 19.445 15.8269C19.3374 15.9783 19.2452 16.1147 19.1529 16.2358C19.0607 16.357 18.9838 16.4781 18.907 16.5843C18.7533 16.7963 18.6457 16.978 18.5688 17.0841C18.4919 17.2052 18.4458 17.2659 18.4458 17.2659C18.4458 17.2659 18.4766 17.1901 18.5227 17.069C18.5688 16.9326 18.6303 16.7357 18.7533 16.5085C18.7993 16.3874 18.8609 16.251 18.9377 16.1147C18.9993 15.9783 19.0914 15.8269 19.1683 15.6603C19.2605 15.4936 19.3528 15.327 19.4603 15.1453C19.5679 14.9635 19.6909 14.7818 19.8138 14.6C19.9522 14.4183 20.0753 14.2213 20.2289 14.0244C20.3826 13.8275 20.5364 13.6306 20.7208 13.4337C21.059 13.0248 21.4587 12.6309 21.8737 12.2523C22.3041 11.8736 22.7806 11.4949 23.2725 11.1465C23.7798 10.8133 24.3332 10.4953 24.8712 10.2226C25.4245 9.94995 26.0087 9.72272 26.5929 9.52583C27.177 9.34407 27.7611 9.1926 28.3299 9.08657C28.8987 8.98054 29.452 8.91996 29.99 8.88967C30.2513 8.87452 30.5126 8.87452 30.7586 8.85938C31.0045 8.85938 31.2504 8.87452 31.481 8.87452C31.7116 8.88967 31.9269 8.90481 32.142 8.93511C32.3419 8.9654 32.5417 8.9957 32.7262 9.01084C32.9106 9.04113 33.0798 9.07143 33.2334 9.10172C33.3872 9.13202 33.5409 9.17746 33.6639 9.20775C33.9251 9.26834 34.1249 9.32892 34.2634 9.37436C34.3555 9.40466 34.4325 9.4198 34.4325 9.4198Z" fill="#FFD000"/>
<path d="M35.4478 8.37757C35.4478 8.37757 35.5245 8.28668 35.6629 8.10493C35.7398 8.01404 35.8319 7.90802 35.9242 7.77169C36.0164 7.63537 36.1548 7.49905 36.3085 7.34758C36.4623 7.19612 36.6159 7.01436 36.8158 6.8326C37.0156 6.65083 37.2309 6.46908 37.446 6.27217C37.6766 6.07527 37.9378 5.8935 38.2146 5.68144C38.4913 5.48454 38.7987 5.28763 39.1215 5.09073C39.2906 4.99984 39.4597 4.90896 39.6289 4.80294C39.7979 4.71206 39.967 4.60602 40.1669 4.51515C40.5357 4.34853 40.9199 4.15163 41.335 4.01531C42.1498 3.68208 43.0414 3.43973 43.979 3.25797C44.2096 3.22767 44.4556 3.18224 44.6862 3.15194C44.8091 3.13679 44.9321 3.12165 45.055 3.1065C45.178 3.09135 45.301 3.09135 45.4239 3.07621C45.9158 3.01562 46.4231 3.03077 46.915 3.01562C47.4223 3.04592 47.9295 3.06106 48.4369 3.13679C48.6828 3.16709 48.944 3.19738 49.19 3.25797L49.9586 3.42458C50.8963 3.68208 51.9108 4.06074 52.8024 4.5C53.2481 4.74235 53.694 4.96955 54.0935 5.25734C54.2012 5.31792 54.2935 5.39366 54.4011 5.45424C54.5086 5.51484 54.6009 5.59056 54.6931 5.6663C54.8929 5.81776 55.0774 5.95408 55.2619 6.10555C55.9997 6.71143 56.6607 7.34758 57.2141 8.01404C57.5062 8.33212 57.7521 8.6805 57.9827 9.01373C58.1057 9.18034 58.1978 9.34695 58.3054 9.51357C58.413 9.68016 58.5052 9.84682 58.6129 9.9983C58.7973 10.3315 58.9664 10.6344 59.1202 10.9525C59.2585 11.2706 59.3968 11.5584 59.5044 11.831C59.612 12.1188 59.7043 12.3764 59.7812 12.6338C59.858 12.8761 59.9195 13.1185 59.9657 13.3305C60.0271 13.5427 60.0733 13.7243 60.0886 13.891C60.1193 14.0576 60.1347 14.1939 60.1654 14.315C60.2116 14.5423 60.2269 14.6635 60.2269 14.6635C60.2269 14.6635 60.1963 14.5423 60.1194 14.3302C60.0424 14.1181 59.9657 13.7849 59.7965 13.3911C59.7197 13.1942 59.6428 12.967 59.5353 12.7398C59.4277 12.5126 59.3047 12.2552 59.1816 11.9825C59.0432 11.7249 58.8896 11.4524 58.7205 11.1646C58.5514 10.8768 58.3516 10.589 58.1671 10.286C58.0595 10.1346 57.9519 9.9983 57.8289 9.84682C57.7213 9.69533 57.6137 9.52871 57.4754 9.39239C57.2141 9.08946 56.9835 8.77138 56.6761 8.48359C56.5376 8.33211 56.384 8.18067 56.2457 8.02919C56.0919 7.89287 55.9229 7.7414 55.7691 7.58993C55.6154 7.43846 55.4463 7.30215 55.2619 7.16583C55.0927 7.02951 54.9237 6.87804 54.7392 6.74172C54.0167 6.19644 53.2174 5.72689 52.372 5.28763C51.5112 4.87867 50.6504 4.56059 49.6665 4.3031L48.9749 4.15163C48.7443 4.09104 48.4983 4.07589 48.2677 4.03046C47.7912 3.95472 47.3147 3.93957 46.8382 3.89414C45.8852 3.87899 44.9474 3.90927 44.0559 4.06074C43.1643 4.21221 42.3035 4.39397 41.5042 4.66662C41.1045 4.78778 40.7356 4.9544 40.3666 5.09073C40.1822 5.15131 40.013 5.24219 39.844 5.33306C39.6749 5.4088 39.5059 5.49969 39.3367 5.57542C39.0139 5.75718 38.7064 5.9238 38.4144 6.0904C38.1378 6.27217 37.8611 6.43878 37.6151 6.6054C37.3691 6.78715 37.1539 6.95377 36.9388 7.10524C36.7388 7.25671 36.5545 7.42332 36.3853 7.55964C36.0472 7.83229 35.8166 8.07463 35.6475 8.2261C35.5399 8.28668 35.4478 8.37757 35.4478 8.37757Z" fill="#FFD000"/>
<path d="M72.4164 39.3019L69.4497 36.2422H67.9587L68.0202 36.3937L69.3268 36.4088L72.1244 39.3019H72.4164Z" fill="#FFD000"/>
<path d="M88.4182 38.9885L86.8041 38.2919H87.5881C87.7419 38.2919 87.8495 38.1706 87.8495 38.0342C87.8495 37.8829 87.7266 37.7768 87.5881 37.7768H85.5898L83.7759 36.9892H85.4822C85.636 36.9892 85.7435 36.8679 85.7435 36.7317C85.7435 36.5954 85.6205 36.4742 85.4822 36.4742H82.5769L80.6863 35.6562H77.7656L82.5462 39.0492L88.4182 38.9885Z" fill="#FFD000"/>
<path d="M2.64393 31.5507L2.65931 30.8539C2.67469 30.6267 2.69006 30.3994 2.70543 30.1571C2.72079 29.9299 2.76692 29.7028 2.78229 29.4755C2.92063 28.5667 3.13584 27.673 3.44328 26.7945C4.05814 25.0528 5.04193 23.4472 6.28705 22.0687C7.53215 20.6904 9.05396 19.5545 10.7449 18.7517C12.4358 17.9337 14.2804 17.4793 16.1557 17.3582L16.9396 17.3128L17.2625 16.5857L17.5084 16.0253C17.6006 15.8434 17.6622 15.6465 17.7698 15.4649C17.9695 15.1013 18.1386 14.7226 18.3846 14.3895L18.7228 13.8593C18.8457 13.6926 18.9687 13.526 19.0917 13.3594L19.2761 13.117L19.3684 12.9959L19.476 12.8747L19.8757 12.4052C19.9371 12.3294 20.014 12.2385 20.0755 12.178L20.2906 11.9659L20.7366 11.5266C20.8902 11.3903 21.0439 11.254 21.1977 11.1176C21.3513 10.9814 21.505 10.8299 21.6742 10.7087L22.166 10.3301L22.412 10.1484L22.6733 9.98169L23.196 9.64848C23.365 9.54244 23.5648 9.45156 23.7493 9.34554C23.9338 9.25466 24.1183 9.13348 24.3028 9.05775L24.8715 8.80026L25.1636 8.66394C25.2559 8.61849 25.3634 8.5882 25.4556 8.5579L26.0398 8.34584C26.2396 8.27012 26.4393 8.22467 26.6392 8.16409L27.2388 7.99748L27.8536 7.8763L28.161 7.81571L28.3147 7.78542L28.4685 7.77028L29.068 7.69455L29.3754 7.6491L29.7135 7.63396L30.3899 7.60366L30.5591 7.58851H30.5744H30.5898H30.6666H30.9895C31.8348 7.60366 32.6803 7.67939 33.5104 7.83087L34.1252 7.95203L34.5096 7.46734L34.8478 7.04323L35.0168 6.83118L35.2013 6.61913L35.5702 6.21017L35.9545 5.81635L36.1543 5.61943L36.3541 5.43768L36.7692 5.07415L37.1996 4.72579L37.4149 4.55917L37.6453 4.39255L38.0912 4.07447L38.5523 3.77154L38.783 3.62008L39.0289 3.48376L39.5054 3.21111L39.9973 2.96876L40.2432 2.84759L40.5045 2.74156L41.0118 2.52951L41.5345 2.34774L41.7958 2.25687L42.057 2.18113L42.595 2.02966C42.7796 1.98423 42.9641 1.93878 43.1331 1.90849C43.3176 1.86306 43.502 1.8176 43.6865 1.78732L44.2399 1.69643C44.4243 1.66614 44.6088 1.651 44.7779 1.63585L45.0547 1.60555C45.1467 1.59041 45.239 1.59041 45.3312 1.57527L45.9153 1.54496H46.0692H46.0998H46.1153H46.1306H46.1921H46.4687C46.6533 1.54496 46.8378 1.54496 47.0376 1.56011L47.6064 1.59041L48.175 1.651C48.9283 1.74187 49.666 1.87819 50.4039 2.05996C51.1265 2.25687 51.8489 2.49921 52.5406 2.80215C53.2324 3.08994 53.9087 3.45345 54.5543 3.86241C55.2 4.27137 55.8147 4.71064 56.399 5.21047C56.9831 5.71032 57.5211 6.24045 58.0284 6.81603C58.5356 7.3916 58.9813 8.01262 59.3964 8.64879C59.6116 8.96687 59.7961 9.30009 59.9805 9.63332C60.1497 9.98169 60.334 10.3149 60.4879 10.6633C60.7953 11.36 61.0719 12.087 61.2718 12.8293C61.4716 13.5715 61.6253 14.3287 61.7175 15.1013C61.6869 14.3287 61.6099 13.5563 61.4716 12.7839C61.3333 12.0114 61.1181 11.254 60.8567 10.5118C60.5954 9.76963 60.2726 9.04261 59.8883 8.36099C59.504 7.66424 59.0736 6.99779 58.5971 6.36163C58.1052 5.72547 57.5825 5.13475 56.9984 4.57432C56.4143 4.01389 55.7841 3.51404 55.1384 3.04449C54.4775 2.57494 53.7857 2.15083 53.0479 1.80246C52.3255 1.43895 51.5569 1.136 50.7883 0.878511C50.0044 0.636163 49.2049 0.439255 48.3903 0.318081L47.7753 0.227202L47.1605 0.166614C46.9607 0.136321 46.7455 0.136321 46.5457 0.136321L46.269 0H46.1921H46.0998H45.9462H45.362C45.2698 0 45.1623 0 45.0547 0.0151467L44.7318 0.0454401C44.5166 0.060587 44.3014 0.060587 44.1016 0.0908804L43.4866 0.166614C43.2869 0.18176 43.0716 0.227202 42.8718 0.272641C42.672 0.318081 42.4567 0.348376 42.2569 0.393815L41.6575 0.545283L41.35 0.621017L41.0579 0.711896L40.4585 0.893658L39.8743 1.10571L39.5976 1.21174L39.3055 1.33291L38.7368 1.59041L38.1834 1.87819L37.9068 2.01451L37.6453 2.16598L37.1073 2.48406L36.5848 2.83244L36.3234 2.99905L36.0775 3.18081L35.5855 3.55948L35.1091 3.9533L34.8785 4.15021L34.6479 4.36226L34.2022 4.78637L33.7717 5.24078L33.5565 5.46797L33.372 5.69517C32.6189 5.55885 31.8656 5.46797 31.0971 5.43768L30.728 5.42253H30.6358H30.5898H30.5129H30.3438L29.6675 5.43768L29.3293 5.45283L28.9604 5.48311L28.2071 5.55885L28.0227 5.574L27.8382 5.60429L27.4847 5.66489L26.7622 5.78606L26.0551 5.96781C25.8245 6.02839 25.5786 6.07385 25.3479 6.16471L24.6563 6.39192C24.5487 6.43736 24.4257 6.46766 24.3181 6.51309L23.9799 6.64942L23.3036 6.9372C23.0883 7.02809 22.8732 7.14926 22.6579 7.25528C22.4427 7.37646 22.2276 7.46734 22.0123 7.60366L21.3975 7.98234L21.0901 8.17924L20.798 8.3913L20.2139 8.8154C20.014 8.95172 19.8449 9.11834 19.6452 9.2698C19.4606 9.42127 19.2761 9.57273 19.0917 9.7394L18.569 10.2392L18.3077 10.4967C18.2156 10.5875 18.1386 10.6784 18.0618 10.7694L17.5853 11.3146L17.4623 11.451L17.3547 11.5873L17.1395 11.875C17.0012 12.0719 16.8475 12.2538 16.6937 12.4507L16.294 13.0565C16.0174 13.4502 15.8022 13.8895 15.5562 14.3137C15.4485 14.4955 15.3565 14.7075 15.2642 14.9044C13.3119 15.0711 11.4058 15.6011 9.63809 16.419C7.63976 17.3582 5.82589 18.676 4.33483 20.2966C2.84378 21.9173 1.6909 23.8258 0.953048 25.8858C0.584127 26.9157 0.322806 27.9912 0.16909 29.0666C0.138346 29.3393 0.0922304 29.6118 0.0768587 29.8845C0.0614869 30.1571 0.0307435 30.4298 0.0153718 30.7025C0.0153718 30.975 0 31.2477 0 31.5203V31.6415V31.687V31.7779L0.0153718 31.9597L0.0307435 32.3382L0.0461153 32.52C0.0461153 32.5806 0.0614869 32.6715 0.0768587 32.732L0.153718 33.1866L0.230577 33.6409C0.26132 33.7924 0.307435 33.9136 0.338178 34.0651L0.445781 34.474L0.507268 34.6861C0.52264 34.7618 0.553383 34.8223 0.584127 34.883L0.89156 35.6857C1.36808 36.7309 2.0137 37.7002 2.78229 38.5484L3.07435 38.8665C3.16658 38.9726 3.27418 39.0787 3.38178 39.1695C3.59698 39.3664 3.81219 39.5481 4.0274 39.7299L4.68838 40.2146C2.10592 36.7157 2.64393 31.5507 2.64393 31.5507Z" fill="#FFD000"/>
<path d="M97.3345 40.9833L94.337 39.4989C93.8912 39.2716 93.3839 39.1657 92.8766 39.1657L72.6629 39.302L69.5577 36.106H67.7899L69.2657 40.4835L12.0367 39.6656H11.2681C11.1451 39.6656 11.0068 39.6656 10.8838 39.6656L10.5456 39.6504C10.0998 39.6504 9.66942 39.5595 9.22364 39.4989C8.36283 39.3172 7.53275 38.984 6.76416 38.5599L6.48747 38.3931C6.39524 38.3326 6.28764 38.2872 6.21078 38.2115L5.67277 37.8177L5.18087 37.3784C5.08865 37.3026 5.02715 37.2268 4.95029 37.1512L4.71972 36.9088C4.13559 36.2574 3.65907 35.5153 3.29015 34.7277L3.05957 34.1219C3.0442 34.0764 3.01346 34.0157 2.99809 33.9704L2.95197 33.8188L2.87511 33.5008C2.84437 33.3948 2.81362 33.2888 2.79825 33.1827L2.76751 32.8647L2.7214 32.5768L2.70602 32.5011C2.70602 32.486 2.69065 32.4556 2.69065 32.4102L2.67528 32.2285L2.62916 31.5469C2.62916 31.5469 2.09116 36.712 4.68898 40.2714L4.71972 40.3017C4.82732 40.3925 4.96567 40.4532 5.08865 40.5289L5.45757 40.741C6.4721 41.3014 7.5635 41.7104 8.701 41.9375C8.99307 41.983 9.26976 42.0284 9.56182 42.0588L9.77702 42.089C9.85388 42.1042 9.91537 42.1042 9.99226 42.1042L10.4227 42.1193L10.8531 42.1345C10.9913 42.1345 11.1143 42.1345 11.2373 42.1345H12.0059L82.2855 42.3465L78.1659 47.9963H79.411L82.9005 45.6637H85.4829C85.6365 45.6637 85.7441 45.5425 85.7441 45.4061C85.7441 45.2699 85.6211 45.1486 85.4829 45.1486H83.6844L85.2369 44.1186H87.0661C87.2199 44.1186 87.3275 43.9974 87.3275 43.8612C87.3275 43.7097 87.2045 43.6036 87.0661 43.6036H86.0209L87.7117 42.4677L97.0424 42.1193C97.2576 42.1042 97.4575 41.983 97.5651 41.7861C97.7496 41.4832 97.6265 41.1196 97.3345 40.9833Z" fill="#FFD000"/>
<path d="M36.9831 17.3233L37.422 20.8816H36.9831C36.6135 19.7108 36.0129 18.1957 33.8646 18.1957H31.7163V31.5104C31.7163 32.4057 31.9473 32.819 32.8251 32.8878V33.3929H28.1589V32.8878C29.0367 32.819 29.2677 32.4057 29.2677 31.5104V18.1957H27.1194C24.9711 18.1957 24.3705 19.7108 24.0009 20.8816H23.562L24.0009 17.3233H36.9831ZM46.8441 17.0938C51.7182 17.0938 55.4373 20.5372 55.4373 25.3581C55.4373 30.156 51.7182 33.6224 46.8441 33.6224C41.97 33.6224 38.2278 30.156 38.2278 25.3581C38.2278 20.5372 41.97 17.0938 46.8441 17.0938ZM46.8441 33.0026C50.1474 33.0026 52.827 30.2478 52.827 25.3581C52.827 20.4454 50.1474 17.7136 46.8441 17.7136C43.5408 17.7136 40.8612 20.4454 40.8612 25.3581C40.8612 30.2478 43.5408 33.0026 46.8441 33.0026ZM68.9028 17.3233H71.9751V17.8284C71.1204 17.8972 70.8894 18.2875 70.8894 19.1828V27.1717C70.8894 30.8447 68.6487 33.6224 64.8834 33.6224C61.2798 33.6224 58.1382 31.5104 58.1382 27.2176V19.1828C58.1382 18.2875 57.9072 17.8972 57.0525 17.8284V17.3233H61.6956V17.8284C60.8178 17.8972 60.5868 18.2875 60.5868 19.1828V27.2635C60.5868 31.1661 62.7813 32.6812 65.4609 32.6812C68.5101 32.6812 69.9885 30.179 69.9885 27.2176V19.1828C69.9885 18.2875 69.7575 17.8972 68.9028 17.8284V17.3233ZM86.1951 31.5104C86.7033 32.291 87.327 32.7501 87.9507 32.8878V33.3929H84.6243L80.3739 26.7125C80.1429 26.7125 79.8888 26.7355 79.6578 26.7355H77.3709V31.5104C77.3709 32.4057 77.6019 32.819 78.4566 32.8878V33.3929H73.8135V32.8878C74.6913 32.819 74.9223 32.4057 74.9223 31.5104V19.1828C74.9223 18.2875 74.6913 17.8972 73.8135 17.8284V17.3233H79.6578C83.0535 17.3233 86.0334 18.7466 86.0334 22.0294C86.0334 24.2562 84.6705 25.6106 82.707 26.2764L86.1951 31.5104ZM79.4268 25.8402C81.8754 25.8402 83.4693 24.3939 83.4693 22.0294C83.4693 19.6649 81.8754 18.1957 79.4268 18.1957H77.3709V25.8402H79.4268ZM93.9769 17.8284C93.1222 17.8972 92.8912 18.2875 92.8912 19.1828V31.5104C92.8912 32.4057 93.1222 32.796 93.9769 32.8878V33.3929H89.3338V32.8878C90.2116 32.796 90.4195 32.4057 90.4195 31.5104V19.1828C90.4195 18.2875 90.2116 17.8972 89.3338 17.8284V17.3233H93.9769V17.8284ZM108.068 29.8117H108.507L108.068 33.3929H95.7098V32.5205L105.204 18.1957H99.7523C97.604 18.1957 96.9803 19.7108 96.6107 20.8816H96.1718L96.6107 17.3233H107.999V18.1957L98.5049 32.5205H104.95C107.098 32.5205 107.699 30.9824 108.068 29.8117ZM123.649 31.5104C124.019 32.3598 124.388 32.819 125.266 32.8878V33.3929H120.069V32.8878C120.923 32.819 121.339 32.2451 121.016 31.4186L119.676 28.2047H113.162L111.914 31.5104C111.591 32.3828 111.96 32.796 112.838 32.8878V33.3929H109.327V32.8878C110.205 32.796 110.598 32.3828 110.921 31.5334L115.564 19.1828C115.841 18.4482 115.68 17.8972 114.871 17.8284V17.3233H117.643L123.649 31.5104ZM113.485 27.3324H119.329L116.257 19.8944L113.485 27.3324Z" fill="#0D0D0D"/>
</g>
<defs>
<clipPath id="clip0_323_8036">
<rect width="126" height="48" fill="white"/>
</clipPath>
</defs>
</svg>
