<svg width="134" height="42" viewBox="0 0 134 42" fill="none" xmlns="http://www.w3.org/2000/svg">
<g clip-path="url(#clip0_545_6116)">
<mask id="mask0_545_6116" style="mask-type:luminance" maskUnits="userSpaceOnUse" x="17" y="12" width="117" height="20">
<path d="M134 12.6016H17.9236V31.0816H134V12.6016Z" fill="white"/>
</mask>
<g mask="url(#mask0_545_6116)">
<path d="M28.0836 30.2445H24.2873V16.2669H18.5244V12.9876H33.8465V16.2669H28.0836V30.2445ZM33.893 21.616C33.893 16.24 38.3722 12.7188 43.5615 12.7188C48.7781 12.7188 53.1754 16.24 53.1754 21.616C53.1754 26.992 48.7508 30.5133 43.5615 30.5133C38.3722 30.5133 33.893 26.9652 33.893 21.616ZM43.5615 27.0727C46.8663 27.0727 49.3517 24.7341 49.3517 21.616C49.3517 18.498 46.8663 16.1325 43.5615 16.1325C40.2294 16.1325 37.7167 18.4711 37.7167 21.616C37.7167 24.7341 40.2294 27.0727 43.5615 27.0727ZM54.941 12.9876H58.7647V22.6375C58.7647 25.3792 59.9118 27.1264 62.9434 27.1264C65.9751 27.1264 67.0677 25.3792 67.0677 22.6375V12.9876H70.8366V22.7181C70.8366 26.5888 68.8429 30.4596 62.9434 30.4596C57.044 30.4596 54.941 26.5888 54.941 22.7181V12.9876ZM87.6794 25.4061L88.7173 30.2445H84.7298L83.7466 25.648C83.3915 24.0352 81.8893 23.6589 80.0321 23.6589H77.4921V30.2445H73.6684V13.0144H81.6435C85.9588 13.0144 88.5534 14.6541 88.5534 17.826C88.5534 20.4333 86.7508 21.9924 84.7844 22.5031C86.1226 22.9332 87.3244 23.8202 87.6794 25.4061ZM77.4921 16.2669V20.8634H81.2065C83.3642 20.8634 84.7298 20.3527 84.7298 18.4442C84.7298 16.5088 83.2549 16.2669 81.5616 16.2669H77.4921ZM94.4835 30.2445H90.6599V13.0144H94.4835V30.2445ZM111.63 30.2445H96.1436V27.5565L106.604 16.2669H96.3348V13.0144H111.821V15.9175L101.633 26.992H111.63V30.2445ZM124.228 30.2445L122.999 26.2932H116.771L115.515 30.2445H111.554L117.181 13.0144H122.589L128.215 30.2445H124.228ZM117.728 23.1213H122.043L119.886 16.24L117.728 23.1213ZM129.637 28.2554C129.637 26.992 130.675 26.1588 131.822 26.1588C132.969 26.1588 133.952 26.992 133.952 28.2554C133.952 29.5188 132.969 30.3789 131.822 30.3789C130.675 30.3789 129.637 29.5456 129.637 28.2554Z" fill="#0D0D0D"/>
</g>
<path d="M13.8898 16.1172C13.8898 16.1172 13.5343 16.2762 12.9155 16.581C12.2967 16.8859 11.4409 17.3365 10.4535 17.9727C9.96629 18.2908 9.45283 18.6619 8.93936 19.0727C8.80766 19.1787 8.67605 19.2847 8.55759 19.3908C8.42588 19.51 8.29423 19.6293 8.17573 19.7354C7.92558 19.974 7.67542 20.2257 7.43844 20.4908C7.20146 20.7559 6.96446 21.0342 6.74064 21.3258C6.51683 21.6173 6.31934 21.9222 6.10868 22.2403C5.91119 22.5583 5.74003 22.8897 5.56888 23.2343C5.41088 23.5788 5.26606 23.9235 5.14756 24.2813C5.0949 24.4536 5.02907 24.6523 4.98957 24.8247C4.93691 24.997 4.89741 25.1826 4.85792 25.368C4.79209 25.7391 4.73942 26.1102 4.71308 26.4814C4.69992 26.8525 4.69992 27.2235 4.72625 27.5814C4.75259 27.9393 4.80525 28.2971 4.88425 28.6417C4.96324 28.9862 5.0554 29.3175 5.18706 29.6356C5.23972 29.7947 5.31872 29.9538 5.38455 30.0995L5.41088 30.1526L5.43721 30.2056L5.50304 30.3249C5.54255 30.4043 5.58204 30.4839 5.62154 30.5502C5.93752 31.0935 6.3325 31.5971 6.72748 31.9815C7.13563 32.3791 7.55693 32.6839 7.96508 32.9225C8.37322 33.161 8.755 33.3201 9.07106 33.4261C9.22904 33.4792 9.37388 33.5189 9.50549 33.5587C9.63718 33.5852 9.74251 33.6249 9.83469 33.6382C10.019 33.6647 10.1111 33.6912 10.1111 33.6912C10.1111 33.6912 10.019 33.6912 9.83469 33.6912C9.74251 33.6912 9.62396 33.678 9.49234 33.6647C9.36065 33.6514 9.20267 33.6249 9.03154 33.5984C8.6892 33.5322 8.28106 33.4129 7.83342 33.214C7.38578 33.0153 6.9118 32.7237 6.43783 32.3394C5.96385 31.9418 5.51621 31.4647 5.12123 30.855C4.75259 30.2719 4.4366 29.5694 4.23911 28.8272C4.04163 28.085 3.94946 27.2766 3.98896 26.4681C4.00213 26.0572 4.05479 25.6597 4.12062 25.2487C4.16012 25.05 4.19962 24.8512 4.25228 24.6392C4.30494 24.4271 4.35761 24.2548 4.42344 24.0559C4.55509 23.6716 4.71309 23.2873 4.88425 22.9161C5.06857 22.5451 5.26606 22.2005 5.47671 21.8559C5.91119 21.18 6.4115 20.5704 6.93813 20.027C7.20146 19.7619 7.46477 19.4968 7.75442 19.2715C7.89925 19.1522 8.03091 19.0462 8.16257 18.9402C8.30739 18.8342 8.43905 18.7281 8.58388 18.6221C9.13686 18.2112 9.68985 17.8799 10.2165 17.6016C10.7431 17.31 11.2302 17.0847 11.6779 16.8991C12.1255 16.7136 12.5205 16.5678 12.8365 16.4486C13.1657 16.3293 13.4158 16.2497 13.6001 16.1967C13.7976 16.1569 13.8898 16.1172 13.8898 16.1172Z" fill="#07A692"/>
<path d="M29.4915 8.24037C29.4915 8.24037 29.4256 8.24038 29.3071 8.22712C29.1887 8.21386 29.0043 8.20062 28.7805 8.18736C28.662 8.18736 28.5435 8.17411 28.4118 8.17411C28.2802 8.17411 28.1354 8.16085 27.9774 8.16085C27.8194 8.16085 27.6614 8.16085 27.4771 8.16085C27.3059 8.17411 27.1216 8.17411 26.9241 8.18736C26.5423 8.21386 26.1342 8.25363 25.6996 8.3199C25.2652 8.37291 24.8175 8.47897 24.3699 8.58498C23.9091 8.70426 23.4483 8.85 22.9875 9.00909C22.5267 9.18138 22.0658 9.3802 21.6182 9.60549C21.1574 9.83078 20.7361 10.0826 20.3279 10.3476C19.9198 10.626 19.5248 10.9043 19.1562 11.2091C18.8007 11.514 18.4452 11.8055 18.1424 12.1236C17.8264 12.4285 17.5631 12.7333 17.2998 13.0249C17.1812 13.1706 17.0628 13.3164 16.9575 13.449C16.8521 13.5815 16.7468 13.714 16.6546 13.8466C16.5625 13.9791 16.4835 14.0984 16.4045 14.2044C16.3255 14.3104 16.2596 14.4164 16.1938 14.5092C16.0622 14.6948 15.97 14.8538 15.9042 14.9466C15.8383 15.0526 15.7988 15.1056 15.7988 15.1056C15.7988 15.1056 15.8252 15.0394 15.8647 14.9334C15.9042 14.8141 15.9569 14.6418 16.0622 14.443C16.1017 14.337 16.1543 14.2177 16.2202 14.0984C16.2729 13.9791 16.3518 13.8466 16.4177 13.7007C16.4967 13.555 16.5757 13.4092 16.6678 13.2502C16.76 13.0912 16.8653 12.9321 16.9706 12.773C17.0892 12.614 17.1945 12.4417 17.3261 12.2694C17.4578 12.0971 17.5894 11.9248 17.7475 11.7525C18.0371 11.3947 18.3794 11.0501 18.7349 10.7187C19.1035 10.3874 19.5117 10.0561 19.9329 9.75123C20.3675 9.45967 20.8414 9.18138 21.3022 8.94282C21.7762 8.70426 22.2765 8.50543 22.7768 8.33315C23.2771 8.17411 23.7775 8.04157 24.2646 7.9488C24.7517 7.85602 25.2257 7.80301 25.6865 7.77651C25.9103 7.76326 26.1342 7.76326 26.3448 7.75C26.5554 7.75 26.7661 7.76325 26.9636 7.76325C27.1611 7.77651 27.3454 7.78976 27.5297 7.81627C27.7009 7.84278 27.8721 7.86928 28.03 7.88253C28.188 7.90904 28.3329 7.93555 28.4645 7.96206C28.5962 7.98856 28.7279 8.02832 28.8332 8.05483C29.057 8.10784 29.2281 8.16085 29.3467 8.20062C29.4256 8.22712 29.4915 8.24037 29.4915 8.24037Z" fill="#07A692"/>
<path d="M30.3611 7.33233C30.3611 7.33233 30.4269 7.2528 30.5454 7.09377C30.6112 7.01424 30.6902 6.92147 30.7692 6.80219C30.8482 6.68291 30.9667 6.56363 31.0983 6.43109C31.23 6.29856 31.3616 6.13952 31.5329 5.98048C31.704 5.82144 31.8883 5.6624 32.0726 5.49011C32.2701 5.31781 32.4939 5.15877 32.7309 4.97322C32.9679 4.80093 33.2312 4.62864 33.5077 4.45634C33.6525 4.37682 33.7974 4.2973 33.9422 4.20453C34.0871 4.12501 34.2318 4.03223 34.403 3.95271C34.719 3.80692 35.0481 3.63463 35.4036 3.51535C36.1014 3.22378 36.865 3.01172 37.6682 2.85268C37.8657 2.82617 38.0763 2.78642 38.2738 2.7599C38.3791 2.74665 38.4845 2.7334 38.5898 2.72015C38.6951 2.70689 38.8004 2.70689 38.9058 2.69364C39.327 2.64062 39.7616 2.65388 40.1829 2.64062C40.6174 2.66714 41.0518 2.68038 41.4863 2.74665C41.697 2.77316 41.9208 2.79966 42.1314 2.85268L42.7897 2.99846C43.5929 3.22378 44.4618 3.55511 45.2254 3.93946C45.6072 4.15152 45.9891 4.35031 46.3313 4.60213C46.4235 4.65514 46.5025 4.72141 46.5947 4.77442C46.6868 4.82744 46.7658 4.8937 46.8448 4.95997C47.016 5.0925 47.174 5.21178 47.332 5.34432C47.9639 5.87446 48.53 6.43109 49.0041 7.01424C49.2542 7.29256 49.4649 7.5974 49.6624 7.88897C49.7677 8.03475 49.8466 8.18054 49.9388 8.32633C50.031 8.4721 50.11 8.61792 50.2021 8.75047C50.3601 9.04204 50.505 9.30706 50.6366 9.58543C50.7551 9.86373 50.8736 10.1156 50.9658 10.3541C51.0579 10.6059 51.137 10.8312 51.2028 11.0565C51.2686 11.2685 51.3212 11.4806 51.3608 11.6662C51.4134 11.8518 51.4529 12.0108 51.4661 12.1566C51.4924 12.3023 51.5056 12.4216 51.5319 12.5276C51.5714 12.7264 51.5845 12.8325 51.5845 12.8325C51.5845 12.8325 51.5583 12.7264 51.4925 12.5409C51.4266 12.3553 51.3608 12.0638 51.2159 11.7192C51.1501 11.5469 51.0842 11.3481 50.9921 11.1493C50.9 10.9505 50.7946 10.7252 50.6893 10.4867C50.5708 10.2613 50.4391 10.0227 50.2943 9.77099C50.1495 9.51916 49.9783 9.26733 49.8204 9.00222C49.7282 8.86975 49.636 8.75047 49.5307 8.61792C49.4385 8.48537 49.3463 8.33958 49.2279 8.2203C49.0041 7.95524 48.8066 7.67691 48.5433 7.4251C48.4247 7.29256 48.2931 7.16003 48.1746 7.0275C48.0429 6.90822 47.8981 6.77568 47.7665 6.64315C47.6348 6.51061 47.49 6.39133 47.332 6.27205C47.1871 6.15277 47.0423 6.02024 46.8843 5.90096C46.2655 5.42384 45.5809 5.01299 44.8568 4.62864C44.1195 4.2708 43.3822 3.99247 42.5395 3.76717L41.9471 3.63463C41.7496 3.58162 41.539 3.56836 41.3415 3.52861C40.9333 3.46234 40.5252 3.44908 40.1171 3.40933C39.3008 3.39607 38.4976 3.42257 37.734 3.55511C36.9704 3.68764 36.2331 3.84668 35.5484 4.08525C35.2062 4.19127 34.8901 4.33706 34.5741 4.45634C34.4162 4.50936 34.2713 4.58887 34.1265 4.66839C33.9817 4.73466 33.8369 4.81418 33.692 4.88045C33.4155 5.03949 33.1522 5.18528 32.902 5.33106C32.6651 5.49011 32.4281 5.63589 32.2175 5.78168C32.0068 5.94072 31.8225 6.08651 31.6382 6.21904C31.467 6.35158 31.309 6.49736 31.1641 6.61664C30.8746 6.85521 30.6771 7.06726 30.5322 7.19979C30.44 7.2528 30.3611 7.33233 30.3611 7.33233Z" fill="#07A692"/>
<path d="M62.0248 34.396L59.4839 31.7188H58.2068L58.2594 31.8513L59.3786 31.8646L61.7748 34.396H62.0248Z" fill="#07A692"/>
<path d="M75.7304 34.111L74.348 33.5014H75.0194C75.1511 33.5014 75.2433 33.3954 75.2433 33.2761C75.2433 33.1436 75.138 33.0508 75.0194 33.0508H73.3079L71.7543 32.3616H73.2157C73.3474 32.3616 73.4395 32.2556 73.4395 32.1363C73.4395 32.017 73.3342 31.911 73.2157 31.911H70.7273L69.108 31.1953H66.6064L70.701 34.1641L75.7304 34.111Z" fill="#07A692"/>
<path d="M2.26454 27.6069L2.27771 26.9972C2.29088 26.7984 2.30404 26.5995 2.31721 26.3875C2.33037 26.1887 2.36987 25.9899 2.38304 25.7911C2.50153 24.9959 2.68586 24.2139 2.94918 23.4452C3.47582 21.9211 4.31844 20.5162 5.38488 19.3102C6.45132 18.1041 7.75475 17.1101 9.20298 16.4077C10.6513 15.692 12.2312 15.2944 13.8374 15.1884L14.5089 15.1486L14.7854 14.5124L14.9961 14.0221C15.075 13.863 15.1277 13.6907 15.2198 13.5317C15.391 13.2136 15.5358 12.8823 15.7465 12.5908L16.0361 12.1268C16.1415 11.9811 16.2468 11.8353 16.3521 11.6895L16.5101 11.4774L16.5891 11.3714L16.6813 11.2654L17.0235 10.8546C17.0762 10.7883 17.1421 10.7087 17.1948 10.6557L17.379 10.4702L17.7609 10.0858C17.8925 9.96652 18.0242 9.84724 18.1559 9.72796C18.2875 9.60868 18.4192 9.47621 18.564 9.37012L18.9853 9.03882L19.196 8.87981L19.4198 8.73399L19.8674 8.44242C20.0123 8.34964 20.1834 8.27012 20.3414 8.17734C20.4994 8.09783 20.6574 7.9918 20.8154 7.92553L21.3025 7.70022L21.5527 7.58094C21.6317 7.54119 21.7238 7.51468 21.8028 7.48816L22.3031 7.30262C22.4743 7.23636 22.6454 7.19659 22.8166 7.14358L23.3301 6.99779L23.8567 6.89176L24.12 6.83875L24.2517 6.81224L24.3834 6.79899L24.8969 6.73273L25.1602 6.69296L25.4498 6.67971L26.0291 6.6532L26.174 6.63995H26.1871H26.2002H26.2661H26.5426C27.2667 6.6532 27.9908 6.71947 28.7018 6.85201L29.2284 6.95803L29.5576 6.53392L29.8473 6.16283L29.992 5.97728L30.15 5.79173L30.4661 5.43389L30.7952 5.0893L30.9663 4.91701L31.1375 4.75797L31.493 4.43989L31.8616 4.13506L32.046 3.98927L32.2434 3.84349L32.6252 3.56516L33.0202 3.30009L33.2177 3.16756L33.4284 3.04829L33.8365 2.80972L34.2578 2.59767L34.4685 2.49164L34.6923 2.39886L35.1268 2.21332L35.5744 2.05428L35.7982 1.97476L36.022 1.90849L36.4828 1.77595C36.6409 1.7362 36.7989 1.69643 36.9436 1.66993C37.1017 1.63017 37.2597 1.59041 37.4177 1.5639L37.8916 1.48438C38.0496 1.45787 38.2076 1.44462 38.3524 1.43137L38.5894 1.40486C38.6684 1.3916 38.7474 1.3916 38.8264 1.37836L39.3267 1.35185H39.4584H39.4847H39.4979H39.5111H39.5637H39.8006C39.9587 1.35185 40.1167 1.35185 40.2878 1.3651L40.775 1.3916L41.2621 1.44462C41.9073 1.52414 42.5392 1.64342 43.1711 1.80246C43.79 1.97476 44.4088 2.18681 45.0012 2.45188C45.5937 2.70369 46.173 3.02177 46.726 3.37961C47.279 3.73745 47.8056 4.12181 48.3059 4.55917C48.8062 4.99653 49.267 5.4604 49.7015 5.96403C50.136 6.46766 50.5177 7.01104 50.8732 7.56769C51.0576 7.84601 51.2156 8.13759 51.3736 8.42915C51.5184 8.73399 51.6764 9.02555 51.8081 9.33039C52.0714 9.94006 52.3083 10.5762 52.4795 11.2256C52.6507 11.8751 52.7823 12.5377 52.8613 13.2136C52.835 12.5377 52.7691 11.8618 52.6506 11.1859C52.5322 10.5099 52.3478 9.84724 52.124 9.19783C51.9002 8.54843 51.6237 7.91228 51.2946 7.31587C50.9654 6.70622 50.5968 6.12307 50.1886 5.56643C49.7673 5.00979 49.3197 4.4929 48.8194 4.00253C48.319 3.51215 47.7793 3.07479 47.2263 2.66393C46.6602 2.25307 46.0677 1.88198 45.4357 1.57715C44.8169 1.25908 44.1586 0.994006 43.5003 0.768697C42.8289 0.556643 42.1442 0.384349 41.4465 0.278321L40.9198 0.198801L40.3932 0.145787C40.222 0.119281 40.0377 0.119281 39.8665 0.119281L39.6295 0H39.5637H39.4847H39.3531H38.8527C38.7737 0 38.6816 0 38.5894 0.0132534L38.3129 0.0397601C38.1286 0.0530136 37.9443 0.0530136 37.7732 0.0795204L37.2465 0.145787C37.0753 0.159041 36.891 0.198801 36.7198 0.238561C36.5487 0.278321 36.3644 0.304828 36.1932 0.344588L35.6798 0.477123L35.4165 0.543389L35.1663 0.62291L34.6528 0.78195L34.1525 0.967495L33.9155 1.06027L33.6653 1.1663L33.1782 1.3916L32.7042 1.64342L32.4673 1.7627L32.2434 1.89523L31.7826 2.17356L31.335 2.47839L31.1111 2.62417L30.9005 2.78321L30.4792 3.11454L30.0711 3.45914L29.8736 3.63143L29.6761 3.81698L29.2943 4.18807L28.9256 4.58568L28.7413 4.78447L28.5833 4.98328C27.9381 4.864 27.293 4.78447 26.6348 4.75797L26.3187 4.74472H26.2398H26.2002H26.1344H25.9896L25.4103 4.75797L25.1206 4.77123L24.8047 4.79773L24.1595 4.864L24.0015 4.87725L23.8436 4.90375L23.5407 4.95677L22.9219 5.0628L22.3163 5.22184C22.1188 5.27485 21.9081 5.31461 21.7106 5.39413L21.1182 5.59293C21.0261 5.6327 20.9207 5.6592 20.8286 5.69896L20.5389 5.81824L19.9596 6.07005C19.7752 6.14957 19.591 6.2556 19.4066 6.34838C19.2223 6.4544 19.038 6.53392 18.8536 6.6532L18.327 6.98454L18.0637 7.15683L17.8136 7.34238L17.3132 7.71348C17.1421 7.83276 16.9973 7.97855 16.8261 8.11108C16.6681 8.24361 16.5101 8.37615 16.3521 8.52197L15.9044 8.95927L15.6806 9.18456C15.6017 9.26411 15.5358 9.34366 15.47 9.42321L15.0619 9.90033L14.9565 10.0196L14.8644 10.1389L14.68 10.3906C14.5615 10.5629 14.4299 10.722 14.2982 10.8943L13.9559 11.4244C13.719 11.769 13.5346 12.1534 13.324 12.5245C13.2318 12.6835 13.1528 12.8691 13.0738 13.0413C11.4017 13.1872 9.76911 13.651 8.25506 14.3667C6.54348 15.1884 4.9899 16.3414 3.7128 17.7595C2.4357 19.1776 1.44826 20.8476 0.81629 22.65C0.500307 23.5513 0.276485 24.4923 0.144826 25.4333C0.118494 25.6718 0.0789957 25.9104 0.0658298 26.149C0.0526638 26.3875 0.0263319 26.6261 0.013166 26.8646C0.013166 27.1032 0 27.3418 0 27.5803V27.6863V27.7261V27.8056L0.013166 27.9647L0.0263319 28.296L0.0394979 28.455C0.0394979 28.5081 0.0526638 28.5876 0.0658298 28.6406L0.13166 29.0382L0.19749 29.4358C0.223821 29.5683 0.263319 29.6744 0.289651 29.8069L0.381813 30.1647L0.434477 30.3503C0.447643 30.4166 0.473974 30.4696 0.500306 30.5226L0.763625 31.225C1.17177 32.1395 1.72474 32.9877 2.38304 33.7299L2.63319 34.0082C2.71219 34.101 2.80435 34.1938 2.89651 34.2733C3.08083 34.4455 3.26515 34.6046 3.44948 34.7637L4.01561 35.1878C1.80373 32.1262 2.26454 27.6069 2.26454 27.6069Z" fill="#07A692"/>
<path d="M83.3669 35.8662L80.7995 34.5674C80.4177 34.3686 79.9832 34.2759 79.5488 34.2759L62.2355 34.3951L59.576 31.5987H58.0619L59.3259 35.4289L10.309 34.7133H9.65071C9.54539 34.7133 9.42692 34.7133 9.3216 34.7133L9.03192 34.7C8.65006 34.7 8.28145 34.6204 7.89964 34.5674C7.16235 34.4084 6.45139 34.1169 5.79309 33.7457L5.5561 33.5999C5.4771 33.5469 5.38494 33.5072 5.31911 33.4409L4.85831 33.0963L4.43699 32.712C4.358 32.6457 4.30533 32.5794 4.2395 32.5131L4.04202 32.3011C3.54171 31.7312 3.13356 31.0818 2.81758 30.3926L2.62009 29.8625C2.60693 29.8227 2.5806 29.7697 2.56743 29.73L2.52793 29.5974L2.4621 29.3191C2.43577 29.2263 2.40944 29.1336 2.39627 29.0407L2.36993 28.7624L2.33044 28.5106L2.31727 28.4443C2.31727 28.4311 2.3041 28.4046 2.3041 28.3649L2.29094 28.2058L2.25144 27.6094C2.25144 27.6094 1.79064 32.1288 4.01569 35.2434L4.04202 35.2698C4.13418 35.3494 4.25267 35.4024 4.358 35.4687L4.67398 35.6542C5.54293 36.1446 6.47772 36.5025 7.452 36.7012C7.70215 36.741 7.93914 36.7807 8.18929 36.8073L8.37361 36.8338C8.43944 36.847 8.4921 36.847 8.55797 36.847L8.9266 36.8603L9.29522 36.8736C9.41369 36.8736 9.51901 36.8736 9.62434 36.8736H10.2826L70.4774 37.059L66.9489 42.0026H68.0154L71.0041 39.9616H73.2159C73.3476 39.9616 73.4397 39.8556 73.4397 39.7363C73.4397 39.617 73.3344 39.5109 73.2159 39.5109H71.6755L73.0053 38.6097H74.572C74.7037 38.6097 74.7959 38.5037 74.7959 38.3844C74.7959 38.2518 74.6905 38.1591 74.572 38.1591H73.6767L75.125 37.1651L83.1168 36.8603C83.301 36.847 83.4722 36.741 83.5644 36.5687C83.7224 36.3036 83.6171 35.9855 83.3669 35.8662Z" fill="#07A692"/>
</g>
<defs>
<clipPath id="clip0_545_6116">
<rect width="134" height="42" fill="white"/>
</clipPath>
</defs>
</svg>
