<svg width="23" height="17" viewBox="0 0 23 17" fill="none" xmlns="http://www.w3.org/2000/svg">
<path d="M0.18358 15.7857L3.67166 7.65V3.03571C3.67166 2.48929 3.73285 1.94286 3.91643 1.39643C4.03882 1.03214 4.2836 0.728571 4.58957 0.485714C4.95674 0.242857 5.3851 0.121428 5.81346 0.0607134C6.36421 -9.27331e-07 6.91496 0 7.46571 0C8.01645 0 8.5672 4.61404e-07 9.11795 0.121429C9.54631 0.182143 9.91348 0.303572 10.2806 0.54643C10.5866 0.789287 10.7702 1.09286 10.8926 1.45714C11.015 2.00357 11.0762 2.55 11.0762 3.09643C11.0762 3.76428 11.0762 4.49286 10.9538 5.16071C10.8926 5.76786 10.7702 6.375 10.5866 6.98214C10.4642 7.52857 10.2194 8.13571 9.97467 8.62143C9.6687 9.16786 9.36273 9.71429 8.99556 10.2607L5.20152 15.9071C5.07913 16.0893 4.95674 16.2714 4.77315 16.3929C4.58957 16.5143 4.40599 16.6357 4.2224 16.7571C3.97763 16.8786 3.67166 16.9393 3.42688 16.9393C2.99852 17 2.63136 17 2.203 17C1.77463 17 1.40747 17 0.979109 16.9393C0.734331 16.9393 0.489551 16.8179 0.244774 16.6964C0.122385 16.6357 0 16.4536 0 16.2714C0.0611944 16.15 0.0611916 15.9679 0.18358 15.7857Z" fill="#07A692"/>
<path d="M15.4211 7.65V3.03571C15.4211 2.48929 15.4823 1.94286 15.6659 1.39643C15.7883 1.03214 16.033 0.667857 16.339 0.485714C16.7062 0.242857 17.0733 0.121428 17.5017 0.0607134C18.0524 -9.27331e-07 18.6644 0 19.2151 0C19.7659 0 20.3166 4.61404e-07 20.8674 0.121429C21.2957 0.182143 21.6629 0.303572 21.9689 0.54643C22.2749 0.789287 22.4584 1.09286 22.5808 1.45714C22.7644 2.00357 22.8256 2.55 22.7644 3.09643C22.7644 3.76428 22.7644 4.49286 22.642 5.16071C22.5808 5.76786 22.4584 6.375 22.2749 6.98214C22.1525 7.52857 21.9077 8.13571 21.6629 8.62143C21.3569 9.16786 21.051 9.71429 20.6838 10.2607L16.8286 15.9071C16.7062 16.0893 16.5838 16.2714 16.4002 16.3929C16.2166 16.5143 16.033 16.6357 15.8494 16.7571C15.6047 16.8786 15.2987 16.9393 15.0539 16.9393C14.6868 17 14.2584 17 13.8912 17C13.4629 17 13.0957 17 12.6673 16.9393C12.4226 16.9393 12.1778 16.8179 11.933 16.6964C11.8106 16.6357 11.6882 16.4536 11.6882 16.2714C11.6882 16.0893 11.7494 15.9071 11.8106 15.725L15.4211 7.65Z" fill="#07A692"/>
</svg>
