<svg width="50" height="38" viewBox="0 0 50 38" fill="none" xmlns="http://www.w3.org/2000/svg">
<path d="M22.1769 0.134405C21.236 -2.05288e-06 20.4296 0 19.4888 0C18.6823 0 17.7415 -2.05288e-06 16.9351 0.134405C16.263 0.268811 15.7254 0.403222 15.1878 0.537628C14.7846 0.672035 14.3814 0.940846 13.9782 1.34407C13.5749 1.74729 13.3061 2.0161 13.0373 2.41932L4.56978 14.9191C3.76335 16.1288 3.09132 17.3385 2.41929 18.5481C1.88167 19.7578 1.34405 20.9674 1.07524 22.1771C0.672026 23.5211 0.403212 24.8652 0.268807 26.2093C0.134401 27.6878 0 29.3006 0 30.7791C0 31.9888 0.134404 33.1984 0.403215 34.4081C0.672026 35.2145 1.07524 35.8866 1.74727 36.4242C2.41929 36.9618 3.36013 37.2306 4.16656 37.365C5.37621 37.4994 6.58586 37.6338 7.79551 37.6338C9.00515 37.6338 10.3492 37.6338 11.5589 37.365C12.4997 37.2306 13.3061 36.9618 13.9782 36.4242C14.6502 35.8866 15.1878 35.2145 15.4566 34.4081C15.8598 33.1984 15.9942 31.9888 15.9942 30.7791V20.5642L24.0586 2.68813C24.193 2.28491 24.3274 1.88169 24.3274 1.47847C24.3274 1.07525 24.0585 0.806441 23.7897 0.537628C23.2521 0.268815 22.7145 0.134405 22.1769 0.134405Z" fill="white"/>
<path d="M49.5964 0.672033C49.1932 0.40322 48.6555 0.268811 47.9835 0.134405C47.0427 -2.05288e-06 46.2362 0 45.2954 0C44.3546 0 43.5481 -2.05288e-06 42.6073 0.134405C41.9353 0.268811 41.3977 0.403222 40.86 0.537628C40.4568 0.672035 40.0536 0.940846 39.6504 1.34407C39.2472 1.74729 38.9784 2.0161 38.7095 2.41932L30.3764 14.9191C29.57 16.1288 28.898 17.3385 28.2259 18.5481C27.6883 19.7578 27.1507 20.9674 26.8819 22.1771C26.4787 23.5211 26.2099 24.8652 26.0755 26.2093C25.9411 27.6878 25.8066 29.3006 25.8066 30.7791C25.8066 31.9888 25.9411 33.1984 26.2099 34.4081C26.4787 35.2145 26.8819 35.8866 27.5539 36.4242C28.2259 36.9618 29.1668 37.2306 29.9732 37.365C31.1829 37.4994 32.3925 37.6338 33.6022 37.6338C34.8118 37.6338 36.0214 37.6338 37.3655 37.365C38.3063 37.2306 39.2472 36.9618 40.0536 36.4242C40.7256 35.8866 41.2633 35.2145 41.5321 34.4081C41.9353 33.1984 42.0697 31.9888 42.0697 30.7791V20.5642L49.7308 2.68813C49.8652 2.28491 49.9996 1.88169 49.9996 1.47847C49.9996 1.07525 49.8652 0.806439 49.5964 0.672033Z" fill="white"/>
</svg>
