<svg width="112" height="112" viewBox="0 0 112 112" fill="none" xmlns="http://www.w3.org/2000/svg">
<path d="M60.5828 0.189617C61.6257 0.284425 62.3841 0.474041 62.8582 0.853274C63.3322 1.23251 63.5218 1.70655 63.5218 2.46501C63.5218 2.93906 63.3322 3.31829 63.0478 3.60271C62.7634 3.88714 62.3841 4.07676 61.8153 4.07676V4.17156C62.1945 4.26637 62.4789 4.36118 62.6686 4.5508C62.8582 4.74041 63.1426 4.93003 63.2374 5.21445C63.3322 5.49888 63.427 5.87811 63.3322 6.25735C63.2374 7.01581 62.953 7.48985 62.3841 7.86909C61.8153 8.24832 61.1516 8.34313 60.2983 8.24832L57.4541 7.96389L58.2126 0L60.5828 0.189617ZM58.8762 4.36118L58.5918 7.30024L60.2035 7.48985C60.962 7.58466 61.436 7.48985 61.7205 7.20543C62.0049 6.921 62.1945 6.63658 62.2893 6.16254C62.2893 5.7833 62.1945 5.40407 61.9101 5.11965C61.6257 4.74041 61.1516 4.64561 60.3932 4.5508L58.8762 4.36118ZM60.3932 3.69752C61.0568 3.79233 61.5309 3.69752 61.8153 3.50791C62.0997 3.31829 62.2893 3.03386 62.2893 2.55982C62.2893 2.08578 62.1945 1.80136 61.9101 1.51693C61.6257 1.32732 61.1516 1.1377 60.3932 1.04289L59.1607 0.948083L58.8762 3.50791L60.3932 3.69752Z" fill="white"/>
<path d="M72.3385 6.72849C72.1489 7.58177 71.7696 8.24542 71.3904 8.71947C70.9164 9.28831 70.4423 9.57274 69.7787 9.85716C69.115 10.0468 68.4514 10.0468 67.6929 9.85716C66.8396 9.66755 66.2708 9.28832 65.7967 8.81427C65.3227 8.34023 65.0383 7.77138 64.9434 7.10773C64.8486 6.44407 64.9434 5.6856 65.1331 4.83233C65.3227 3.97905 65.7019 3.31539 66.0811 2.84135C66.4604 2.36731 67.0292 1.98808 67.6929 1.79846C68.3565 1.60885 69.0202 1.60885 69.8735 1.79846C70.6319 1.98808 71.2956 2.36731 71.6748 2.84135C72.1489 3.31539 72.4333 3.88424 72.5281 4.5479C72.6229 5.21156 72.5281 5.87522 72.3385 6.72849ZM66.176 5.11675C65.8915 6.06483 65.8915 6.91811 66.176 7.58177C66.4604 8.24542 67.0292 8.71947 67.8825 8.90908C68.7358 9.19351 69.4942 9.00389 70.0631 8.52985C70.6319 8.05581 71.0112 7.39215 71.2956 6.34926C71.58 5.40118 71.58 4.5479 71.2956 3.88424C71.0112 3.22059 70.4423 2.74655 69.5891 2.55693C68.7358 2.36731 67.9773 2.46212 67.4085 2.84135C66.8396 3.31539 66.4604 4.07386 66.176 5.11675Z" fill="white"/>
<path d="M80.7768 10.5267C80.3976 11.2852 80.0183 11.854 79.4495 12.3281C78.8806 12.8021 78.3118 12.9917 77.6481 13.0865C76.9845 13.1813 76.3208 12.9917 75.5623 12.7073C74.8039 12.3281 74.3298 11.854 73.9506 11.38C73.5714 10.9059 73.3817 10.2423 73.4766 9.48383C73.4766 8.82017 73.6662 8.0617 74.0454 7.30324C74.4246 6.54477 74.8039 5.97592 75.3727 5.50188C75.8468 5.02784 76.4156 4.83822 77.0793 4.74341C77.7429 4.6486 78.4066 4.83822 79.165 5.12265C79.9235 5.50188 80.3976 5.88111 80.7768 6.44996C81.156 7.01881 81.3456 7.58766 81.2508 8.34613C81.3456 9.00978 81.156 9.76825 80.7768 10.5267ZM74.9935 7.77728C74.5194 8.72536 74.4246 9.48383 74.5194 10.2423C74.6143 11.0008 75.1831 11.4748 75.9416 11.854C76.7948 12.2333 77.5533 12.2333 78.1222 11.9488C78.7858 11.5696 79.2599 11.0008 79.7339 10.0527C80.2079 9.10459 80.3027 8.34613 80.2079 7.58766C80.1131 6.924 79.5443 6.35515 78.7858 5.97592C77.9325 5.59669 77.1741 5.59669 76.6052 5.88111C75.9416 6.26034 75.3727 6.82919 74.9935 7.77728Z" fill="white"/>
<path d="M85.138 18.3007L84.19 17.6371L84.0003 12.8019L82.8626 12.8967L81.0613 15.4565L80.208 14.8876L84.7588 8.15625L85.6121 8.7251L83.4315 12.1382C83.8107 12.0434 84.0951 11.9486 84.4744 11.8538C84.8536 11.759 85.138 11.6642 85.5173 11.5693L88.7408 10.8109L89.6888 11.4745L85.0432 12.6122L85.138 18.3007Z" fill="white"/>
<path d="M91.3948 24.3643L90.5415 23.511L92.2481 15.6419C92.0585 15.8315 91.8688 16.116 91.5844 16.4004C91.3 16.6848 91.0156 16.9692 90.7311 17.2537L87.5077 20.4772L86.844 19.8135L92.6273 14.125L93.4806 14.9783L91.774 22.7526C91.8688 22.6577 91.9636 22.5629 92.1533 22.3733C92.3429 22.1837 92.5325 21.9941 92.7221 21.8045C92.9117 21.6149 93.1013 21.4252 93.291 21.2356L96.5144 18.0121L97.1781 18.6758L91.3948 24.3643Z" fill="white"/>
<path d="M99.9274 29.1986C99.2637 29.6726 98.5052 29.957 97.8416 30.1467C97.1779 30.3363 96.5143 30.2415 95.9454 29.957C95.3766 29.6726 94.8077 29.1986 94.3337 28.5349C93.8596 27.8713 93.5752 27.2076 93.5752 26.5439C93.5752 25.8803 93.67 25.3114 94.0492 24.6478C94.4285 24.0789 94.9025 23.5101 95.661 23.036C96.3246 22.562 96.9883 22.2776 97.652 22.088C98.3156 21.9931 98.9793 21.9931 99.5481 22.2776C100.117 22.562 100.686 23.036 101.16 23.6997C101.634 24.3634 101.918 25.027 101.918 25.6907C101.918 26.3543 101.824 26.9232 101.444 27.5868C101.065 28.2505 100.591 28.7245 99.9274 29.1986ZM96.2298 23.9841C95.3766 24.553 94.8077 25.2166 94.6181 25.8803C94.4285 26.5439 94.5233 27.3024 95.0921 28.0609C95.661 28.8193 96.2298 29.1986 96.9883 29.1986C97.7468 29.1986 98.5052 28.9141 99.3585 28.3453C100.212 27.7764 100.781 27.1128 100.97 26.4491C101.16 25.7855 101.065 25.027 100.496 24.2685C99.9274 23.5101 99.3585 23.1308 98.6 23.1308C97.8416 23.036 97.0831 23.3205 96.2298 23.9841Z" fill="white"/>
<path d="M108.46 37.9261L100.117 39.2535L99.7378 38.3054L104.004 34.7027C104.194 34.513 104.383 34.4182 104.573 34.2286C104.763 34.039 104.952 33.9442 105.047 33.8494C105.142 33.7546 105.331 33.6598 105.331 33.6598C105.237 33.6598 105.047 33.7546 104.668 33.8494C104.289 33.9442 104.004 33.9442 103.625 34.039L98.1261 34.7975L97.7468 33.8494L104.289 28.4453L104.763 29.3934L100.686 32.5221C100.401 32.7117 100.117 32.9961 99.8326 33.1857C99.5482 33.3753 99.2638 33.565 99.0741 33.6598C99.3586 33.565 99.643 33.4701 100.022 33.4701C100.401 33.3753 100.686 33.3753 101.065 33.2805L106.09 32.6169L106.469 33.565L102.582 36.8832C102.298 37.1677 102.013 37.3573 101.729 37.5469C101.444 37.7365 101.16 37.9261 100.97 38.1158C101.255 38.0209 101.539 37.9261 101.918 37.9261C102.298 37.9261 102.582 37.8313 102.961 37.7365L107.986 36.8832L108.46 37.9261Z" fill="white"/>
<path d="M0.189617 50.5328C0.284425 49.4899 0.474041 48.7314 0.853274 48.2574C1.23251 47.7834 1.70655 47.5938 2.46501 47.5938C2.93906 47.5938 3.31829 47.7834 3.60271 48.0678C3.88714 48.3522 4.07676 48.7314 4.07676 49.3003H4.17156C4.26637 48.9211 4.36118 48.6366 4.5508 48.447C4.74041 48.1626 4.93003 47.973 5.21445 47.8782C5.49888 47.7834 5.87811 47.6886 6.25735 47.7834C7.01581 47.8782 7.48985 48.1626 7.86909 48.7314C8.24832 49.3003 8.34313 49.964 8.24832 50.8172L7.96389 53.6615L0 52.8082L0.189617 50.5328ZM3.69752 50.6276C3.79233 49.964 3.69752 49.4899 3.50791 49.2055C3.31829 48.9211 3.03386 48.7314 2.55982 48.7314C2.08578 48.7314 1.80136 48.8263 1.51693 49.1107C1.32732 49.3951 1.1377 49.8691 1.04289 50.6276L0.948083 51.8601L3.50791 52.1445L3.69752 50.6276ZM4.36118 52.2394L7.30024 52.5238L7.48985 50.912C7.58466 50.1536 7.48985 49.6795 7.20543 49.3951C6.921 49.1107 6.63658 48.8263 6.16254 48.8263C5.7833 48.8263 5.40407 48.9211 5.11965 49.2055C4.83522 49.4899 4.64561 49.964 4.5508 50.7224L4.36118 52.2394Z" fill="white"/>
<path d="M6.73142 38.6799C7.5847 38.8696 8.24835 39.2488 8.7224 39.628C9.29124 40.1021 9.57567 40.5761 9.8601 41.2398C10.1445 41.9034 10.0497 42.5671 9.8601 43.3255C9.67048 44.1788 9.29125 44.7477 8.8172 45.2217C8.34316 45.6957 7.77431 45.9802 7.11066 46.075C6.447 46.1698 5.68853 46.075 4.83526 45.8854C3.98198 45.6957 3.31832 45.3165 2.84428 44.9373C2.27543 44.5581 1.99101 43.9892 1.80139 43.3255C1.61178 42.6619 1.61178 41.9982 1.80139 41.145C1.8962 40.4813 2.27543 39.8176 2.74947 39.3436C3.22352 38.8696 3.79237 38.5851 4.45602 38.4903C5.11968 38.3955 5.87815 38.4903 6.73142 38.6799ZM5.11968 44.9373C6.06776 45.2217 6.92104 45.2217 7.5847 44.9373C8.24835 44.6529 8.7224 44.084 8.91201 43.2307C9.19644 42.3775 9.00682 41.619 8.53278 41.0501C8.05874 40.4813 7.39508 40.1021 6.35219 39.8176C5.40411 39.5332 4.55083 39.5332 3.88717 39.8176C3.22352 40.1021 2.74947 40.6709 2.55986 41.5242C2.37024 42.3775 2.46505 43.0411 2.93909 43.61C3.31832 44.1788 4.07679 44.6529 5.11968 44.9373Z" fill="white"/>
<path d="M10.5238 30.2471C11.2823 30.6264 11.8511 31.0056 12.3251 31.5745C12.7992 32.1433 12.9888 32.7122 13.0836 33.3758C13.1784 34.0395 12.9888 34.7031 12.7044 35.4616C12.3251 36.2201 11.8511 36.7889 11.3771 37.1681C10.903 37.5474 10.2394 37.737 9.4809 37.6422C8.81724 37.6422 8.05877 37.4526 7.30031 37.0733C6.54184 36.6941 5.97299 36.3149 5.49895 35.746C5.02491 35.272 4.83529 34.6083 4.74048 34.0395C4.64567 33.3758 4.83529 32.7122 5.11972 31.9537C5.49895 31.1952 5.87818 30.7212 6.44703 30.342C7.01588 29.9627 7.58473 29.7731 8.3432 29.8679C9.10166 29.9627 9.76532 29.8679 10.5238 30.2471ZM7.77435 36.1253C8.72243 36.5993 9.4809 36.6941 10.2394 36.5993C10.9978 36.5045 11.4719 35.9356 11.9459 35.1772C12.3251 34.3239 12.3251 33.5654 12.0407 32.9966C11.6615 32.3329 11.0926 31.8589 10.1446 31.3848C9.19647 30.9108 8.43801 30.816 7.67954 30.9108C7.01588 31.0056 6.44703 31.5745 6.0678 32.3329C5.68857 33.1862 5.68857 33.9447 5.97299 34.5135C6.25742 35.0824 6.82626 35.6512 7.77435 36.1253Z" fill="white"/>
<path d="M18.2985 25.8857L17.6349 26.8338L12.7997 27.0234L12.8945 28.1611L15.4543 29.9624L14.8854 30.8157L8.15405 26.2649L8.7229 25.4116L12.0412 27.687C11.9464 27.3078 11.8516 27.0234 11.7568 26.6441C11.662 26.2649 11.5672 25.9805 11.4723 25.6013L10.7139 22.3778L11.3775 21.4297L12.5152 26.0753L18.2985 25.8857Z" fill="white"/>
<path d="M24.366 19.7208L23.5127 20.5741L15.6436 18.8675C15.8333 19.0571 16.1177 19.2468 16.4021 19.5312C16.6865 19.8156 16.971 20.1 17.2554 20.3845L20.4789 23.6079L19.8152 24.2716L14.1267 18.4883L14.98 17.635L22.7543 19.3416C22.6595 19.2468 22.5646 19.152 22.375 18.9623C22.1854 18.7727 21.9958 18.5831 21.8062 18.3935C21.6166 18.2039 21.4269 18.0143 21.2373 17.8246L18.0138 14.6012L18.6775 13.9375L24.366 19.7208Z" fill="white"/>
<path d="M29.2017 11.0925C29.6757 11.7562 29.9602 12.5147 30.1498 13.1783C30.3394 13.842 30.2446 14.5056 29.9602 15.0745C29.6757 15.6433 29.2017 16.2122 28.538 16.6862C27.8744 17.1603 27.2107 17.4447 26.5471 17.4447C25.8834 17.4447 25.3146 17.3499 24.6509 16.9706C24.0821 16.5914 23.5132 16.1174 23.0392 15.3589C22.5651 14.6953 22.2807 14.0316 22.0911 13.3679C21.9015 12.7043 21.9963 12.0406 22.2807 11.4718C22.5651 10.9029 23.0392 10.3341 23.7028 9.86003C24.3665 9.38599 25.0301 9.10156 25.6938 9.10156C26.3575 9.10156 26.9263 9.19637 27.59 9.5756C28.1588 9.86003 28.7277 10.4289 29.2017 11.0925ZM23.9872 14.7901C24.5561 15.6433 25.2198 16.2122 25.8834 16.4018C26.5471 16.5914 27.3055 16.4966 28.064 15.9278C28.8225 15.3589 29.2017 14.7901 29.2017 14.0316C29.2017 13.2731 28.9173 12.5147 28.3484 11.6614C27.7796 10.8081 27.1159 10.2393 26.4523 10.0496C25.7886 9.86003 25.0301 9.95484 24.2717 10.5237C23.5132 11.0925 23.134 11.6614 23.134 12.4199C23.0392 13.1783 23.3236 13.9368 23.9872 14.7901Z" fill="white"/>
<path d="M37.9232 2.65625L39.2505 10.9994L38.3024 11.3786L34.6997 7.11224C34.5101 6.92262 34.4153 6.73301 34.2257 6.54339C34.0361 6.35377 33.9413 6.16416 33.8465 6.06935C33.7516 5.97454 33.6568 5.78492 33.6568 5.78492C33.6568 5.87973 33.7516 6.06935 33.8465 6.44858C33.9413 6.82781 33.9413 7.11224 34.0361 7.49147L34.7945 12.9904L33.8465 13.3696L28.4424 6.73301L29.3905 6.25896L32.5191 10.3357C32.7088 10.6201 32.9932 10.9046 33.1828 11.189C33.3724 11.4734 33.562 11.7578 33.6568 11.9475C33.562 11.663 33.4672 11.3786 33.4672 10.9994C33.3724 10.6201 33.3724 10.3357 33.2776 9.95649L32.6139 4.93165L33.562 4.55242L36.9751 8.43955C37.2596 8.72398 37.4492 9.0084 37.6388 9.29283C37.8284 9.57725 38.018 9.86168 38.2076 10.0513C38.1128 9.76687 38.018 9.48245 38.018 9.10321C38.018 8.72398 37.9232 8.43955 37.8284 8.06032L36.9751 3.03548L37.9232 2.65625Z" fill="white"/>
<path d="M50.5328 110.835C49.4899 110.74 48.7314 110.551 48.2574 110.171C47.7834 109.792 47.5938 109.318 47.5938 108.56C47.5938 108.086 47.7834 107.706 48.0678 107.422C48.3522 107.138 48.7314 106.948 49.3003 106.948V106.853C48.9211 106.758 48.6366 106.664 48.447 106.474C48.1626 106.284 47.973 106.095 47.8782 105.81C47.7834 105.526 47.6886 105.147 47.7834 104.767C47.8782 104.009 48.1626 103.535 48.7314 103.156C49.3003 102.776 49.964 102.682 50.8172 102.776L53.6615 103.061L52.903 111.12L50.5328 110.835ZM50.6276 107.327C49.964 107.232 49.4899 107.327 49.2055 107.517C48.9211 107.706 48.7314 107.991 48.7314 108.465C48.7314 108.939 48.8263 109.223 49.1107 109.508C49.3951 109.697 49.8691 109.887 50.6276 109.982L51.9549 110.077L52.2394 107.517L50.6276 107.327ZM52.2394 106.664L52.5238 103.724L50.912 103.535C50.1536 103.44 49.6795 103.535 49.3951 103.819C49.1107 104.104 48.9211 104.388 48.8263 104.862C48.8263 105.241 48.9211 105.621 49.2055 105.905C49.4899 106.189 49.964 106.379 50.7224 106.474L52.2394 106.664Z" fill="white"/>
<path d="M38.6819 104.294C38.8715 103.441 39.2507 102.777 39.63 102.303C40.104 101.735 40.5781 101.45 41.2417 101.166C41.9054 100.976 42.569 100.976 43.3275 101.166C44.1808 101.355 44.7496 101.735 45.2237 102.209C45.6977 102.683 45.9821 103.251 46.0769 103.915C46.1717 104.579 46.0769 105.337 45.8873 106.19C45.6977 106.949 45.3185 107.707 44.9392 108.181C44.56 108.75 43.9912 109.035 43.3275 109.224C42.6638 109.414 42.0002 109.414 41.1469 109.224C40.3884 109.035 39.7248 108.656 39.3455 108.181C38.8715 107.707 38.5871 107.139 38.4923 106.475C38.3975 105.811 38.4923 105.148 38.6819 104.294ZM44.9392 106.001C45.2237 105.053 45.2237 104.2 44.9392 103.536C44.6548 102.872 44.086 102.398 43.2327 102.209C42.3794 101.924 41.6209 102.114 41.0521 102.588C40.4832 103.062 40.104 103.725 39.8196 104.768C39.5352 105.716 39.5352 106.57 39.8196 107.233C40.104 107.897 40.6729 108.371 41.5261 108.561C42.3794 108.75 43.1379 108.656 43.7067 108.276C44.1808 107.707 44.6548 106.949 44.9392 106.001Z" fill="white"/>
<path d="M30.2435 100.592C30.6227 99.8338 31.0019 99.265 31.5708 98.7909C32.1396 98.3169 32.7085 98.1273 33.3722 98.0325C34.0358 97.9377 34.6995 98.1273 35.4579 98.4117C36.2164 98.7909 36.7853 99.265 37.1645 99.739C37.5437 100.308 37.7333 100.877 37.6385 101.635C37.6385 102.299 37.4489 103.057 37.0697 103.816C36.6904 104.574 36.3112 105.143 35.7424 105.617C35.2683 106.091 34.6047 106.281 34.0358 106.376C33.3722 106.47 32.7085 106.281 31.95 105.996C31.1916 105.617 30.7175 105.238 30.3383 104.669C29.9591 104.1 29.7694 103.531 29.8642 102.773C29.9591 102.014 29.8642 101.351 30.2435 100.592ZM36.1216 103.247C36.5956 102.299 36.6904 101.54 36.5956 100.782C36.5008 100.023 35.932 99.5494 35.1735 99.1702C34.3202 98.7909 33.5618 98.7909 32.9929 99.0754C32.3293 99.4546 31.8552 100.023 31.3812 100.972C30.9071 101.92 30.8123 102.678 30.9071 103.437C31.0019 104.1 31.5708 104.669 32.3293 105.048C33.1825 105.428 33.941 105.428 34.5099 105.143C35.0787 104.859 35.6476 104.195 36.1216 103.247Z" fill="white"/>
<path d="M25.882 92.7266L26.8301 93.3902L27.0197 98.2254L28.1574 98.1306L29.9588 95.5708L30.812 96.1397L26.2612 102.871L25.408 102.302L27.6834 98.9839C27.3041 99.0787 27.0197 99.1735 26.6405 99.2683C26.2612 99.3631 25.9768 99.4579 25.5976 99.5528L22.3741 100.311L21.426 99.6476L26.0716 98.5099L25.882 92.7266Z" fill="white"/>
<path d="M19.7198 86.75L20.5731 87.6033L18.8666 95.4724C19.0562 95.2827 19.2458 94.9983 19.5302 94.7139C19.8146 94.4295 20.0991 94.145 20.3835 93.8606L23.607 90.6371L24.2706 91.3008L18.4873 96.9893L17.634 96.136L19.3406 88.3617C19.2458 88.4565 19.151 88.5514 18.9614 88.741C18.7717 88.9306 18.5821 89.1202 18.3925 89.3098C18.2029 89.4994 18.0133 89.6891 17.8237 89.8787L14.6002 93.1022L13.9365 92.4385L19.7198 86.75Z" fill="white"/>
<path d="M11.0925 81.8202C11.7562 81.3461 12.5147 81.0617 13.1783 80.8721C13.842 80.6825 14.5056 80.7773 15.0745 81.0617C15.6433 81.3461 16.2122 81.8202 16.6862 82.4838C17.1603 83.1475 17.4447 83.8111 17.4447 84.4748C17.4447 85.1385 17.3499 85.7073 16.9706 86.371C16.5914 86.9398 16.1174 87.5087 15.3589 87.9827C14.6953 88.4567 14.0316 88.7412 13.3679 88.9308C12.7043 89.1204 12.0406 89.0256 11.4718 88.7412C10.9029 88.4567 10.3341 87.9827 9.86003 87.319C9.38599 86.6554 9.10156 85.9917 9.10156 85.3281C9.10156 84.6644 9.19637 84.0956 9.5756 83.4319C9.95484 82.7683 10.4289 82.2942 11.0925 81.8202ZM14.7901 87.1294C15.6433 86.5606 16.2122 85.8969 16.4018 85.2333C16.5914 84.5696 16.4966 83.8111 15.9278 83.0527C15.3589 82.2942 14.7901 81.915 14.0316 81.915C13.2731 81.915 12.5147 82.1994 11.6614 82.7683C10.8081 83.3371 10.2393 84.0008 10.0496 84.6644C9.86003 85.3281 9.95484 86.0865 10.5237 86.845C11.0925 87.6035 11.6614 87.9827 12.4199 87.9827C13.1783 87.9827 13.9368 87.6983 14.7901 87.1294Z" fill="white"/>
<path d="M2.65405 73.1945L10.9972 71.8672L11.3764 72.8153L7.11004 76.418C6.92042 76.6076 6.73081 76.7024 6.54119 76.892C6.35158 77.0816 6.16196 77.1764 6.06715 77.2713C5.97234 77.3661 5.78273 77.4609 5.78273 77.4609C5.87753 77.4609 6.06715 77.3661 6.44638 77.2713C6.82562 77.1764 7.11004 77.1765 7.48927 77.0816L12.9882 76.3232L13.3674 77.2713L6.82562 82.4857L6.35157 81.5376L10.4283 78.409C10.7128 78.2193 10.9972 77.9349 11.2816 77.7453C11.566 77.5557 11.8505 77.3661 12.0401 77.2713C11.7556 77.3661 11.4712 77.4609 11.092 77.4609C10.7128 77.5557 10.4283 77.5557 10.0491 77.6505L5.02426 78.3141L4.64503 77.3661L8.53217 74.0478C8.81659 73.7633 9.10101 73.5737 9.38544 73.3841C9.66986 73.1945 9.95429 73.0049 10.1439 72.8153C9.85948 72.9101 9.57506 73.0049 9.19582 73.0049C8.81659 73.0049 8.53217 73.0997 8.15293 73.1945L3.12809 74.0478L2.65405 73.1945Z" fill="white"/>
<path d="M110.831 60.5818C110.736 61.6247 110.547 62.3832 110.168 62.8572C109.788 63.3312 109.314 63.5209 108.556 63.5209C108.082 63.5209 107.703 63.3312 107.418 63.0468C107.134 62.7624 106.944 62.3832 106.944 61.8143H106.849C106.754 62.1935 106.66 62.478 106.47 62.6676C106.28 62.952 106.091 63.1416 105.806 63.2364C105.522 63.3312 105.143 63.426 104.763 63.3312C104.005 63.2364 103.531 62.952 103.152 62.3832C102.772 61.8143 102.678 61.1506 102.772 60.2974L103.057 57.4531L111.116 58.2116L110.831 60.5818ZM106.66 58.8752L103.721 58.5908L103.531 60.2026C103.436 60.961 103.531 61.4351 103.815 61.7195C104.1 62.0039 104.384 62.1935 104.858 62.2883C105.237 62.2883 105.617 62.1935 105.901 61.9091C106.186 61.6247 106.375 61.1506 106.47 60.3922L106.66 58.8752ZM107.323 60.3922C107.228 61.0558 107.323 61.5299 107.513 61.8143C107.703 62.0987 107.987 62.2883 108.461 62.2883C108.935 62.2883 109.219 62.1935 109.504 61.9091C109.693 61.6247 109.883 61.1506 109.978 60.3922L110.073 59.0649L107.513 58.7804L107.323 60.3922Z" fill="white"/>
<path d="M104.289 72.3385C103.435 72.1489 102.772 71.7696 102.298 71.3904C101.729 70.9164 101.444 70.4423 101.16 69.7787C100.97 69.115 100.97 68.4514 101.16 67.6929C101.35 66.8396 101.729 66.2708 102.203 65.7967C102.677 65.3227 103.246 65.0383 103.909 64.9434C104.573 64.8486 105.332 64.9434 106.185 65.1331C106.943 65.3227 107.702 65.7019 108.176 66.0811C108.65 66.4604 109.029 67.0292 109.219 67.6929C109.408 68.3565 109.408 69.0202 109.219 69.8735C109.029 70.6319 108.65 71.2956 108.176 71.6748C107.702 72.1489 107.133 72.4333 106.469 72.5281C105.806 72.6229 105.142 72.5281 104.289 72.3385ZM105.995 66.176C105.047 65.8915 104.194 65.8915 103.53 66.176C102.867 66.4604 102.393 67.0292 102.203 67.8825C101.919 68.7358 102.108 69.4942 102.582 70.0631C103.056 70.6319 103.72 71.0112 104.763 71.2956C105.711 71.58 106.564 71.58 107.228 71.2956C107.891 71.0112 108.365 70.4423 108.555 69.5891C108.745 68.7358 108.65 67.9773 108.271 67.4085C107.702 66.8396 106.943 66.4604 105.995 66.176Z" fill="white"/>
<path d="M100.592 80.7786C99.8333 80.3993 99.2645 80.0201 98.7904 79.4513C98.3164 78.8824 98.1268 78.3136 98.032 77.6499C97.9372 76.9862 98.1268 76.3226 98.4112 75.5641C98.7905 74.8057 99.2645 74.2368 99.7385 73.8576C100.307 73.4783 100.876 73.2887 101.635 73.3835C102.298 73.3835 103.057 73.5732 103.815 73.9524C104.574 74.3316 105.143 74.7109 105.617 75.2797C106.091 75.7537 106.28 76.4174 106.375 76.9862C106.47 77.6499 106.28 78.3136 105.996 79.072C105.617 79.8305 105.237 80.3045 104.669 80.6838C104.1 81.063 103.531 81.2526 102.772 81.1578C102.014 81.063 101.35 81.1578 100.592 80.7786ZM103.246 74.9953C102.298 74.5212 101.54 74.4264 100.781 74.5212C100.023 74.616 99.5489 75.1849 99.1697 75.9434C98.7904 76.7966 98.7905 77.5551 99.0749 78.1239C99.4541 78.7876 100.023 79.2616 100.971 79.7357C101.919 80.2097 102.678 80.3045 103.436 80.2097C104.1 80.1149 104.669 79.5461 105.048 78.7876C105.427 77.9343 105.427 77.1759 105.143 76.607C104.858 75.9434 104.195 75.3745 103.246 74.9953Z" fill="white"/>
<path d="M92.7229 85.141L93.3866 84.1929L98.2218 84.0033L98.127 82.8656L95.5671 81.0642L96.136 80.2109L102.867 84.7617L102.299 85.615L98.9802 83.3396C99.0751 83.7188 99.1699 84.0033 99.2647 84.3825C99.3595 84.7617 99.4543 85.0462 99.5491 85.4254L100.308 88.6489L99.6439 89.597L98.5062 84.9514L92.7229 85.141Z" fill="white"/>
<path d="M86.7495 91.3945L87.6028 90.5413L95.4719 92.2478C95.2823 92.0582 94.9978 91.8686 94.7134 91.5842C94.429 91.2997 94.1446 91.0153 93.8601 90.7309L90.6366 87.5074L91.3003 86.8438L96.9888 92.6271L96.1355 93.4803L88.3612 91.7738C88.4561 91.8686 88.5509 91.9634 88.7405 92.153C88.9301 92.3426 89.1197 92.5323 89.3093 92.7219C89.4989 92.9115 89.6886 93.1011 89.8782 93.2907L93.1017 96.5142L92.438 97.1779L86.7495 91.3945Z" fill="white"/>
<path d="M81.8194 99.9303C81.3454 99.2666 81.061 98.5082 80.8714 97.8445C80.6817 97.1808 80.7765 96.5172 81.061 95.9483C81.3454 95.3795 81.8194 94.8106 82.4831 94.3366C83.1468 93.8626 83.8104 93.5781 84.4741 93.5781C85.1377 93.5781 85.7066 93.6729 86.3702 94.0522C86.9391 94.4314 87.5079 94.9054 87.982 95.6639C88.456 96.3276 88.7404 96.9912 88.9301 97.6549C89.1197 98.3185 89.0249 98.9822 88.7404 99.551C88.456 100.12 87.982 100.689 87.3183 101.163C86.6547 101.637 85.991 101.921 85.3273 101.921C84.6637 101.921 84.0948 101.826 83.4312 101.447C82.7675 101.068 82.2935 100.594 81.8194 99.9303ZM87.1287 96.2328C86.5598 95.3795 85.8962 94.8106 85.2325 94.621C84.5689 94.4314 83.8104 94.5262 83.0519 95.0951C82.2935 95.6639 81.9142 96.2328 81.9142 96.9912C81.9142 97.7497 82.1987 98.5082 82.7675 99.3614C83.3364 100.215 84 100.784 84.6637 100.973C85.3273 101.163 86.0858 101.068 86.8443 100.499C87.6027 99.9303 87.982 99.3614 87.982 98.603C87.982 97.8445 87.6975 97.086 87.1287 96.2328Z" fill="white"/>
<path d="M73.1918 108.463L71.8645 100.12L72.8126 99.741L76.4153 104.007C76.6049 104.197 76.6997 104.387 76.8893 104.576C77.079 104.766 77.1738 104.955 77.2686 105.05C77.3634 105.145 77.4582 105.335 77.4582 105.335C77.4582 105.24 77.3634 105.05 77.2686 104.671C77.1738 104.292 77.1738 104.007 77.079 103.628L76.3205 98.1292L77.2686 97.75L82.483 104.292L81.5349 104.766L78.4063 100.689C78.2166 100.405 77.9322 100.12 77.7426 99.8358C77.553 99.5514 77.3634 99.2669 77.2686 99.0773C77.3634 99.3617 77.4582 99.6462 77.4582 100.025C77.553 100.405 77.553 100.689 77.6478 101.068L78.3115 106.093L77.3634 106.472L74.0451 102.585C73.7607 102.301 73.571 102.016 73.3814 101.732C73.1918 101.448 73.0022 101.163 72.8126 100.973C72.9074 101.258 73.0022 101.542 73.0022 101.922C73.0022 102.301 73.097 102.585 73.1918 102.964L74.0451 107.989L73.1918 108.463Z" fill="white"/>
</svg>
