<svg width="124" height="40" viewBox="0 0 124 40" fill="none" xmlns="http://www.w3.org/2000/svg">
<path fill-rule="evenodd" clip-rule="evenodd" d="M16.8193 0.570312H21.6651V6.27187H26.5108V9.69239H21.6651V18.2437C21.6651 20.239 21.6651 21.3798 23.3753 21.3798H26.7958V24.8004C25.3706 25.0854 24.5155 25.0854 23.0903 25.0854C17.1044 25.0854 16.8193 23.0901 16.8193 19.6682V0.570312ZM31.0722 6.27117H35.9179V9.69168H36.2029C37.3438 7.69638 39.3391 5.70108 43.0447 5.70108C43.8998 5.70108 44.4699 5.70108 45.04 5.98613V10.5468C43.6148 10.2618 42.7596 10.2618 41.9045 10.2618C39.3391 10.2618 35.9186 11.4019 35.9186 15.6783V24.8004H31.0729L31.0722 6.27117ZM62.1432 17.3878C62.1432 21.3791 57.8669 22.2336 55.3022 22.2336C53.592 22.2336 51.3116 21.9485 51.3116 19.3838C51.3116 17.9579 52.1668 17.1028 55.8723 16.5327C59.2935 16.2477 60.7187 15.9626 62.144 15.3925V17.3878H62.1432ZM66.9897 11.687C66.9897 9.40664 66.7046 5.41534 57.0118 5.41534C51.596 5.41534 47.8897 6.84055 47.3203 11.9713H51.881C52.166 9.69098 53.8763 8.83585 57.0118 8.83585C59.8622 8.83585 62.4276 9.40594 62.4276 11.4012C62.4276 12.8264 61.5725 13.1115 54.7314 13.6816C51.596 13.9666 46.1794 14.5367 46.1794 19.6668C46.1794 23.3737 49.0299 25.369 53.8756 25.369C59.2921 25.369 61.5725 23.6588 62.7126 22.8029C62.7126 23.6588 62.9977 25.369 66.1331 25.369C67.8434 25.369 68.6992 25.084 69.5537 24.7982V21.3777C69.2686 21.3777 68.4142 21.6614 68.1284 21.6614C67.8427 21.6614 66.989 21.3777 66.989 20.5219V11.687H66.9897ZM69.5544 6.27117H74.9716L80.3874 19.9532L86.0882 6.27117H91.7891L83.2371 24.7997H77.8213L69.5544 6.27117ZM97.775 13.6823C98.6308 9.69169 101.766 8.83585 104.047 8.83585C106.328 8.83585 109.462 9.97602 110.318 13.6823H97.775ZM115.163 16.5334V15.9626C115.163 10.5468 112.029 5.41534 103.762 5.41534C97.2049 5.41534 92.6449 9.40593 92.6449 15.6776C92.6449 20.5233 95.7797 25.3697 104.047 25.3697C111.173 25.3697 113.738 21.3791 114.88 19.3838H109.462C108.608 20.8091 107.182 21.9485 104.047 21.9485C99.2002 21.9485 97.775 18.8138 97.775 16.5327L115.163 16.5334ZM119.154 0.570312H124V24.7997H119.154V0.570312Z" fill="#0093BF"/>
<path fill-rule="evenodd" clip-rule="evenodd" d="M5.70156 13.1127C5.70156 14.5379 4.56139 15.9631 2.85113 15.9631C1.14088 15.9631 0 14.5379 0 13.1127C0 11.4024 1.14017 9.9772 2.85113 9.9772C4.56139 9.9772 5.70156 11.4024 5.70156 13.1127ZM5.70156 2.85043C5.70156 4.56068 4.56139 5.70156 2.85113 5.70156C1.14088 5.70156 0 4.56139 0 2.85043C0 1.42521 1.14017 0 2.85113 0C4.56139 0 5.70156 1.42521 5.70156 2.85043ZM14.2535 7.98191C14.2535 9.40712 13.1134 10.8323 11.4031 10.8323C9.69286 10.8323 8.55269 9.40712 8.55269 7.98191C8.55269 6.27165 9.69286 5.13148 11.4031 5.13148C13.1134 5.13148 14.2535 6.27165 14.2535 7.98191ZM61.8578 36.2018C61.0034 38.7679 59.2924 39.9074 57.0121 39.9074C53.3065 39.9074 51.8813 37.3427 51.8813 35.0624C51.8813 32.2112 53.5916 29.9309 57.0121 29.9309C59.2924 29.9309 61.2884 31.0718 61.5728 33.3528H59.8625C59.5775 32.212 58.7223 31.3575 57.0121 31.3575C54.7317 31.3575 53.8766 32.7827 53.8766 34.778C53.8766 36.7733 54.7317 38.4836 57.0121 38.4836C58.7223 38.4836 59.5775 37.6278 59.8625 36.2033H61.8578V36.2018ZM63.5681 27.3662H65.2783V31.6412C66.1341 30.2159 67.5587 29.9309 68.9853 29.9309C71.2642 29.9309 72.9759 30.7867 72.9759 33.0671V39.6238H71.2642V33.6365C71.2642 32.2112 70.4098 31.3575 68.4145 31.3575C66.7042 31.3575 65.2783 32.2119 65.2783 34.2072V39.6245H63.5681V27.3662ZM82.3823 35.9168C82.3823 37.3427 80.672 38.4829 78.6767 38.4829C77.5359 38.4829 76.6814 37.9121 76.6814 37.0577C76.6814 35.9168 77.2508 35.6325 78.6767 35.3474H80.672C81.8115 35.0624 82.0972 35.0624 82.3823 34.7766V35.9168ZM76.9665 33.0671C76.9665 31.6412 78.1059 31.3568 79.8162 31.3568C81.2414 31.3568 82.3823 31.6405 82.3823 32.782C82.3823 33.6365 81.8115 33.9215 80.9571 33.9215L78.6767 34.2065C75.8256 34.4916 74.6861 35.3474 74.6861 37.0577C74.6861 38.1971 75.5406 39.9074 78.6767 39.9074C80.102 39.9074 81.8115 39.338 82.6673 38.1971C82.6673 39.338 83.2367 39.6231 84.0926 39.6231H85.5178V38.1971C85.2327 38.1971 84.9484 38.4822 84.9484 38.4822C84.3776 38.4822 84.0926 38.1971 84.0926 37.6264V32.4963C84.0926 30.501 81.8122 29.9302 79.8162 29.9302C76.9665 29.9302 75.5399 30.786 75.2548 33.0664L76.9665 33.0671ZM86.943 30.2159H88.6532V31.6412C89.5077 30.2159 90.9336 29.9309 92.3588 29.9309C94.6391 29.9309 96.3494 30.7867 96.3494 33.0671V39.6238H94.3541V33.6365C94.3541 32.2112 93.4982 31.3575 91.788 31.3575C90.0777 31.3575 88.6532 32.2119 88.6532 34.2072V39.6245H86.943V30.2159ZM98.6304 30.2159H100.341V31.6412C101.195 30.2159 102.621 29.9309 104.046 29.9309C106.327 29.9309 107.752 30.7867 107.752 33.0671V39.6238H106.042V33.6365C106.042 32.2112 105.186 31.3575 103.475 31.3575C101.765 31.3575 100.341 32.2119 100.341 34.2072V39.6245H98.6304V30.2159ZM111.742 33.9215C112.027 32.4963 113.453 31.3568 115.163 31.3568C116.875 31.3568 118.014 32.2112 118.299 33.9215H111.742ZM120.294 35.3481V35.0631C120.294 31.3575 117.728 29.9316 115.163 29.9316C111.457 29.9316 109.747 32.2119 109.747 34.778C109.747 37.6278 111.457 39.9081 115.163 39.9081C116.875 39.9081 119.153 39.0537 120.009 36.7733H118.014C117.443 37.9128 116.019 38.4836 115.163 38.4836C113.453 38.4836 111.742 37.3441 111.742 35.3488H120.294V35.3481ZM122.29 27.3662H124V39.6238H122.29V27.3662Z" fill="#E09142"/>
</svg>
