<svg width="124" height="49" viewBox="0 0 124 49" fill="none" xmlns="http://www.w3.org/2000/svg">
<path d="M27.9774 8.73257C27.0032 7.27119 25.8251 5.95665 24.4789 4.82883C24.0753 5.28444 23.6405 5.7504 23.2472 6.22672C21.8058 7.92109 20.8728 9.9888 20.5561 12.1911C18.9357 12.2352 17.3266 12.4751 15.7637 12.9055C15.6395 8.34944 21.3013 -0.793803 23.9821 0.0552866C26.3731 0.831893 28.8987 3.24455 31.2275 6.49594C31.3517 6.69268 31.7244 7.27255 31.8589 7.53142C30.4984 7.60961 29.1802 8.03371 28.0292 8.76363L27.9774 8.73257Z" fill="#FBB040"/>
<path d="M63.8628 12.7479C64.5013 12.7465 65.1328 12.8806 65.7156 13.1414C66.294 13.3965 66.8258 13.7464 67.2889 14.1769C67.7291 14.6323 68.0802 15.1661 68.324 15.7508C68.5888 16.3508 68.7229 17.0003 68.7173 17.6561V21.9637C68.7222 22.0457 68.7079 22.1277 68.6755 22.2032C68.6432 22.2787 68.5937 22.3456 68.531 22.3986C68.4754 22.4589 68.4083 22.5074 68.3336 22.5412C68.2589 22.575 68.1782 22.5934 68.0962 22.5953C67.9252 22.5891 67.7626 22.5189 67.6408 22.3986C67.5852 22.3411 67.5418 22.2729 67.5133 22.1981C67.4849 22.1234 67.4719 22.0436 67.4752 21.9637V20.7107C67.0039 21.2211 66.4556 21.6543 65.8502 21.9947C65.2219 22.3603 64.5068 22.5499 63.78 22.5435C63.1237 22.5543 62.4722 22.431 61.8652 22.1811C61.2915 21.9343 60.7686 21.5832 60.3229 21.1456C59.8721 20.7069 59.5193 20.1775 59.2879 19.5924C59.0135 18.9733 58.8758 18.3022 58.8842 17.625C58.883 16.9774 59.0133 16.3362 59.2672 15.7405C59.5034 15.1579 59.8556 14.6295 60.3022 14.1872C60.7556 13.7445 61.2897 13.393 61.8755 13.1518C62.4931 12.8807 63.1576 12.7329 63.8318 12.7169M60.1573 17.6457C60.1476 18.1246 60.2342 18.6005 60.412 19.0453C60.5898 19.49 60.8552 19.8944 61.1924 20.2344C61.5228 20.5637 61.9127 20.8272 62.3413 21.011C62.7893 21.2032 63.2719 21.3019 63.7593 21.301C64.2399 21.3189 64.7191 21.2379 65.167 21.0628C65.5943 20.8764 65.9837 20.6132 66.3159 20.2862C66.6493 19.9548 66.9194 19.5653 67.1129 19.1368C67.3052 18.6719 67.4205 18.1788 67.4545 17.6768C67.4498 16.7139 67.0798 15.7886 66.4194 15.0881C66.0787 14.7619 65.6827 14.4989 65.2498 14.3115C64.7999 14.1266 64.3182 14.0316 63.8318 14.0319C63.345 14.0274 62.8624 14.1226 62.4138 14.3115C61.9872 14.4991 61.598 14.7622 61.2648 15.0881C60.9246 15.4217 60.6538 15.8194 60.4678 16.2582C60.283 16.7083 60.1881 17.1902 60.1884 17.6768L60.1573 17.6457ZM71.2118 17.6768C71.2108 17.0359 71.3411 16.4015 71.5947 15.8129C71.8354 15.2266 72.1868 14.6922 72.6298 14.239C73.5358 13.326 74.7598 12.799 76.0455 12.7686C76.2385 12.7629 76.4267 12.8294 76.5734 12.955C76.6926 13.0767 76.7594 13.2403 76.7597 13.4106C76.7535 13.5798 76.6875 13.7413 76.5734 13.8662C76.4216 13.9804 76.2353 14.0389 76.0455 14.0319C75.5694 14.0426 75.1007 14.1519 74.6689 14.3529C74.2434 14.537 73.857 14.8006 73.5303 15.1295C73.2045 15.4628 72.9415 15.8522 72.754 16.2789C72.5839 16.7253 72.4962 17.199 72.4952 17.6768V22.0258C72.4929 22.1957 72.4263 22.3585 72.3089 22.4814C72.2494 22.5414 72.1784 22.5888 72.1001 22.6208C72.0219 22.6528 71.938 22.6688 71.8535 22.6678C71.7722 22.6678 71.6918 22.6513 71.617 22.6192C71.5423 22.5872 71.4749 22.5403 71.4188 22.4814C71.3538 22.4252 71.3023 22.3551 71.2682 22.2762C71.2342 22.1972 71.2184 22.1117 71.2221 22.0258L71.2118 17.6768ZM82.2869 12.7894C82.9324 12.785 83.5712 12.9192 84.1604 13.1828C84.7347 13.4284 85.2579 13.7796 85.7026 14.2183C86.1482 14.6654 86.5001 15.197 86.7377 15.7819C87.0088 16.3838 87.1465 17.0373 87.1414 17.6975V21.9844C87.1352 22.1535 87.0691 22.315 86.955 22.44C86.8322 22.5574 86.6695 22.624 86.4996 22.6264C86.4155 22.6295 86.3316 22.6148 86.2534 22.5834C86.1753 22.5519 86.1046 22.5044 86.0461 22.4439C85.9875 22.3833 85.9423 22.3111 85.9134 22.2319C85.8846 22.1528 85.8727 22.0684 85.8786 21.9844V20.7418C85.4125 21.2633 84.8634 21.7042 84.2535 22.0465C83.6216 22.4007 82.9078 22.5828 82.1834 22.5746C81.5307 22.5826 80.8831 22.4593 80.2789 22.2122C79.7029 21.964 79.1769 21.6131 78.7263 21.1767C78.2799 20.7383 77.9277 20.2132 77.6913 19.6338C77.4272 19.0191 77.2933 18.3563 77.2979 17.6872C77.2976 17.0306 77.4241 16.3801 77.6706 15.7715C77.9278 15.2035 78.2776 14.6821 78.7056 14.2287C79.1636 13.7967 79.6922 13.4464 80.2686 13.1932C80.8935 12.9354 81.5596 12.7916 82.2352 12.7686M78.6228 17.7389C78.621 18.2267 78.7197 18.7096 78.9126 19.1575C79.0855 19.5847 79.3385 19.9748 79.6579 20.3069C79.984 20.6462 80.3794 20.9111 80.8171 21.0835C81.2591 21.2822 81.7405 21.3778 82.2248 21.3631C82.7 21.3734 83.1723 21.2853 83.6118 21.1042C84.0654 20.927 84.4802 20.6632 84.8332 20.3276C85.1761 20.0084 85.4477 19.6202 85.6302 19.1886C85.832 18.7304 85.9478 18.239 85.9717 17.7389C85.9717 17.2446 85.8732 16.7553 85.6819 16.2996C85.4698 15.8628 85.1825 15.4668 84.8332 15.1295C84.3163 14.623 83.6623 14.2794 82.952 14.1413C82.2418 14.0033 81.5067 14.0769 80.8378 14.3529C80.4061 14.5367 80.0128 14.8001 79.6786 15.1295C79.3437 15.4654 79.0767 15.8627 78.8919 16.2996C78.703 16.7554 78.6113 17.2456 78.6228 17.7389ZM93.507 12.7686C94.2338 12.7915 94.9441 12.9905 95.5771 13.3485C96.1772 13.6835 96.719 14.1136 97.1814 14.6221V10.1178C97.1856 9.88457 97.2497 9.65632 97.3678 9.45512C97.5009 9.3539 97.6669 9.30592 97.8335 9.32051C97.9148 9.32051 97.9953 9.33703 98.07 9.36907C98.1447 9.40111 98.2122 9.448 98.2683 9.5069C98.3954 9.70411 98.4603 9.93501 98.4546 10.1696V17.77C98.4576 18.4235 98.3309 19.0711 98.082 19.6753C97.832 20.2535 97.4815 20.7829 97.0469 21.2388C96.5885 21.6752 96.0556 22.0259 95.4736 22.2743C94.8761 22.5195 94.2356 22.6428 93.5898 22.6367C92.9212 22.6499 92.2576 22.5193 91.6439 22.2536C91.063 22.0145 90.5353 21.6626 90.0913 21.2181C89.6503 20.7712 89.299 20.244 89.0562 19.6649C88.7861 19.0736 88.6483 18.4304 88.6525 17.7803C88.6483 17.1236 88.786 16.4736 89.0562 15.8751C89.3021 15.2915 89.6529 14.758 90.0913 14.3011C90.5505 13.8707 91.0789 13.5207 91.6542 13.2657C92.2361 13.0021 92.8682 12.8679 93.507 12.8722M97.1918 17.8218C97.1735 17.3164 97.0648 16.8184 96.8709 16.3514C96.6761 15.9206 96.4062 15.5279 96.0739 15.1917C95.7529 14.8658 95.3691 14.6086 94.9457 14.4358C94.5103 14.251 94.0421 14.1559 93.5691 14.1562C93.0757 14.1529 92.5866 14.2479 92.1304 14.4358C91.6904 14.6193 91.2924 14.8906 90.9607 15.2331C90.6316 15.5636 90.3682 15.9536 90.1844 16.3825C89.9985 16.8394 89.9036 17.3284 89.905 17.8218C89.9005 18.3087 89.9956 18.7915 90.1844 19.2404C90.3682 19.6692 90.6316 20.0592 90.9607 20.3897C91.2924 20.7322 91.6904 21.0035 92.1304 21.1871C92.5866 21.3749 93.0757 21.4699 93.5691 21.4666C94.049 21.4689 94.5243 21.3738 94.9664 21.1871C95.4064 21.0035 95.8043 20.7322 96.136 20.3897C96.4652 20.0592 96.7286 19.6692 96.9123 19.2404C97.1012 18.7915 97.1963 18.3087 97.1918 17.8218ZM101.084 10.1903C101.079 10.0813 101.1 9.97266 101.143 9.87237C101.185 9.77207 101.25 9.6826 101.332 9.61044C101.402 9.52267 101.49 9.45122 101.59 9.40113C101.69 9.35104 101.8 9.32352 101.912 9.32051C102.022 9.31621 102.132 9.33623 102.234 9.37918C102.336 9.42212 102.427 9.48693 102.502 9.56903C102.582 9.6425 102.645 9.73222 102.688 9.8322C102.731 9.93218 102.752 10.0401 102.75 10.1489C102.751 10.259 102.73 10.3682 102.687 10.4697C102.644 10.5712 102.581 10.6629 102.502 10.7391C102.426 10.8196 102.335 10.8833 102.233 10.9261C102.131 10.9689 102.022 10.9899 101.912 10.9876C101.803 10.9878 101.696 10.9659 101.596 10.9232C101.497 10.8804 101.407 10.8178 101.332 10.7391C101.251 10.6645 101.186 10.5731 101.143 10.4712C101.1 10.3693 101.08 10.2594 101.084 10.1489M101.291 13.4624C101.289 13.3799 101.306 13.2981 101.34 13.2229C101.374 13.1477 101.424 13.081 101.487 13.0275C101.541 12.9689 101.607 12.9221 101.68 12.89C101.753 12.858 101.832 12.8413 101.912 12.8411C101.996 12.8389 102.081 12.8543 102.159 12.8864C102.237 12.9185 102.308 12.9665 102.367 13.0275C102.43 13.081 102.48 13.1477 102.514 13.2229C102.548 13.2981 102.565 13.3799 102.564 13.4624V22.0879C102.567 22.1722 102.55 22.256 102.516 22.3331C102.482 22.4102 102.431 22.4786 102.367 22.5332C102.307 22.5923 102.236 22.6384 102.158 22.6687C102.079 22.699 101.996 22.7128 101.912 22.7092C101.833 22.711 101.754 22.6962 101.681 22.6659C101.608 22.6356 101.542 22.5904 101.487 22.5332C101.423 22.4786 101.372 22.4102 101.338 22.3331C101.304 22.256 101.288 22.1722 101.291 22.0879V13.4624ZM104.862 21.9844C104.867 21.818 104.933 21.6594 105.048 21.5391C105.107 21.4773 105.177 21.4279 105.256 21.3941C105.334 21.3603 105.418 21.3427 105.503 21.3424H109.892C110.27 21.3322 110.629 21.179 110.898 20.9137C111.167 20.6485 111.325 20.291 111.341 19.9134C111.338 19.5307 111.184 19.1647 110.913 18.895C110.642 18.6254 110.275 18.4741 109.892 18.4741H107.511C107.135 18.4675 106.762 18.3902 106.414 18.2463C106.081 18.0935 105.782 17.8752 105.534 17.6043C105.276 17.343 105.072 17.0333 104.934 16.6931C104.779 16.3411 104.701 15.9596 104.706 15.5748C104.705 15.1937 104.782 14.8164 104.934 14.4668C105.067 14.1239 105.272 13.8132 105.534 13.5556C105.788 13.2884 106.1 13.083 106.445 12.955C106.79 12.8014 107.165 12.7237 107.542 12.7272H111.683C111.767 12.7243 111.852 12.7395 111.93 12.7716C112.009 12.8037 112.08 12.8521 112.138 12.9136C112.195 12.9709 112.239 13.0389 112.269 13.1135C112.3 13.1881 112.315 13.268 112.314 13.3485C112.313 13.5169 112.251 13.6791 112.138 13.8041C112.014 13.9198 111.852 13.9862 111.683 13.9905H107.542C107.124 13.9984 106.725 14.1675 106.428 14.4626C106.131 14.7578 105.959 15.1562 105.948 15.5748C105.953 16.0019 106.124 16.4103 106.425 16.7138C106.572 16.8596 106.746 16.9749 106.938 17.0531C107.13 17.1313 107.335 17.1708 107.542 17.1694H109.923C110.28 17.17 110.633 17.2477 110.958 17.3972C111.283 17.5325 111.578 17.7294 111.828 17.9771C112.071 18.2221 112.268 18.51 112.407 18.8262C112.542 19.1553 112.616 19.5062 112.625 19.8616C112.62 20.2177 112.547 20.5695 112.407 20.8971C112.273 21.2224 112.076 21.518 111.828 21.7669C111.573 22.0116 111.279 22.2112 110.958 22.3571C110.628 22.486 110.277 22.5561 109.923 22.5642H105.534C105.366 22.5627 105.204 22.5002 105.079 22.3882C104.967 22.2618 104.901 22.1012 104.893 21.9326L104.862 21.9844ZM115.326 18.2981C115.396 18.7251 115.543 19.1357 115.761 19.5096C115.96 19.8861 116.239 20.2146 116.578 20.4726C116.879 20.7509 117.231 20.9689 117.614 21.1146C118.024 21.2686 118.459 21.3459 118.897 21.3424C119.375 21.3414 119.848 21.2537 120.294 21.0835C120.731 20.9025 121.128 20.6388 121.464 20.3069C121.522 20.2517 121.59 20.2087 121.665 20.1802C121.739 20.1518 121.819 20.1385 121.899 20.1412C122.066 20.1359 122.229 20.1952 122.354 20.3069C122.47 20.4309 122.536 20.593 122.54 20.7625C122.534 20.9317 122.468 21.0931 122.354 21.2181C121.936 21.674 121.419 22.0282 120.843 22.2536C120.221 22.4844 119.56 22.5934 118.897 22.5746C118.244 22.5826 117.597 22.4593 116.993 22.2122C116.415 21.9667 115.889 21.6155 115.44 21.1767C114.99 20.7371 114.637 20.208 114.405 19.6235C114.145 19.0146 114.011 18.3595 114.011 17.6975C114.011 17.0355 114.145 16.3804 114.405 15.7715C114.895 14.591 115.833 13.6528 117.013 13.1621C117.634 12.8897 118.302 12.742 118.98 12.7272C119.616 12.7238 120.247 12.8507 120.833 13.1C121.393 13.3603 121.906 13.71 122.354 14.1355C122.792 14.5733 123.143 15.0897 123.389 15.6576C123.652 16.2494 123.803 16.8849 123.834 17.5318C123.853 17.6285 123.846 17.7285 123.814 17.8214C123.781 17.9144 123.724 17.9967 123.648 18.0599C123.59 18.1214 123.519 18.1698 123.44 18.2019C123.362 18.2341 123.277 18.2492 123.193 18.2463L115.326 18.2981ZM118.938 14.0526C118.507 14.0473 118.078 14.1246 117.676 14.2804C117.294 14.419 116.942 14.63 116.641 14.9017C116.32 15.1734 116.051 15.4993 115.844 15.8647C115.626 16.2257 115.472 16.6215 115.388 17.0348H122.571C122.495 16.6226 122.348 16.2267 122.137 15.8647C121.916 15.5032 121.64 15.1783 121.319 14.9017C121.013 14.636 120.662 14.4258 120.284 14.2804C119.881 14.1246 119.453 14.0473 119.021 14.0526H118.938ZM77.4739 26.6233C77.4689 26.5383 77.4831 26.4532 77.5153 26.3743C77.5475 26.2955 77.5971 26.2249 77.6602 26.1677C77.7132 26.1049 77.7801 26.0554 77.8555 26.0231C77.931 25.9907 78.013 25.9764 78.0949 25.9813H85.0298C85.1116 25.978 85.1931 25.993 85.2683 26.0252C85.3435 26.0575 85.4106 26.1062 85.4646 26.1677C85.5838 26.2894 85.6506 26.4529 85.6509 26.6233C85.6469 26.7899 85.5804 26.9488 85.4646 27.0686C85.4111 27.1314 85.3444 27.1816 85.2692 27.2157C85.1941 27.2497 85.1123 27.2666 85.0298 27.2653H82.1317V37.092C82.1367 37.1785 82.1227 37.2652 82.0905 37.3457C82.0583 37.4263 82.0087 37.4987 81.9454 37.5579C81.8898 37.6182 81.8227 37.6667 81.748 37.7005C81.6733 37.7343 81.5926 37.7527 81.5106 37.7547C81.3456 37.7485 81.1895 37.6779 81.0759 37.5579C81.0125 37.4987 80.963 37.4263 80.9308 37.3457C80.8986 37.2652 80.8845 37.1785 80.8896 37.092V27.2653H78.0949C78.0122 27.2681 77.93 27.2519 77.8546 27.2178C77.7792 27.1836 77.7127 27.1326 77.6602 27.0686C77.599 27.0121 77.5507 26.9431 77.5185 26.8662C77.4864 26.7894 77.4712 26.7065 77.4739 26.6233ZM85.123 32.8361C85.116 32.2001 85.2393 31.5693 85.4853 30.9827C85.7399 30.4162 86.09 29.8978 86.5203 29.4501C86.9622 29.0127 87.4817 28.6616 88.0522 28.4147C88.6293 28.1588 89.253 28.0248 89.8843 28.0212C90.068 28.0119 90.2486 28.0709 90.3914 28.1869C90.4565 28.243 90.5079 28.3132 90.542 28.3921C90.5761 28.471 90.5918 28.5566 90.5881 28.6425C90.5874 28.7247 90.5696 28.8058 90.5357 28.8807C90.5018 28.9556 90.4527 29.0226 90.3914 29.0774C90.2486 29.1933 90.068 29.2523 89.8843 29.2431C89.4151 29.256 88.9536 29.3653 88.5283 29.564C88.1098 29.7495 87.7304 30.0131 87.4105 30.3407C87.0773 30.6515 86.819 31.0338 86.6549 31.459C86.4726 31.895 86.381 32.3636 86.3858 32.8361V37.123C86.3834 37.2869 86.3165 37.4432 86.1995 37.5579C86.1429 37.6154 86.0751 37.6607 86.0003 37.691C85.9256 37.7213 85.8454 37.7359 85.7647 37.7339C85.5966 37.7324 85.4348 37.6699 85.3093 37.5579C85.2542 37.5001 85.2111 37.4318 85.1827 37.3572C85.1542 37.2825 85.141 37.2029 85.1437 37.123L85.123 32.8361ZM95.4322 28.0937C96.0623 28.0871 96.6867 28.2141 97.2643 28.4664C97.8255 28.719 98.3373 29.0696 98.7754 29.5019C99.2154 29.9417 99.5668 30.462 99.8105 31.0344C100.072 31.6207 100.206 32.2561 100.204 32.8983V37.0402C100.205 37.1248 100.19 37.2089 100.158 37.2872C100.126 37.3656 100.078 37.4365 100.018 37.4958C99.9597 37.5509 99.8915 37.594 99.8168 37.6225C99.7422 37.6509 99.6626 37.6642 99.5828 37.6615C99.5029 37.6648 99.4231 37.6518 99.3484 37.6233C99.2737 37.5948 99.2055 37.5514 99.1481 37.4958C99.0876 37.4365 99.0399 37.3656 99.0079 37.2872C98.9758 37.2089 98.9601 37.1248 98.9618 37.0402V35.8804C98.5054 36.3884 97.9665 36.8155 97.3678 37.1437C96.7405 37.5095 96.0234 37.6924 95.2976 37.6718C94.6815 37.6534 94.0741 37.52 93.507 37.2783C92.9396 37.0256 92.4211 36.6751 91.9751 36.2429C91.5381 35.8086 91.1869 35.2957 90.94 34.7311C90.6866 34.1319 90.5598 33.4867 90.5674 32.8361C90.5731 32.2271 90.6998 31.6252 90.94 31.0655C91.184 30.4993 91.5355 29.9859 91.9751 29.5537C92.4164 29.1204 92.9317 28.7697 93.4966 28.5182C94.115 28.2638 94.7742 28.1234 95.4425 28.104M91.8198 32.919C91.8112 33.3909 91.8993 33.8596 92.0786 34.2962C92.2616 34.7142 92.5175 35.0964 92.8342 35.4248C93.1729 35.7434 93.5654 35.9993 93.9935 36.1807C94.4276 36.3707 94.8962 36.4694 95.3701 36.4707C95.8359 36.4828 96.2997 36.4055 96.7364 36.2429C97.1608 36.0661 97.5473 35.8095 97.8749 35.487C98.2019 35.1619 98.4714 34.7838 98.6719 34.3687C98.8561 33.9166 98.9645 33.4373 98.9928 32.9501C98.9918 32.4693 98.8932 31.9937 98.703 31.5522C98.3245 30.704 97.6463 30.0255 96.7985 29.6469C96.3457 29.4731 95.8654 29.3819 95.3804 29.3777C94.9089 29.3819 94.4422 29.4731 94.0038 29.6469C93.5707 29.8282 93.177 30.0919 92.8445 30.4235C92.5197 30.7315 92.2593 31.1011 92.0786 31.5107C91.892 31.953 91.7969 32.4286 91.7991 32.9086L91.8198 32.919ZM100.897 28.9945C100.835 28.8347 100.835 28.6573 100.897 28.4975C100.954 28.3428 101.069 28.2164 101.218 28.1454C101.294 28.1072 101.377 28.0873 101.461 28.0873C101.546 28.0873 101.629 28.1072 101.705 28.1454C101.845 28.2127 101.958 28.326 102.026 28.4664L104.81 35.4663L107.677 28.4664C107.771 28.3323 107.895 28.2223 108.039 28.1454C108.11 28.1099 108.188 28.0914 108.267 28.0914C108.346 28.0914 108.424 28.1099 108.495 28.1454C108.636 28.2213 108.749 28.3413 108.816 28.4872C108.868 28.6346 108.868 28.7954 108.816 28.9428C108.745 29.0681 108.686 29.1999 108.64 29.3362C108.526 29.5848 108.36 30.0197 108.112 30.6306L107.077 33.1364C106.663 34.1719 106.114 35.5387 105.472 37.1644C105.423 37.3052 105.337 37.4303 105.224 37.5269C105.167 37.5759 105.102 37.613 105.03 37.6361C104.959 37.6593 104.884 37.6679 104.81 37.6615C104.644 37.6657 104.483 37.6106 104.354 37.5061C104.255 37.4052 104.171 37.29 104.106 37.1644C103.537 35.6526 103.071 34.3894 102.657 33.3435L101.622 30.817C101.353 30.175 101.166 29.7194 101.053 29.4191C100.98 29.2788 100.918 29.1335 100.866 28.9842L100.897 28.9945ZM110.244 33.4781C110.302 33.9 110.447 34.3053 110.668 34.6689C110.863 35.0397 111.131 35.3673 111.455 35.6319C111.76 35.8998 112.11 36.1102 112.49 36.2532C112.91 36.4275 113.36 36.5173 113.815 36.5173C114.27 36.5173 114.72 36.4275 115.14 36.2532C115.558 36.0701 115.94 35.8142 116.268 35.4973C116.325 35.4408 116.393 35.3961 116.468 35.3659C116.542 35.3357 116.622 35.3205 116.703 35.3213C116.871 35.3218 117.033 35.3845 117.158 35.4973C117.271 35.6181 117.334 35.7773 117.334 35.9426C117.334 36.1079 117.271 36.267 117.158 36.3878C116.754 36.8509 116.242 37.2067 115.668 37.4233C115.053 37.6537 114.399 37.7627 113.742 37.7443C113.1 37.7512 112.463 37.6279 111.869 37.3819C111.298 37.1363 110.778 36.785 110.337 36.3464C109.901 35.9035 109.55 35.384 109.302 34.8139C109.047 34.2075 108.917 33.556 108.919 32.8983C108.915 32.257 109.045 31.622 109.302 31.0344C109.542 30.4602 109.894 29.9393 110.337 29.5019C110.783 29.0695 111.302 28.719 111.869 28.4664C112.488 28.2101 113.146 28.063 113.815 28.0315C114.435 28.0338 115.048 28.1642 115.616 28.4147C116.174 28.672 116.685 29.0221 117.127 29.4501C117.562 29.8826 117.912 30.3916 118.162 30.9516C118.418 31.5308 118.565 32.152 118.597 32.7844C118.612 32.8801 118.604 32.9781 118.574 33.07C118.543 33.162 118.491 33.2452 118.421 33.3125C118.297 33.4192 118.139 33.4779 117.976 33.4781H110.244ZM113.784 29.3362C113.356 29.3337 112.931 29.411 112.531 29.564C112.153 29.7098 111.803 29.92 111.496 30.1853C111.189 30.4348 110.923 30.7319 110.71 31.0655C110.503 31.4295 110.356 31.8246 110.275 32.2356H117.344C117.271 31.824 117.128 31.4281 116.92 31.0655C116.7 30.722 116.431 30.4117 116.123 30.1439C115.817 29.8786 115.466 29.6684 115.088 29.5226C114.682 29.3691 114.249 29.2952 113.815 29.3052L113.784 29.3362ZM124 37.123C124.003 37.2048 123.988 37.2863 123.956 37.3616C123.924 37.4368 123.875 37.5039 123.814 37.5579C123.756 37.6145 123.688 37.6591 123.614 37.6893C123.539 37.7196 123.459 37.7347 123.379 37.7339C122.891 37.7498 122.406 37.6502 121.963 37.4433C121.521 37.2364 121.133 36.928 120.833 36.5432C120.594 36.2308 120.408 35.8808 120.284 35.5077C120.171 35.1734 120.104 34.8248 120.087 34.4722V26.7372C120.087 26.6518 120.104 26.5673 120.138 26.4889C120.172 26.4105 120.222 26.3399 120.284 26.2816C120.341 26.2241 120.408 26.1788 120.483 26.1485C120.558 26.1182 120.638 26.1036 120.719 26.1056C120.884 26.1057 121.043 26.1686 121.164 26.2816C121.223 26.3413 121.269 26.4126 121.299 26.491C121.33 26.5694 121.343 26.6532 121.34 26.7372V34.4826C121.345 34.6402 121.369 34.7967 121.412 34.9485C121.47 35.1829 121.564 35.4066 121.692 35.6112C121.859 35.8548 122.074 36.0625 122.323 36.2222C122.639 36.4008 122.995 36.4969 123.358 36.5017C123.439 36.501 123.518 36.5161 123.593 36.5463C123.668 36.5765 123.736 36.6212 123.793 36.6778C123.854 36.7342 123.902 36.8032 123.935 36.8801C123.967 36.9569 123.982 37.0398 123.979 37.123H124ZM54.568 9.32051C55.1808 9.584 55.739 9.95977 56.2137 10.4285C56.6603 10.8907 57.0119 11.4359 57.2488 12.0335C57.5171 12.6618 57.6545 13.3383 57.6525 14.0216C57.6642 14.7325 57.5266 15.438 57.2488 16.0925C56.9927 16.6974 56.6158 17.2435 56.1413 17.6975C55.6654 18.1675 55.1012 18.5386 54.4812 18.7892C53.8611 19.0398 53.1976 19.165 52.5289 19.1575C51.7798 19.1642 51.0428 18.9673 50.3967 18.588C49.7654 18.2376 49.1955 17.7864 48.7095 17.2523V22.0879C48.7073 22.1739 48.6878 22.2585 48.6522 22.3367C48.6167 22.415 48.5658 22.4853 48.5025 22.5435C48.4449 22.6061 48.3743 22.6553 48.2956 22.6875C48.2169 22.7197 48.132 22.7342 48.0471 22.7299C47.961 22.7311 47.8755 22.7153 47.7956 22.6833C47.7156 22.6513 47.6428 22.6038 47.5813 22.5435C47.5209 22.4843 47.4732 22.4133 47.4411 22.335C47.4091 22.2566 47.3934 22.1726 47.395 22.0879V14.0112C47.3851 13.3228 47.5264 12.6405 47.809 12.0127C48.0798 11.3905 48.4702 10.8276 48.958 10.356C49.4327 9.9155 49.9833 9.56468 50.583 9.32051C51.1943 9.04386 51.858 8.90258 52.5289 8.90632C53.2433 8.91064 53.9488 9.0659 54.599 9.36193M56.1102 12.5719C55.9215 12.1148 55.6395 11.7022 55.2822 11.3604C54.9359 11.0137 54.5242 10.7392 54.0712 10.5527C53.6098 10.343 53.1081 10.2369 52.6014 10.2421C52.0882 10.2392 51.5802 10.345 51.1109 10.5527C50.6578 10.7392 50.2462 11.0137 49.8999 11.3604C49.5424 11.6977 49.2663 12.112 49.0925 12.5719C48.8809 13.0401 48.7748 13.5492 48.782 14.063C48.7916 14.5683 48.897 15.0673 49.0925 15.5334C49.2925 15.9843 49.5731 16.3949 49.9206 16.7449C50.2701 17.085 50.6811 17.3555 51.1316 17.5422C51.5881 17.7292 52.077 17.8242 52.5703 17.8218C53.0705 17.833 53.5674 17.7393 54.0291 17.5467C54.4909 17.3541 54.9071 17.0668 55.2511 16.7034C55.6013 16.3597 55.8824 15.9519 56.0792 15.5023C56.2762 15.0338 56.3749 14.5298 56.369 14.0216C56.3728 13.5102 56.2743 13.0032 56.0792 12.5305L56.1102 12.5719Z" fill="white"/>
<path d="M4.89523 38.7301C10.2802 34.7795 16.5092 32.1348 23.0907 31.0045C29.6721 29.8742 36.4262 30.2892 42.8199 32.2169C37.2202 31.9374 19.2101 28.6342 7.51394 47.6973C7.19809 48.1741 6.71994 48.52 6.16836 48.6706C3.44615 49.1573 -1.66705 45.8438 0.537627 42.9755C1.89039 41.4614 3.34641 40.0428 4.89523 38.7301Z" fill="#1275BC"/>
<path d="M8.08277 17.184C9.82168 15.3615 12.9993 14.5021 16.9015 13.8601C21.7663 13.0317 30.3573 12.7728 30.8541 19.431C31.3613 25.5713 22.6771 31.7635 16.8704 30.3863C12.7302 29.3508 6.05405 19.3378 8.08277 17.184ZM13.3409 20.4871C14.4011 23.0282 16.3831 25.0739 18.8888 26.2133C21.7973 27.4145 27.4074 24.5876 26.6725 21.0359C25.6374 15.9518 18.1746 16.3349 12.5956 18.7268C12.8441 19.3378 13.0614 19.928 13.3409 20.4871Z" fill="#EE1D23"/>
<path d="M32.0449 24.6463C35.7194 24.025 37.9344 17.9985 38.5969 12.9765C37.9965 12.8833 37.0132 12.6451 36.3922 12.5933C34.4187 12.3978 32.4326 12.8097 30.6994 13.7738C29.3033 12.8054 27.6238 12.3316 25.9277 12.4277C26.1927 12.0302 26.4867 11.6529 26.8075 11.299C30.5338 7.59198 41.8573 7.7266 42.6647 10.5949C43.3375 13.0179 42.4163 16.1761 40.9775 19.9141C39.1558 24.4185 35.6573 31.0662 28.9398 29.3991C28.5402 29.3124 28.1538 29.1731 27.7908 28.9849C29.064 28.6018 31.6723 26.1581 32.0139 24.6463H32.0449Z" fill="#00AEEF"/>
</svg>
