<svg width="160" height="22" viewBox="0 0 160 22" fill="none" xmlns="http://www.w3.org/2000/svg">
<path fill-rule="evenodd" clip-rule="evenodd" d="M11.247 2.76163H7.39969V14.818H3.80909V2.76163H0V0.234375H11.247V2.76163ZM26.284 14.818H22.2983L18.1496 8.63277H16.6702V14.818H13.0778V0.234375H18.4728C20.2417 0.234375 21.6137 0.601263 22.5824 1.33595C23.5501 2.06973 24.0353 3.07845 24.0353 4.36302C24.0353 5.31894 23.8032 6.09459 23.3362 6.69272C22.8719 7.29085 22.2519 7.69962 21.4771 7.92175L26.284 14.818ZM20.442 4.9302C20.442 4.20461 20.2454 3.66202 19.853 3.30059C19.4597 2.94098 18.8989 2.76163 18.1733 2.76163H16.6702V7.07872H18.2908C18.9562 7.07872 19.4815 6.88572 19.8676 6.49698C20.249 6.10824 20.442 5.58659 20.442 4.9302Z" fill="white"/>
<path fill-rule="evenodd" clip-rule="evenodd" d="M41.7556 14.8212H37.7026L36.5027 12.3477H30.6506L29.6028 14.8212H25.9002L33.2125 0.10652H34.3778L41.7556 14.8212ZM35.8171 10.9266L33.4965 6.0514L31.2178 10.9266H35.8171ZM55.3824 1.26363L48.285 14.9278H46.608L39.4906 1.26363L42.9446 0L47.5594 9.1604L52.0067 0L55.3824 1.26363ZM66.6613 14.8212H56.9738V0.237615H66.2999V2.76487H60.5671V6.63496H66.5166V8.26639H60.5671V12.2949H66.6613V14.8212ZM78.9963 14.8212H69.0557V0.237615H72.6481V12.2949H78.9963V14.8212ZM122.127 14.8212H117.744L113.413 9.07118L112.476 9.86687V14.8212H108.883V0.237615H112.476V5.92577L119.135 0L121.364 2.0138L115.916 6.88441L122.127 14.8212ZM123.932 0.237615H127.524V14.8212H123.932V0.237615ZM144.006 14.8212H142.491L135.007 6.42102V14.8212H131.632V0.237615H133.148L140.634 8.61143V0.237615H144.006V14.8212ZM160 13.6905C159.414 14.1275 158.618 14.4625 157.604 14.6901C156.595 14.9196 155.746 15.0334 155.063 15.0334C152.414 15.0334 150.453 14.3278 149.178 12.9121C147.901 11.4983 147.264 9.77218 147.264 7.73654C147.264 5.771 147.966 4.00756 149.373 2.44715C150.775 0.887639 152.736 0.10743 155.251 0.10743C155.932 0.10743 156.719 0.216679 157.622 0.434263C158.519 0.652758 159.192 0.912217 159.638 1.21174L159.127 4.79323H158.187V3.55418C157.933 3.3457 157.552 3.16181 157.04 3.00249C156.529 2.84499 155.945 2.76487 155.279 2.76487C153.977 2.76487 152.948 3.23919 152.19 4.18691C151.429 5.13463 151.045 6.22893 151.036 7.46979C151.036 8.95283 151.377 10.1354 152.06 11.0203C152.743 11.9043 153.806 12.3468 155.25 12.3468C155.608 12.3516 155.966 12.3284 156.321 12.2776C156.56 12.2431 156.795 12.1871 157.024 12.1101V8.26548H154.375V6.63405H159.998V13.6905H160ZM83.439 0.122905H104.485V1.05697H83.439V0.122905ZM83.8823 13.8453H104.93V14.7784H83.8823V13.8453ZM86.3468 11.8142C86.3468 11.8142 87.8917 10.5861 94.2572 10.5861C100.623 10.5861 102.611 11.7605 102.611 11.7605L103.456 6.95542L101.249 9.78493C101.249 9.78493 100.661 9.5983 100.365 9.54458C100.365 9.57099 99.8124 5.94033 99.8124 5.94033L98.1947 9.17133C98.1947 9.17133 97.4955 9.0903 97.0904 9.0903C97.0904 9.1167 96.098 5.40684 96.098 5.40684L94.5886 8.95829H93.8521C93.8521 8.93007 92.38 5.38044 92.38 5.38044L91.6435 9.0639C91.6435 9.0639 91.13 9.14492 90.7595 9.17224C90.7595 9.14492 88.8103 5.86022 88.8103 5.86022L88.2969 9.67842C88.2969 9.67842 87.7069 9.78493 87.5585 9.83773C87.5585 9.81133 85.0213 6.82068 85.0213 6.82068L86.3468 11.8142ZM84.9858 5.24843C84.9858 5.42413 84.7864 5.56798 84.5433 5.56798C84.3002 5.56798 84.1027 5.42504 84.1027 5.24843C84.1027 5.07181 84.3002 4.92797 84.5433 4.92797C84.7864 4.92797 84.9858 5.07181 84.9858 5.24843ZM88.6264 4.23334C88.6264 4.41087 88.4307 4.5538 88.1876 4.5538C87.9418 4.5538 87.747 4.41178 87.747 4.23334C87.747 4.05581 87.9427 3.91288 88.1876 3.91288C88.4307 3.91288 88.6264 4.05581 88.6264 4.23334ZM92.6039 3.48591C92.6039 3.66161 92.4027 3.80636 92.1597 3.80636C91.9175 3.80636 91.719 3.66252 91.719 3.48591C91.719 3.30838 91.9184 3.16454 92.1597 3.16454C92.4027 3.16454 92.6039 3.30838 92.6039 3.48591ZM96.5013 3.45859C96.5013 3.63521 96.3038 3.77905 96.0607 3.77905C95.8176 3.77905 95.6201 3.63521 95.6201 3.45859C95.6201 3.28289 95.8176 3.13814 96.0607 3.13814C96.3038 3.13814 96.5013 3.28289 96.5013 3.45859ZM100.587 4.20603C100.587 4.38356 100.386 4.52739 100.145 4.52739C99.8989 4.52739 99.7023 4.38356 99.7023 4.20603C99.7023 4.02941 99.8998 3.88648 100.145 3.88648C100.386 3.88648 100.587 4.02941 100.587 4.20603ZM104.451 5.40775C104.451 5.58346 104.252 5.72912 104.008 5.72912C103.763 5.72912 103.566 5.58437 103.566 5.40775C103.566 5.23022 103.764 5.08729 104.008 5.08729C104.252 5.08729 104.451 5.23022 104.451 5.40775ZM18.7363 18.0932C19.7632 18.0932 20.5097 18.0932 20.5097 19.4752C20.5097 20.8125 19.8652 20.8462 19.0513 20.8462H18.2592V18.0941L18.7363 18.0932ZM17.2041 17.3904V21.5472H19.1915C19.5292 21.5472 20.4014 21.5472 20.9367 21.0829C21.604 20.5085 21.604 19.7583 21.604 19.5089C21.604 18.6959 21.3391 18.3126 21.1643 18.0914C20.599 17.3895 19.7341 17.3895 19.1396 17.3895L17.2041 17.3904ZM22.4971 17.3904H26.3909V18.0932H23.5532V19.0163H26.1933V19.7201H23.5532V20.8453H26.4865V21.5481H22.4971V17.3904ZM29.4271 17.3904H30.4822V20.8453H33.1224V21.5481H29.4271V17.3904ZM35.2481 19.9049L35.9592 18.3618L36.6856 19.9049H35.2481ZM38.6366 21.5481L36.5318 17.3913H35.4102L33.3645 21.5481H34.4934L34.9268 20.6077H37.0234L37.4786 21.5481H38.6366ZM40.543 19.9049L41.2549 18.3618L41.9805 19.9049H40.543ZM43.9297 21.5481L41.8257 17.3913H40.7041L38.6585 21.5481H39.7874L40.2207 20.6077H42.3183L42.7735 21.5481H43.9297ZM46.5106 19.3204H48.7912V20.9737C48.4835 21.2122 47.6104 21.6192 46.548 21.6192C44.6562 21.6192 43.886 20.5504 43.886 19.4588C43.886 18.4419 44.5906 17.3212 46.4897 17.3212C47.34 17.3212 48.4398 17.5187 48.7265 18.5411L47.6705 18.6977C47.4656 18.1232 46.8129 18.0413 46.497 18.0413C46.05 18.0413 45.5729 18.1515 45.2652 18.5056C45.0376 18.7724 44.9793 19.1028 44.9793 19.4233C44.9793 20.0387 45.2506 20.899 46.4824 20.899C47.0978 20.899 47.5904 20.625 47.7215 20.5431V20.0205H46.5115V19.3204H46.5106ZM50.6247 20.1197C50.6748 20.3346 50.8141 20.9145 51.7682 20.9145C52.5083 20.9145 52.8015 20.6068 52.8015 20.3401C52.8015 19.9914 52.4355 19.9149 51.4668 19.7301C50.947 19.6254 49.7881 19.3996 49.7881 18.4819C49.7881 18.0286 50.1613 17.3212 51.7017 17.3212C52.7286 17.3212 53.6663 17.6416 53.7109 18.5803L52.6485 18.6158C52.6048 18.4009 52.5238 18.0113 51.688 18.0113C51.3721 18.0113 50.8004 18.0877 50.8004 18.4237C50.8004 18.6922 51.13 18.8079 51.973 18.9644C52.7714 19.1156 53.8575 19.3204 53.8575 20.341C53.8575 20.8462 53.4542 21.2696 52.9999 21.4325C52.5311 21.6064 52.003 21.6192 51.7609 21.6192C51.1955 21.6192 49.8035 21.5764 49.5978 20.1971L50.6247 20.1197ZM55.8886 18.0932H54.3355V17.3904H58.4987V18.0932H56.9447V21.5481H55.8886V18.0932ZM59.2034 17.3904H63.0971V18.0932H60.2585V19.0163H62.8977V19.7201H60.2585V20.8453H63.1927V21.5481H59.2034V17.3904ZM67.701 18.0932C68.3319 18.0932 68.5813 18.0932 68.8162 18.2571C68.8908 18.2995 68.9526 18.3611 68.9952 18.4356C69.0378 18.5101 69.0596 18.5946 69.0584 18.6804C69.0584 19.2776 68.3182 19.2776 67.7756 19.2776H67.1884V18.0932H67.701ZM66.1324 21.5481H67.1875V19.9814H67.8849C68.3547 19.9814 68.9191 19.9741 69.2924 19.8357C69.6219 19.7128 70.1499 19.3996 70.1499 18.6677C70.1499 17.9657 69.6583 17.6471 69.3215 17.5187C69.0438 17.414 68.757 17.3904 67.833 17.3904H66.1324V21.5481ZM72.0782 18.0932H72.9066C73.6186 18.0932 73.7497 18.0932 73.9481 18.1861C74.0308 18.2214 74.1008 18.2809 74.1491 18.3568C74.1973 18.4327 74.2215 18.5213 74.2185 18.6112C74.2185 18.7323 74.1821 18.999 73.8161 19.0983C73.6322 19.1502 73.1852 19.1502 72.8629 19.1502H72.0782V18.0932ZM71.023 21.5481H72.0791V19.8129H72.2912C73.0031 19.8129 73.0687 19.8949 73.7078 20.6432L74.4698 21.5481H75.738L75.1007 20.7352C74.5727 20.0669 74.3669 19.9158 73.9272 19.7201V19.7073C74.1311 19.6891 74.3305 19.6436 74.5135 19.579C75.026 19.4115 75.3128 19.01 75.3128 18.5584C75.3128 18.1515 75.0634 17.6744 74.4543 17.4951C74.2932 17.4541 74.0373 17.3904 73.2526 17.3904H71.023V21.5481ZM76.2578 17.3904H77.3139V21.5481H76.2578V17.3904ZM81.3023 17.3904V20.015C81.3023 20.3173 81.3023 20.7579 81.0164 21.0966C80.6941 21.479 80.1816 21.6192 79.5653 21.6192C78.5174 21.6192 77.9666 21.1712 77.9375 20.259L78.9426 20.1543C78.9717 20.4174 78.9799 20.899 79.6035 20.899C80.2481 20.899 80.2481 20.4812 80.2481 20.0742V17.3913L81.3023 17.3904ZM83.2223 20.1197C83.2742 20.3346 83.4144 20.9145 84.3676 20.9145C85.1087 20.9145 85.4009 20.6068 85.4009 20.3401C85.4009 19.9914 85.0349 19.9149 84.0672 19.7301C83.5464 19.6254 82.3884 19.3996 82.3884 18.4819C82.3884 18.0286 82.7617 17.3212 84.302 17.3212C85.3281 17.3212 86.2667 17.6416 86.3113 18.5803L85.2479 18.6158C85.2033 18.4009 85.1232 18.0113 84.2875 18.0113C83.9707 18.0113 83.398 18.0877 83.398 18.4237C83.398 18.6922 83.7285 18.8079 84.5733 18.9644C85.3718 19.1156 86.456 19.3204 86.456 20.341C86.456 20.8462 86.0546 21.2696 85.5994 21.4325C85.1296 21.6064 84.6016 21.6192 84.3603 21.6192C83.7968 21.6192 82.403 21.5764 82.1963 20.1971L83.2223 20.1197ZM89.3019 17.3904H90.3598V21.5481H89.3019V17.3904ZM91.4213 17.3904H92.4473L94.5813 20.1662H94.595V17.3904H95.5782V21.5481H94.5149L92.4191 18.8361H92.4027V21.5481H91.4213V17.3904ZM98.7309 17.3904H99.787V19.2367L101.935 17.3904H103.358L101.386 19.0109L103.468 21.5481H102.097L100.651 19.5972L99.787 20.2945V21.5481H98.7309V17.3904ZM103.49 17.3904H104.574L105.359 20.2481H105.374L106.327 17.3904H107.588L108.505 20.2945H108.519L109.311 17.3904H110.383L109.107 21.5481H107.977L106.944 18.4419H106.928L105.895 21.5481H104.743L103.49 17.3904ZM111.848 19.9049L112.561 18.3618L113.284 19.9049H111.848ZM115.237 21.5481L113.132 17.3913H112.011L109.966 21.5481H111.093L111.527 20.6077H113.624L114.079 21.5481H115.237ZM115.801 17.3904H116.857V20.8453H119.496V21.5481H115.801V17.3904ZM120.224 17.3904H121.278V21.5481H120.224V17.3904ZM123.485 18.0932H121.931V17.3904H126.096V18.0932H124.541V21.5481H123.485V18.0932ZM126.798 17.3904H130.693V18.0932H127.854V19.0163H130.495V19.7201H127.854V20.8453H130.789V21.5481H126.798V17.3904ZM131.632 17.3904H132.686V21.5481H131.632V17.3904ZM134.895 18.0932H133.339V17.3904H137.505V18.0932H135.949V21.5481H134.895V18.0932Z" fill="white"/>
</svg>
